<svg width="19" height="9" viewBox="0 0 19 9" fill="none" xmlns="http://www.w3.org/2000/svg">
<path d="M0.266626 4.00229C0.266838 4.00208 0.267014 4.00183 0.267262 4.00162L3.94735 0.345373C4.22305 0.0714704 4.66898 0.0724897 4.94341 0.347763C5.2178 0.623001 5.21674 1.06818 4.94104 1.34212L2.47023 3.79687H17.3858C17.7747 3.79687 18.0901 4.11166 18.0901 4.5C18.0901 4.88833 17.7747 5.20312 17.3858 5.20312H2.47027L4.94101 7.65787C5.21671 7.93181 5.21776 8.37699 4.94337 8.65223C4.66894 8.92754 4.22298 8.92849 3.94732 8.65462L0.267225 4.99837C0.267014 4.99816 0.266838 4.99792 0.266592 4.9977C-0.00924683 4.72285 -0.00836563 4.27623 0.266626 4.00229Z" fill="#DE2328"/>
</svg>
