<svg width="129" height="140" viewBox="0 0 129 140" fill="none" xmlns="http://www.w3.org/2000/svg">
<path opacity="0.7" d="M24.8907 54.6018C24.1226 54.623 23.3618 54.4461 22.6806 54.0879L4.9497 43.7787C4.68423 43.6508 4.45781 43.4532 4.29417 43.2068C4.13053 42.9603 4.03572 42.674 4.01965 42.3779C4.05915 41.9949 4.19832 41.6292 4.42309 41.3177C4.64787 41.0063 4.95027 40.7602 5.29972 40.6043L22.3006 30.6982C23.0617 30.277 23.9095 30.0395 24.7772 30.0045C25.6449 29.9695 26.5088 30.138 27.3008 30.4967L45.0318 40.8059C45.2978 40.9342 45.5251 41.1315 45.6904 41.3777C45.8556 41.6239 45.9527 41.91 45.9718 42.2066C45.9391 42.5797 45.8127 42.9383 45.6045 43.2486C45.3963 43.5589 45.1132 43.8107 44.7818 43.9802L27.7809 53.8863C26.8955 54.3736 25.8994 54.6202 24.8907 54.6018ZM25.1807 30.416C24.2556 30.4066 23.3433 30.6356 22.5306 31.0812L5.52973 40.9873C5.244 41.1125 4.99427 41.3083 4.80371 41.5567C4.61315 41.8051 4.48794 42.098 4.43967 42.4082C4.46595 42.6263 4.54795 42.8339 4.67767 43.0105C4.80738 43.1871 4.98037 43.3268 5.17971 43.4159L22.8806 53.7453C23.6182 54.0772 24.4223 54.2318 25.2293 54.1968C26.0364 54.1619 26.8243 53.9383 27.5309 53.5437L44.5317 43.6275C44.8185 43.5039 45.0692 43.3085 45.26 43.0598C45.4508 42.8111 45.5753 42.5175 45.6218 42.2066C45.5946 41.9888 45.5122 41.7817 45.3826 41.6052C45.253 41.4287 45.0805 41.2888 44.8818 41.1989L27.1808 30.8494C26.5655 30.5222 25.8761 30.3624 25.1807 30.3858V30.416Z" fill="#69BCA8"/>
<path opacity="0.7" d="M85.4102 139.928C85.0231 139.937 84.6402 139.846 84.299 139.662L75.8621 134.732C75.7172 134.664 75.5939 134.557 75.5054 134.423C75.417 134.289 75.3669 134.134 75.3606 133.973C75.3792 133.774 75.4499 133.584 75.5656 133.421C75.6813 133.258 75.8379 133.129 76.0194 133.046L84.1318 128.353C84.5124 128.14 84.9379 128.019 85.3738 128.002C85.8096 127.985 86.2433 128.072 86.6393 128.255L95.086 133.184C95.2295 133.252 95.3519 133.358 95.4402 133.49C95.5285 133.622 95.5795 133.775 95.5875 133.934C95.568 134.134 95.4958 134.325 95.3783 134.488C95.2608 134.651 95.1023 134.779 94.9189 134.861L86.8065 139.564C86.3803 139.804 85.8992 139.93 85.4102 139.928ZM84.4957 139.327C84.8321 139.474 85.1977 139.541 85.5642 139.524C85.9307 139.507 86.2884 139.406 86.6098 139.228L94.7222 134.535C95.0172 134.358 95.1942 134.141 95.1942 133.944C95.1836 133.855 95.1499 133.771 95.0963 133.7C95.0427 133.629 94.9713 133.574 94.8894 133.539L86.4426 128.61C86.1067 128.461 85.7409 128.392 85.374 128.409C85.0071 128.426 84.6492 128.529 84.3285 128.708L76.2161 133.48C75.9309 133.648 75.7539 133.865 75.7539 134.062C75.7648 134.152 75.7986 134.237 75.852 134.309C75.9054 134.382 75.9766 134.439 76.0588 134.476L84.4957 139.327Z" fill="#69BCA8"/>
<path d="M64.7006 29.6712L64.9454 28.1835L66.1989 28.9324L65.954 30.4202L64.7006 29.6712Z" fill="#FCB513"/>
<path opacity="0.1" d="M64.7006 32.6568L64.9454 31.1657L66.1989 31.9113L65.954 33.4024L64.7006 32.6568Z" fill="#FCB513"/>
<path opacity="0.4" d="M63.9507 35.6357L64.1955 34.1479L65.449 34.8969L65.2042 36.3846L63.9507 35.6357Z" fill="#FCB513"/>
<path d="M63.2018 38.6214L63.4564 37.1302L64.7001 37.8758L64.4553 39.3669L63.2018 38.6214Z" fill="#FCB513"/>
<path opacity="0.4" d="M63.2018 41.6002L63.4547 40.1125L64.7001 40.8614L64.4471 42.3492L63.2018 41.6002Z" fill="#FCB513"/>
<path d="M62.4524 44.5859L62.6972 43.0947L63.9507 43.8403L63.6961 45.3314L62.4524 44.5859Z" fill="#FCB513"/>
<path d="M61.7035 47.5647L61.9483 46.077L63.2018 46.8158L62.957 48.3137L61.7035 47.5647Z" fill="#FCB513"/>
<path d="M61.7035 50.5503L61.9483 49.0592L63.2018 49.8048L62.957 51.2959L61.7035 50.5503Z" fill="#FCB513"/>
<path opacity="0.1" d="M60.9546 53.5326L61.2075 52.0414L62.4529 52.787L62.1999 54.2781L60.9546 53.5326Z" fill="#FCB513"/>
<path d="M62.4524 28.1835L62.6972 26.6924L63.9507 27.4379L63.7059 28.9291L62.4524 28.1835Z" fill="#FCB513"/>
<path d="M61.7035 31.1657L61.9483 29.6746L63.2018 30.4302L62.957 31.9112L61.7035 31.1657Z" fill="#FCB513"/>
<path d="M61.7035 34.1479L61.9581 32.6568L63.2018 33.4024L62.957 34.8935L61.7035 34.1479Z" fill="#FCB513"/>
<path d="M60.9546 37.1302L61.2075 35.6391L62.4529 36.3847L62.1999 37.8758L60.9546 37.1302Z" fill="#FCB513"/>
<path d="M60.2047 40.1125L60.4495 38.6213L61.703 39.3669L61.4484 40.858L60.2047 40.1125Z" fill="#FCB513"/>
<path d="M60.2047 43.0947L60.4495 41.6036L61.703 42.3491L61.4582 43.8403L60.2047 43.0947Z" fill="#FCB513"/>
<path d="M59.4563 46.0769L59.7011 44.5858L60.9546 45.3314L60.7098 46.8225L59.4563 46.0769Z" fill="#FCB513"/>
<path d="M58.707 49.0592L58.9616 47.5681L60.2053 48.3137L59.9605 49.8048L58.707 49.0592Z" fill="#FCB513"/>
<path d="M58.707 52.0314L58.96 50.5504L60.2053 51.2959L59.9524 52.787L58.707 52.0314Z" fill="#FCB513"/>
<path d="M60.2047 26.6924L60.4495 25.2012L61.703 25.9468L61.4582 27.4379L60.2047 26.6924Z" fill="#FCB513"/>
<path d="M59.4563 29.6746L59.7109 28.1835L60.9546 28.929L60.7098 30.4202L59.4563 29.6746Z" fill="#FCB513"/>
<path d="M58.707 32.6568L58.96 31.1657L60.2053 31.9113L59.9524 33.4024L58.707 32.6568Z" fill="#FCB513"/>
<path opacity="0.1" d="M58.707 35.6458L58.9519 34.1479L60.2053 34.8969L59.9507 36.3846L58.707 35.6458Z" fill="#FCB513"/>
<path opacity="0.4" d="M57.9576 38.6214L58.2025 37.1302L59.4559 37.8758L59.2111 39.3669L57.9576 38.6214Z" fill="#FCB513"/>
<path opacity="0.4" d="M57.2092 41.6002L57.454 40.1125L58.7075 40.8614L58.4627 42.3492L57.2092 41.6002Z" fill="#FCB513"/>
<path d="M57.2092 44.5859L57.454 43.0947L58.7075 43.8403L58.4627 45.3314L57.2092 44.5859Z" fill="#FCB513"/>
<path d="M56.4589 47.5647L56.7118 46.077L57.9572 46.8259L57.7042 48.3137L56.4589 47.5647Z" fill="#FCB513"/>
<path d="M55.7095 50.5503L55.9543 49.0592L57.2078 49.8048L56.9629 51.2959L55.7095 50.5503Z" fill="#FCB513"/>
<path opacity="0.4" d="M57.2092 25.1911L57.454 23.7101L58.7075 24.4556L58.4627 25.9468L57.2092 25.1911Z" fill="#FCB513"/>
<path opacity="0.4" d="M57.2092 28.1835L57.4638 26.6924L58.7075 27.438L58.4627 28.9291L57.2092 28.1835Z" fill="#FCB513"/>
<path opacity="0.1" d="M56.4589 31.1624L56.7037 29.6746L57.9572 30.4236L57.7025 31.9113L56.4589 31.1624Z" fill="#FCB513"/>
<path d="M55.7095 34.148L55.9543 32.6569L57.2078 33.4024L56.9629 34.8935L55.7095 34.148Z" fill="#FCB513"/>
<path d="M54.9606 37.1269L55.3278 35.6391L57.208 36.388L56.8408 37.8758L54.9606 37.1269Z" fill="#FCB513"/>
<path d="M54.9606 40.1125L55.2054 38.6213L56.4589 39.3669L56.214 40.858L54.9606 40.1125Z" fill="#FCB513"/>
<path opacity="0.4" d="M54.2122 43.0913L54.4651 41.6036L55.7104 42.3525L55.4575 43.8403L54.2122 43.0913Z" fill="#FCB513"/>
<path d="M53.4628 46.0769L53.8422 44.5858L55.7102 45.3314L55.3308 46.8225L53.4628 46.0769Z" fill="#FCB513"/>
<path d="M53.4628 49.0559L53.7076 47.5681L54.9611 48.317L54.7162 49.8048L53.4628 49.0559Z" fill="#FCB513"/>
<path d="M54.9606 23.7101L55.2152 22.219L56.4589 22.9646L56.214 24.4557L54.9606 23.7101Z" fill="#FCB513"/>
<path d="M54.2122 26.689L54.4651 25.2012L55.7104 25.9502L55.4575 27.4379L54.2122 26.689Z" fill="#FCB513"/>
<path d="M53.4628 29.6746L53.7076 28.1835L54.9611 28.929L54.7064 30.4202L53.4628 29.6746Z" fill="#FCB513"/>
<path d="M53.4628 32.6535L53.7076 31.1657L54.9611 31.9147L54.7162 33.4024L53.4628 32.6535Z" fill="#FCB513"/>
<path d="M52.7134 35.6391L52.9582 34.1479L54.2117 34.8935L53.9669 36.3846L52.7134 35.6391Z" fill="#FCB513"/>
<path d="M51.965 38.6214L52.2179 37.1302L53.4633 37.8859L53.2103 39.3669L51.965 38.6214Z" fill="#FCB513"/>
<path d="M51.965 41.6036L52.2179 40.1125L53.4633 40.858L53.2103 42.3492L51.965 41.6036Z" fill="#FCB513"/>
<path d="M51.2157 44.5825L51.4605 43.0947L52.714 43.8437L52.4692 45.3314L51.2157 44.5825Z" fill="#FCB513"/>
<path d="M50.4658 47.5681L50.7106 46.077L51.9641 46.8225L51.7193 48.3137L50.4658 47.5681Z" fill="#FCB513"/>
<path d="M51.965 22.2156L52.2179 20.7278L53.4633 21.4768L53.2103 22.9645L51.965 22.2156Z" fill="#FCB513"/>
<path d="M51.965 25.2012L52.2098 23.7101L53.4633 24.4557L53.2086 25.9468L51.965 25.2012Z" fill="#FCB513"/>
<path opacity="0.4" d="M51.2157 28.1835L51.4605 26.6924L52.714 27.4379L52.4692 28.9291L51.2157 28.1835Z" fill="#FCB513"/>
<path d="M50.4658 31.1657L50.7106 29.6746L51.9641 30.4202L51.7193 31.9113L50.4658 31.1657Z" fill="#FCB513"/>
<path opacity="0.1" d="M50.4658 34.148L50.7204 32.6569L51.9641 33.4024L51.7193 34.8935L50.4658 34.148Z" fill="#FCB513"/>
<path d="M49.7174 37.1302L49.9704 35.6391L51.2157 36.3847L50.9627 37.8758L49.7174 37.1302Z" fill="#FCB513"/>
<path d="M48.9685 40.1125L49.2133 38.6213L50.4668 39.3669L50.222 40.858L48.9685 40.1125Z" fill="#FCB513"/>
<path d="M48.9685 43.0947L49.2133 41.6036L50.4668 42.3491L50.222 43.8403L48.9685 43.0947Z" fill="#FCB513"/>
<path d="M48.2186 46.0769L48.4634 44.5858L49.7169 45.3314L49.4721 46.8225L48.2186 46.0769Z" fill="#FCB513"/>
<path d="M49.7174 20.7279L49.9622 19.2368L51.2157 19.9823L50.9611 21.4734L49.7174 20.7279Z" fill="#FCB513"/>
<path d="M48.9685 23.7101L49.2133 22.219L50.4668 22.9646L50.222 24.4557L48.9685 23.7101Z" fill="#FCB513"/>
<path opacity="0.4" d="M48.9685 26.6924L49.2133 25.2012L50.4668 25.9468L50.222 27.4379L48.9685 26.6924Z" fill="#FCB513"/>
<path d="M48.2186 29.6746L48.4634 28.1835L49.7169 28.929L49.4721 30.4202L48.2186 29.6746Z" fill="#FCB513"/>
<path d="M47.4697 32.6468L47.7227 31.1657L48.968 31.9113L48.7151 33.4024L47.4697 32.6468Z" fill="#FCB513"/>
<path opacity="0.1" d="M47.4697 35.6391L47.7145 34.1479L48.968 34.8935L48.7232 36.3846L47.4697 35.6391Z" fill="#FCB513"/>
<path opacity="0.4" d="M46.7203 38.6281L46.9652 37.1302L48.2186 37.8792L47.9738 39.3669L46.7203 38.6281Z" fill="#FCB513"/>
<path d="M45.9714 41.6036L46.2163 40.1125L47.4697 40.858L47.2249 42.3492L45.9714 41.6036Z" fill="#FCB513"/>
<path opacity="0.1" d="M45.9714 44.5825L46.2244 43.0947L47.4697 43.8437L47.2168 45.3314L45.9714 44.5825Z" fill="#FCB513"/>
<path d="M47.4697 19.2367L47.7145 17.7456L48.968 18.4912L48.7232 19.9823L47.4697 19.2367Z" fill="#FCB513"/>
<path opacity="0.4" d="M46.7203 22.2156L46.9652 20.7278L48.2186 21.4768L47.9738 22.9645L46.7203 22.2156Z" fill="#FCB513"/>
<path d="M45.9714 25.2012L46.2163 23.7101L47.4697 24.4556L47.2249 25.9468L45.9714 25.2012Z" fill="#FCB513"/>
<path d="M45.9714 28.1801L46.2244 26.6924L47.4697 27.4413L47.2168 28.9291L45.9714 28.1801Z" fill="#FCB513"/>
<path d="M45.2216 31.1657L45.4745 29.6746L46.7198 30.4202L46.4669 31.9113L45.2216 31.1657Z" fill="#FCB513"/>
<path d="M44.4727 34.1446L44.7175 32.6569L45.9709 33.4058L45.7261 34.8935L44.4727 34.1446Z" fill="#FCB513"/>
<path d="M44.4727 37.1302L44.7175 35.6391L45.9709 36.3847L45.7261 37.8758L44.4727 37.1302Z" fill="#FCB513"/>
<path opacity="0.4" d="M43.7239 40.1091L43.9785 38.6213L45.2222 39.3703L44.9773 40.858L43.7239 40.1091Z" fill="#FCB513"/>
<path d="M42.974 43.0947L43.227 41.6036L44.4723 42.3491L44.2193 43.8403L42.974 43.0947Z" fill="#FCB513"/>
<path d="M87.9233 43.0947L88.1763 41.6036L89.4216 42.3491L89.1687 43.8403L87.9233 43.0947Z" fill="#FCB513"/>
<path opacity="0.1" d="M87.1746 46.0736L87.4194 44.5858L88.6729 45.3347L88.4182 46.8225L87.1746 46.0736Z" fill="#FCB513"/>
<path opacity="0.4" d="M87.1746 49.0592L87.4194 47.5681L88.6729 48.3137L88.428 49.8048L87.1746 49.0592Z" fill="#FCB513"/>
<path d="M86.4257 52.0381L86.6705 50.5504L87.924 51.2993L87.6791 52.787L86.4257 52.0381Z" fill="#FCB513"/>
<path opacity="0.4" d="M85.6758 54.5267L85.9304 53.5326L87.1741 54.0296L86.9293 55.0237L85.6758 54.5267Z" fill="#FCB513"/>
<path d="M85.6758 57.2604L85.9287 55.7693L87.1741 56.5249L86.9211 58.006L85.6758 57.2604Z" fill="#FCB513"/>
<path d="M84.9269 60.2426L85.1717 58.7515L86.4252 59.4971L86.1706 60.9882L84.9269 60.2426Z" fill="#FCB513"/>
<path d="M84.1785 63.2215L84.4233 61.7338L85.6768 62.4726L85.4319 63.9705L84.1785 63.2215Z" fill="#FCB513"/>
<path opacity="0.1" d="M84.1785 66.2071L84.4233 64.716L85.6768 65.4616L85.4319 66.9527L84.1785 66.2071Z" fill="#FCB513"/>
<path d="M85.6758 41.6002L85.9287 40.1125L87.1741 40.8614L86.9211 42.3492L85.6758 41.6002Z" fill="#FCB513"/>
<path d="M84.9269 44.5859L85.1717 43.0947L86.4252 43.8403L86.1804 45.3314L84.9269 44.5859Z" fill="#FCB513"/>
<path d="M84.1785 47.5647L84.4233 46.077L85.6768 46.8158L85.4319 48.3137L84.1785 47.5647Z" fill="#FCB513"/>
<path d="M84.1785 50.5503L84.4331 49.0592L85.6768 49.8048L85.4319 51.2959L84.1785 50.5503Z" fill="#FCB513"/>
<path d="M83.4286 53.5326L83.6815 52.0414L84.9269 52.787L84.6739 54.2781L83.4286 53.5326Z" fill="#FCB513"/>
<path d="M82.6797 55.7693L82.9245 54.2781L84.178 55.0237L83.9234 56.5148L82.6797 55.7693Z" fill="#FCB513"/>
<path d="M82.6797 58.7515L82.9245 57.2604L84.178 58.0059L83.9332 59.4971L82.6797 58.7515Z" fill="#FCB513"/>
<path d="M81.9303 61.7338L82.1751 60.2427L83.4286 60.9882L83.1838 62.4794L81.9303 61.7338Z" fill="#FCB513"/>
<path d="M81.1814 64.716L81.4262 63.2249L82.6797 63.9705L82.4349 65.4616L81.1814 64.716Z" fill="#FCB513"/>
<path d="M82.6797 40.1125L82.9245 38.6213L84.178 39.3669L83.9332 40.858L82.6797 40.1125Z" fill="#FCB513"/>
<path d="M81.9303 43.0947L82.1751 41.6036L83.4286 42.3491L83.1838 43.8403L81.9303 43.0947Z" fill="#FCB513"/>
<path d="M81.9303 46.0769L82.1751 44.5858L83.4286 45.3314L83.1838 46.8225L81.9303 46.0769Z" fill="#FCB513"/>
<path opacity="0.1" d="M81.1814 49.0592L81.436 47.5681L82.6797 48.3137L82.4349 49.8048L81.1814 49.0592Z" fill="#FCB513"/>
<path opacity="0.4" d="M80.4321 52.0314L80.6851 50.5504L81.9304 51.2959L81.6775 52.787L80.4321 52.0314Z" fill="#FCB513"/>
<path opacity="0.4" d="M80.4321 54.5267L80.6769 53.5326L81.9304 54.0296L81.6856 55.0237L80.4321 54.5267Z" fill="#FCB513"/>
<path d="M79.6823 57.2672L79.9271 55.7693L81.1805 56.5182L80.9357 58.006L79.6823 57.2672Z" fill="#FCB513"/>
<path d="M78.9338 60.2426L79.1787 58.7515L80.4321 59.4971L80.1873 60.9882L78.9338 60.2426Z" fill="#FCB513"/>
<path d="M78.9338 63.2215L79.1868 61.7338L80.4321 62.4827L80.1792 63.9705L78.9338 63.2215Z" fill="#FCB513"/>
<path opacity="0.4" d="M80.4321 38.6214L80.6769 37.1302L81.9304 37.8758L81.6856 39.3669L80.4321 38.6214Z" fill="#FCB513"/>
<path opacity="0.4" d="M79.6823 41.6002L79.9271 40.1125L81.1805 40.8614L80.9357 42.3492L79.6823 41.6002Z" fill="#FCB513"/>
<path opacity="0.1" d="M78.9338 44.5859L79.1884 43.0947L80.4321 43.8403L80.1873 45.3314L78.9338 44.5859Z" fill="#FCB513"/>
<path d="M78.9338 47.5647L79.1868 46.077L80.4321 46.8259L80.1792 48.3137L78.9338 47.5647Z" fill="#FCB513"/>
<path d="M78.184 50.5503L78.4288 49.0592L79.6823 49.8048L79.4276 51.2959L78.184 50.5503Z" fill="#FCB513"/>
<path d="M77.4346 53.0333L77.6794 52.0414L78.9329 52.5407L78.688 53.5326L77.4346 53.0333Z" fill="#FCB513"/>
<path opacity="0.4" d="M77.4346 55.7693L77.6794 54.2781L78.9329 55.0237L78.688 56.5148L77.4346 55.7693Z" fill="#FCB513"/>
<path d="M76.6866 58.7481L76.9396 57.2604L78.1849 58.0093L77.932 59.4971L76.6866 58.7481Z" fill="#FCB513"/>
<path d="M75.9373 61.7338L76.1902 60.2427L77.4355 60.9882L77.1826 62.4794L75.9373 61.7338Z" fill="#FCB513"/>
<path d="M77.4346 37.1269L77.6794 35.6391L78.9329 36.388L78.688 37.8758L77.4346 37.1269Z" fill="#FCB513"/>
<path d="M77.4346 40.1125L77.6892 38.6213L78.9329 39.3669L78.688 40.858L77.4346 40.1125Z" fill="#FCB513"/>
<path d="M76.6866 43.0913L76.9396 41.6036L78.1849 42.3525L77.932 43.8403L76.6866 43.0913Z" fill="#FCB513"/>
<path d="M75.9373 46.0769L76.1902 44.5858L77.4355 45.3314L77.1826 46.8225L75.9373 46.0769Z" fill="#FCB513"/>
<path d="M75.9373 49.0559L76.1821 47.5681L77.4355 48.317L77.1907 49.8048L75.9373 49.0559Z" fill="#FCB513"/>
<path d="M75.1879 52.0415L75.4327 50.5504L76.6862 51.2959L76.4413 52.787L75.1879 52.0415Z" fill="#FCB513"/>
<path d="M74.4395 54.2748L74.6924 52.787L75.9377 53.5259L75.6848 55.0237L74.4395 54.2748Z" fill="#FCB513"/>
<path d="M74.4395 57.2604L74.6924 55.7693L75.9377 56.5148L75.6848 58.006L74.4395 57.2604Z" fill="#FCB513"/>
<path d="M73.6901 60.2427L73.9349 58.7515L75.1884 59.5072L74.9435 60.9882L73.6901 60.2427Z" fill="#FCB513"/>
<path d="M75.1879 35.6391L75.4425 34.1479L76.6862 34.8935L76.4413 36.3846L75.1879 35.6391Z" fill="#FCB513"/>
<path d="M74.4395 38.6214L74.6924 37.1302L75.9377 37.8859L75.6848 39.3669L74.4395 38.6214Z" fill="#FCB513"/>
<path opacity="0.4" d="M74.4395 41.6036L74.6843 40.1125L75.9377 40.858L75.6831 42.3492L74.4395 41.6036Z" fill="#FCB513"/>
<path d="M73.6901 44.5825L73.9349 43.0947L75.1884 43.8437L74.9435 45.3314L73.6901 44.5825Z" fill="#FCB513"/>
<path opacity="0.1" d="M72.9407 47.5681L73.1855 46.077L74.439 46.8225L74.1941 48.3137L72.9407 47.5681Z" fill="#FCB513"/>
<path d="M72.9407 50.5503L73.1855 49.0592L74.439 49.8048L74.1941 51.2959L72.9407 50.5503Z" fill="#FCB513"/>
<path d="M72.1909 53.0355L72.4439 52.0414L73.6892 52.5385L73.4363 53.5326L72.1909 53.0355Z" fill="#FCB513"/>
<path d="M71.4425 55.7693L71.6873 54.2781L72.9408 55.0237L72.6862 56.5148L71.4425 55.7693Z" fill="#FCB513"/>
<path d="M71.4425 58.7515L71.6873 57.2604L72.9408 58.0059L72.696 59.4971L71.4425 58.7515Z" fill="#FCB513"/>
<path d="M72.9407 34.148L73.1953 32.6569L74.439 33.4024L74.1941 34.8935L72.9407 34.148Z" fill="#FCB513"/>
<path d="M72.1909 37.1302L72.4439 35.6391L73.6892 36.3847L73.4362 37.8758L72.1909 37.1302Z" fill="#FCB513"/>
<path opacity="0.4" d="M71.4425 40.1125L71.6873 38.6213L72.9408 39.3669L72.696 40.858L71.4425 40.1125Z" fill="#FCB513"/>
<path d="M71.4425 43.0947L71.6873 41.6036L72.9408 42.3491L72.696 43.8403L71.4425 43.0947Z" fill="#FCB513"/>
<path d="M70.6936 46.0769L70.9384 44.5858L72.1919 45.3314L71.9471 46.8225L70.6936 46.0769Z" fill="#FCB513"/>
<path opacity="0.1" d="M69.9437 49.0559L70.1967 47.5681L71.442 48.317L71.1891 49.8048L69.9437 49.0559Z" fill="#FCB513"/>
<path opacity="0.4" d="M69.1948 51.5444L69.5743 50.5504L71.4423 51.0474L71.0628 52.0415L69.1948 51.5444Z" fill="#FCB513"/>
<path d="M69.1948 54.2681L69.4396 52.787L70.6931 53.5326L70.4483 55.0237L69.1948 54.2681Z" fill="#FCB513"/>
<path opacity="0.1" d="M68.4449 57.2604L68.6898 55.7693L69.9432 56.5149L69.6984 58.006L68.4449 57.2604Z" fill="#FCB513"/>
<path d="M69.9437 32.6468L70.1967 31.1657L71.442 31.9113L71.1891 33.4024L69.9437 32.6468Z" fill="#FCB513"/>
<path opacity="0.4" d="M69.1948 35.6391L69.4396 34.1479L70.6931 34.8935L70.4385 36.3846L69.1948 35.6391Z" fill="#FCB513"/>
<path d="M69.1948 38.6281L69.4396 37.1302L70.6931 37.8792L70.4483 39.3669L69.1948 38.6281Z" fill="#FCB513"/>
<path d="M68.4449 41.6036L68.6898 40.1125L69.9432 40.858L69.6984 42.3492L68.4449 41.6036Z" fill="#FCB513"/>
<path d="M67.696 44.5825L67.949 43.0947L69.1943 43.8437L68.9414 45.3314L67.696 44.5825Z" fill="#FCB513"/>
<path d="M67.696 47.5681L67.949 46.077L69.1943 46.8225L68.9414 48.3137L67.696 47.5681Z" fill="#FCB513"/>
<path d="M66.9471 50.547L67.192 49.0592L68.4454 49.8081L68.2006 51.2959L66.9471 50.547Z" fill="#FCB513"/>
<path opacity="0.4" d="M66.1978 52.787L66.4426 51.2959L67.696 52.0415L67.4512 53.5326L66.1978 52.787Z" fill="#FCB513"/>
<path d="M66.1978 55.7659L66.4426 54.2781L67.696 55.0271L67.4512 56.5148L66.1978 55.7659Z" fill="#FCB513"/>
<path d="M67.696 31.1657L67.949 29.6746L69.1943 30.4202L68.9414 31.9113L67.696 31.1657Z" fill="#FCB513"/>
<path opacity="0.1" d="M66.9471 34.1446L67.192 32.6569L68.4454 33.4058L68.2006 34.8935L66.9471 34.1446Z" fill="#FCB513"/>
<path d="M66.1978 37.1302L66.4426 35.6391L67.696 36.3847L67.4512 37.8758L66.1978 37.1302Z" fill="#FCB513"/>
<path d="M66.1978 40.1091L66.4507 38.6213L67.696 39.3703L67.4431 40.858L66.1978 40.1091Z" fill="#FCB513"/>
<path d="M65.4495 43.0947L65.7024 41.6036L66.9478 42.3491L66.6948 43.8403L65.4495 43.0947Z" fill="#FCB513"/>
<path d="M64.7006 46.0736L64.9454 44.5858L66.1989 45.3347L65.954 46.8225L64.7006 46.0736Z" fill="#FCB513"/>
<path opacity="0.4" d="M64.7006 49.0592L64.9454 47.5681L66.1989 48.3137L65.954 49.8048L64.7006 49.0592Z" fill="#FCB513"/>
<path d="M63.9507 51.5422L64.1955 50.5504L65.449 51.0496L65.2042 52.0415L63.9507 51.5422Z" fill="#FCB513"/>
<path d="M63.2018 54.2782L63.4564 52.787L64.7001 53.5326L64.4553 55.0237L63.2018 54.2782Z" fill="#FCB513"/>
<path opacity="0.5" d="M66.4035 121.576C67.4336 121.576 68.4458 121.307 69.3383 120.794L103.263 101.29C103.519 101.141 103.731 100.929 103.879 100.674C104.026 100.418 104.104 100.129 104.104 99.8341C104.104 99.5395 104.026 99.25 103.879 98.9946C103.731 98.7392 103.519 98.5267 103.263 98.3785L41.723 63L41.2753 63.2553L4.86307 84.1928C4.60639 84.3403 4.39324 84.5524 4.24503 84.8079C4.09682 85.0634 4.0188 85.3533 4.0188 85.6484C4.0188 85.9434 4.09682 86.2333 4.24503 86.4888C4.39324 86.7443 4.60639 86.9565 4.86307 87.1039L63.4456 120.794C64.3452 121.31 65.3656 121.579 66.4035 121.576ZM41.723 63.7278L102.946 98.9234C103.104 99.0144 103.235 99.1452 103.326 99.3027C103.418 99.4602 103.466 99.6389 103.466 99.8207C103.466 100.003 103.418 100.181 103.326 100.339C103.235 100.496 103.104 100.627 102.946 100.718L69.0246 120.219C68.2262 120.667 67.3254 120.902 66.4092 120.902C65.493 120.902 64.5922 120.667 63.7938 120.219L5.19215 86.5285C5.035 86.4368 4.90467 86.3057 4.81412 86.1483C4.72356 85.9909 4.67591 85.8126 4.67591 85.6312C4.67591 85.4498 4.72356 85.2716 4.81412 85.1141C4.90467 84.9567 5.035 84.8257 5.19215 84.7339L41.723 63.7278Z" fill="#69BCA8"/>
<path d="M41.2097 49.1623L49.3868 0.927839L48.7286 0.653498L49.7159 0.0895711C49.8346 0.0232841 49.97 -0.00731445 50.1059 0.00147673C50.2417 0.0102679 50.372 0.0580738 50.4811 0.139107L115.722 37.6628C115.998 37.8381 116.222 38.0833 116.371 38.3732C116.52 38.6631 116.589 38.9874 116.571 39.3127L108.341 87.9282C108.331 88.0335 108.295 88.1346 108.235 88.2215C108.174 88.3084 108.092 88.378 107.996 88.4235L107.024 88.9684L106.86 88.0692L106.913 88.0882L42.0592 50.8007C41.7846 50.627 41.5612 50.3838 41.4119 50.0959C41.2627 49.808 41.1929 49.4858 41.2097 49.1623Z" fill="url(#paint0_linear_41_959)"/>
<path d="M115.359 38.9813L116.434 38.5088C116.555 38.7585 116.603 39.0372 116.572 39.3128L108.341 87.9282C108.332 88.0335 108.295 88.1347 108.235 88.2216C108.175 88.3085 108.092 88.3781 107.997 88.4236L107.025 88.9685L106.86 88.0692L106.914 88.0883L103.634 86.1831L115.359 38.9813Z" fill="url(#paint1_linear_41_959)"/>
<path d="M41.3332 51.3865L106.581 88.8988C107.087 89.1883 107.515 89.0207 107.607 88.4987L115.834 39.8832C115.853 39.5581 115.785 39.2338 115.636 38.9438C115.487 38.6537 115.264 38.4085 114.988 38.2333L49.7399 0.721037C49.2348 0.431455 48.8024 0.599108 48.7144 1.10207L40.4838 49.7176C40.4634 50.0458 40.5314 50.3736 40.6807 50.667C40.83 50.9604 41.0553 51.2087 41.3332 51.3865Z" fill="#24126A"/>
<g opacity="0.51">
<path d="M50.3025 3.83521L113.201 39.9949L105.399 85.7831L42.5464 49.6463L50.3025 3.83521Z" fill="#453C9E"/>
</g>
<path d="M0.0305023 74.4131L3.58908 76.2649L39.2973 55.7389C39.6661 55.5722 40.0691 55.4941 40.4738 55.5106C40.8785 55.5271 41.2737 55.6379 41.6276 55.8341L103.199 91.2546C103.788 90.9269 106.474 89.639 106.474 89.639L105.169 93.0226C105.096 93.1989 104.96 93.3416 104.787 93.4226L67.1804 115.042C66.8118 115.21 66.4087 115.288 66.0039 115.272C65.599 115.255 65.2037 115.144 64.8501 114.947L1.83274 78.7187C1.59566 78.599 1.40769 78.401 1.30088 78.1586L0.0305023 74.4131Z" fill="#4150B3"/>
<path d="M59.8237 25.4083C59.2266 25.0168 58.7299 24.4897 58.3737 23.8697C58.0175 23.2498 57.8119 22.5543 57.7734 21.8397V10.0428C57.7734 9.11383 58.4274 8.73043 59.2431 9.2023L117.773 43.1184V59L59.8237 25.4083Z" fill="#69BCA8"/>
<path d="M0.581673 74.996L65.1641 112.127C65.5269 112.33 65.9324 112.444 66.3479 112.461C66.7634 112.478 67.1771 112.398 67.5556 112.226L106.095 90.0695C106.708 89.719 106.631 89.1017 105.923 88.6978L41.3369 51.5666C40.9748 51.3642 40.5698 51.2498 40.155 51.2326C39.7401 51.2154 39.327 51.2959 38.9492 51.4675L0.409477 73.6243C-0.202751 73.9749 -0.114738 74.5921 0.581673 74.996Z" fill="#C9D7F6"/>
<path d="M0.581863 74.6266L65.1642 111.758C65.5279 111.958 65.9332 112.071 66.3483 112.088C66.7633 112.105 67.1767 112.026 67.5558 111.857L106.096 89.7001C106.268 89.6103 106.403 89.4634 106.478 89.2847C106.524 89.4395 106.51 89.6058 106.439 89.751C106.369 89.8962 106.246 90.0098 106.096 90.0697L67.5558 112.211C67.1773 112.383 66.7636 112.463 66.3481 112.446C65.9326 112.429 65.5271 112.315 65.1642 112.112L0.581863 74.9809C0.103561 74.7104 -0.0762863 74.3408 0.0346832 74.0245C0.13694 74.2851 0.331627 74.4993 0.581863 74.6266Z" fill="#F7F7F7"/>
<path d="M84.6479 104.095V103.39C84.6479 103.326 84.6059 103.295 84.5561 103.322L82.0575 104.758C82.0297 104.779 82.0071 104.805 81.9912 104.835C81.9752 104.866 81.9665 104.899 81.9656 104.934V105.638C81.9656 105.703 82.0077 105.734 82.0575 105.707L84.5561 104.271C84.5838 104.25 84.6065 104.224 84.6224 104.194C84.6383 104.163 84.6471 104.13 84.6479 104.095Z" fill="white"/>
<path d="M96.0467 87.9929L42.3773 57.1296C42.2028 57.0293 42.0048 56.9764 41.8033 56.9764C41.6018 56.9764 41.4039 57.0293 41.2293 57.1296L22.1164 68.1413C22.0536 68.1774 22.0015 68.2294 21.9652 68.2919C21.929 68.3545 21.9099 68.4254 21.9099 68.4976C21.9099 68.5698 21.929 68.6407 21.9652 68.7032C22.0015 68.7658 22.0536 68.8177 22.1164 68.8538L75.7628 99.6943C75.9373 99.7947 76.1353 99.8475 76.3368 99.8475C76.5383 99.8475 76.7363 99.7947 76.9108 99.6943L96.0429 88.6978C96.1041 88.6616 96.1548 88.6101 96.1902 88.5486C96.2256 88.487 96.2444 88.4174 96.2447 88.3465C96.2451 88.2755 96.2271 88.2057 96.1924 88.1438C96.1577 88.0818 96.1075 88.0299 96.0467 87.9929Z" fill="#A1B7EF"/>
<path d="M96.0468 88.7055L95.8554 88.816L42.3582 58.0708C42.1837 57.9705 41.9857 57.9177 41.7842 57.9177C41.5827 57.9177 41.3848 57.9705 41.2103 58.0708L22.2886 68.972L22.0973 68.8615C22.0345 68.8254 21.9824 68.7735 21.9462 68.7109C21.9099 68.6484 21.8908 68.5775 21.8908 68.5053C21.8908 68.4331 21.9099 68.3622 21.9462 68.2996C21.9824 68.2371 22.0345 68.1851 22.0973 68.149L41.2103 57.1373C41.3848 57.0369 41.5827 56.9841 41.7842 56.9841C41.9857 56.9841 42.1837 57.0369 42.3582 57.1373L96.0276 88.0006C96.0897 88.0356 96.1416 88.0859 96.1783 88.1467C96.215 88.2075 96.2354 88.2767 96.2373 88.3477C96.2392 88.4186 96.2227 88.4889 96.1893 88.5516C96.1559 88.6143 96.1068 88.6673 96.0468 88.7055Z" fill="#9198DB"/>
<path d="M39.7792 59.9264L86.3965 86.7318L88.4705 85.5392L41.8493 58.7338L39.7792 59.9264Z" fill="#24126A"/>
<path d="M34.6943 62.8489L78.4227 87.9892L80.4966 86.7965L36.7682 61.6562L34.6943 62.8489Z" fill="#24126A"/>
<path d="M31.3844 64.7502L82.8728 94.3523L84.9429 93.1597L33.4583 63.5614L31.3844 64.7502Z" fill="#24126A"/>
<path d="M28.075 66.6554L79.5633 96.2537L81.6334 95.0649L30.1489 65.4628L28.075 66.6554Z" fill="#24126A"/>
<path d="M24.7647 68.5567L76.2492 98.1589L78.3231 96.9662L26.8386 67.3679L24.7647 68.5567Z" fill="#24126A"/>
<path d="M89.2165 88.3511L91.2866 89.5399L93.3605 88.3511L91.2866 87.1584L89.2165 88.3511Z" fill="#6E44C6"/>
<path d="M81.9048 89.9895L86.2057 92.4624L88.2797 91.2698L83.9749 88.7969L81.9048 89.9895Z" fill="#24126A"/>
<path d="M40.311 95.4459L25.8394 87.1242C25.2731 86.8004 25.2731 86.2745 25.8394 85.9469L35.7346 80.2581C36.0519 80.0984 36.4025 80.0151 36.7581 80.0151C37.1137 80.0151 37.4644 80.0984 37.7817 80.2581L52.2532 88.5874C52.8196 88.9113 52.8196 89.4409 52.2532 89.7648L42.3581 95.4459C42.0408 95.6056 41.6901 95.6889 41.3345 95.6889C40.979 95.6889 40.6283 95.6056 40.311 95.4459Z" fill="#A1B7EF"/>
<path d="M52.2536 89.0751L37.7667 80.7573C37.4499 80.5957 37.0991 80.5115 36.7432 80.5115C36.3872 80.5115 36.0364 80.5957 35.7196 80.7573L25.8245 86.446C25.6743 86.5244 25.5505 86.6449 25.4686 86.7928C25.3194 86.5108 25.4303 86.1869 25.8245 85.9621L35.7196 80.2733C36.0369 80.1136 36.3876 80.0304 36.7432 80.0304C37.0988 80.0304 37.4494 80.1136 37.7667 80.2733L52.2536 88.5874C52.6362 88.8122 52.7587 89.1323 52.6094 89.418C52.5266 89.2719 52.403 89.1528 52.2536 89.0751Z" fill="#9198DB"/>
<g opacity="0.11">
<mask id="mask0_41_959" style="mask-type:luminance" maskUnits="userSpaceOnUse" x="42" y="3" width="72" height="83">
<path d="M50.3025 3.83521L113.201 39.9949L105.399 85.7831L42.5464 49.6463L50.3025 3.83521Z" fill="white"/>
</mask>
<g mask="url(#mask0_41_959)">
<path d="M41.2758 51.4867L105.877 88.618C106.239 88.8203 106.644 88.9347 107.059 88.9519C107.474 88.9691 107.887 88.8887 108.265 88.717L146.789 66.5602C147.402 66.2097 147.325 65.5924 146.617 65.1885L82.031 28.0572C81.6689 27.8549 81.2639 27.7405 80.8491 27.7233C80.4342 27.7061 80.0211 27.7865 79.6433 27.9582L41.1036 50.1036C40.4913 50.4846 40.5679 51.0828 41.2758 51.4867Z" fill="url(#paint2_linear_41_959)"/>
<path d="M106.053 58.1471L91.581 49.8254C91.0147 49.5015 91.0147 48.9719 91.581 48.648L101.476 42.9593C101.794 42.7995 102.144 42.7163 102.5 42.7163C102.855 42.7163 103.206 42.7995 103.523 42.9593L117.995 51.2771C118.561 51.6048 118.561 52.1306 117.995 52.4545L108.1 58.1471C107.782 58.3068 107.432 58.39 107.076 58.39C106.721 58.39 106.37 58.3068 106.053 58.1471Z" fill="url(#paint3_linear_41_959)"/>
<path d="M117.995 51.761L103.524 43.4394C103.206 43.2796 102.856 43.1964 102.5 43.1964C102.144 43.1964 101.794 43.2796 101.476 43.4394L91.5813 49.1281C91.4309 49.2079 91.3072 49.3297 91.2255 49.4787C91.0762 49.1929 91.191 48.8728 91.5813 48.648L101.476 42.9593C101.794 42.7995 102.144 42.7163 102.5 42.7163C102.856 42.7163 103.206 42.7995 103.524 42.9593L117.995 51.2771C118.378 51.5019 118.5 51.822 118.351 52.1078C118.269 51.96 118.145 51.8394 117.995 51.761Z" fill="#9198DB"/>
<path d="M124.359 71.1478L70.6894 40.2844C70.5149 40.1841 70.3169 40.1313 70.1154 40.1313C69.9139 40.1313 69.716 40.1841 69.5415 40.2844L50.4323 51.2962C50.3695 51.3318 50.3172 51.3833 50.2809 51.4456C50.2445 51.5078 50.2254 51.5785 50.2254 51.6505C50.2254 51.7225 50.2445 51.7933 50.2809 51.8555C50.3172 51.9177 50.3695 51.9693 50.4323 52.0049L104.063 82.872C104.238 82.9724 104.436 83.0252 104.637 83.0252C104.839 83.0252 105.037 82.9724 105.211 82.872L124.344 71.8756C124.411 71.842 124.468 71.7908 124.508 71.7275C124.548 71.6642 124.57 71.5911 124.572 71.5163C124.573 71.4414 124.554 71.3675 124.517 71.3026C124.479 71.2376 124.425 71.1841 124.359 71.1478Z" fill="#ADB1F2"/>
<path d="M124.358 71.8603L124.167 71.9708L70.6734 41.2218C70.4989 41.1214 70.301 41.0686 70.0995 41.0686C69.898 41.0686 69.7 41.1214 69.5255 41.2218L50.6077 52.1192L50.4163 52.0087C50.3535 51.9731 50.3012 51.9215 50.2649 51.8593C50.2285 51.7971 50.2094 51.7263 50.2094 51.6543C50.2094 51.5823 50.2285 51.5116 50.2649 51.4494C50.3012 51.3871 50.3535 51.3356 50.4163 51.3L69.5255 40.2921C69.7 40.1917 69.898 40.1389 70.0995 40.1389C70.301 40.1389 70.4989 40.1917 70.6734 40.2921L124.343 71.1554C124.405 71.1907 124.456 71.2413 124.493 71.3023C124.529 71.3633 124.549 71.4326 124.551 71.5035C124.552 71.5745 124.535 71.6446 124.501 71.7071C124.468 71.7696 124.418 71.8224 124.358 71.8603Z" fill="#9198DB"/>
<path d="M55.4216 50.5532L102.177 77.4348L100.325 78.4978L53.5696 51.6162L55.4216 50.5532Z" fill="#24126A"/>
<path d="M60.3468 47.7183L104.791 73.2701L102.935 74.3332L58.4949 48.7852L60.3468 47.7183Z" fill="#24126A"/>
<path d="M108.108 75.1791L112.256 77.5643L110.404 78.6274L106.256 76.2422L108.108 75.1791Z" fill="#24126A"/>
<path d="M104.443 78.7341L107.332 80.3954L105.48 81.4622L102.591 79.8009L104.443 78.7341Z" fill="#24126A"/>
<path d="M63.4347 45.9465L115.344 75.7887L113.492 76.8556L61.5827 47.0096L63.4347 45.9465Z" fill="#24126A"/>
<path d="M66.522 44.171L118.431 74.0131L116.579 75.08L64.67 45.234L66.522 44.171Z" fill="#24126A"/>
<path d="M69.606 42.3954L121.519 72.2414L119.667 73.3045L67.754 43.4623L69.606 42.3954Z" fill="#24126A"/>
</g>
</g>
<path d="M89.5155 68.3242L84.4264 65.3979L84.2771 66.2781L89.3663 69.2044L89.5155 68.3242Z" fill="#B2EDD5"/>
<path d="M83.6112 64.9293L80.837 63.3328L80.6878 64.2129L83.4582 65.8095L83.6112 64.9293Z" fill="white"/>
<path d="M76.5204 60.8524L74.5153 59.7017L74.3661 60.578L76.375 61.7325L76.5204 60.8524Z" fill="white"/>
<path d="M77.9865 61.6943L77.3021 61.3019L77.153 62.1821L77.8373 62.5745L77.9865 61.6943Z" fill="white"/>
<path d="M80.0068 62.8603L78.7632 62.1439L78.614 63.0241L79.8576 63.7404L80.0068 62.8603Z" fill="white"/>
<path d="M85.49 61.5953L83.4849 60.4408L83.3357 61.321L85.3408 62.4755L85.49 61.5953Z" fill="white"/>
<path d="M90.1965 64.3045L86.2668 62.0411L86.1176 62.9213L90.0473 65.1846L90.1965 64.3045Z" fill="white"/>
<path d="M84.5646 50.0463L80.6348 47.783L80.4818 48.6631L84.4153 50.9264L84.5646 50.0463Z" fill="#B2EDD5"/>
<path d="M86.5844 51.2084L85.3408 50.4921L85.1915 51.3722L86.4351 52.0886L86.5844 51.2084Z" fill="white"/>
<path d="M83.9059 54.0699L79.9761 51.8104L79.8269 52.6868L83.7567 54.9501L83.9059 54.0699Z" fill="white"/>
<path d="M85.9301 55.2359L84.6826 54.5195L84.5334 55.3959L85.7808 56.1122L85.9301 55.2359Z" fill="white"/>
<path d="M87.4643 32.6752L94.8685 36.9351L95.0177 36.0549L87.6136 31.795L87.4643 32.6752Z" fill="#B2EDD5"/>
<path d="M84.8545 31.174L86.6873 32.2256L86.8365 31.3455L85.0037 30.2938L84.8545 31.174Z" fill="white"/>
<path d="M71.8446 30.3166L79.2487 34.5803L79.3979 33.7001L71.99 29.4364L71.8446 30.3166Z" fill="#B2EDD5"/>
<path d="M69.2346 28.8154L71.0637 29.8708L71.2129 28.9906L69.38 27.9352L69.2346 28.8154Z" fill="white"/>
<path d="M92.523 37.7924L94.528 38.9469L94.6772 38.0667L92.6722 36.9122L92.523 37.7924Z" fill="white"/>
<path d="M80.3163 35.1824L82.3214 36.3369L82.4706 35.4567L80.4655 34.306L80.3163 35.1824Z" fill="white"/>
<path d="M87.812 35.0795L91.7418 37.3428L91.891 36.4626L87.9613 34.2031L87.812 35.0795Z" fill="white"/>
<path d="M85.7921 33.9173L87.0357 34.6336L87.1849 33.7534L85.9413 33.0371L85.7921 33.9173Z" fill="white"/>
<path d="M81.0476 31.193L84.9774 33.4525L85.1266 32.5762L81.1968 30.3129L81.0476 31.193Z" fill="white"/>
<path d="M79.0234 30.027L80.2708 30.7434L80.42 29.8632L79.1726 29.1469L79.0234 30.027Z" fill="white"/>
<path d="M80.6572 33.1744L82.6623 34.3289L82.8115 33.4487L80.8065 32.2942L80.6572 33.1744Z" fill="white"/>
<path d="M75.9498 30.4653L79.8796 32.7248L80.0288 31.8446L76.0991 29.5851L75.9498 30.4653Z" fill="white"/>
<path d="M73.9261 29.2992L75.1697 30.0156L75.3228 29.1354L74.0753 28.4191L73.9261 29.2992Z" fill="white"/>
<path d="M90.0814 38.5926L94.1872 40.955L94.3364 40.0748L90.2307 37.7124L90.0814 38.5926Z" fill="white"/>
<path d="M86.3354 36.436L89.3047 38.1468L89.454 37.2666L86.4847 35.5558L86.3354 36.436Z" fill="white"/>
<path d="M83.5539 34.8356L85.5589 35.9901L85.7081 35.11L83.7031 33.9554L83.5539 34.8356Z" fill="white"/>
<path d="M64.0965 25.8699L68.2022 28.2323L68.3514 27.3521L64.2457 24.9897L64.0965 25.8699Z" fill="#B2EDD5"/>
<path d="M60.3502 23.7133L63.3195 25.4203L63.4688 24.5401L60.4994 22.8331L60.3502 23.7133Z" fill="white"/>
<path d="M57.5681 22.1093L59.5732 23.2638L59.7224 22.3836L57.7174 21.2329L57.5681 22.1093Z" fill="white"/>
<path d="M65.6993 52.4277L61.5974 50.0653L61.4444 50.9417L65.5501 53.3041L65.6993 52.4277Z" fill="#B2EDD5"/>
<path d="M69.4458 54.5805L66.4765 52.8735L66.3273 53.7537L69.2966 55.4607L69.4458 54.5805Z" fill="white"/>
<path d="M72.2316 56.1847L70.2227 55.0302L70.0735 55.9103L72.0823 57.0648L72.2316 56.1847Z" fill="white"/>
<path d="M67.062 55.4226L62.9601 53.0602L62.8109 53.9404L66.9128 56.3027L67.062 55.4226Z" fill="white"/>
<path d="M70.8074 57.5792L67.8381 55.8722L67.6927 56.7524L70.6581 58.4594L70.8074 57.5792Z" fill="white"/>
<path d="M73.5936 59.1834L71.5848 58.0289L71.4355 58.9091L73.4444 60.0636L73.5936 59.1834Z" fill="white"/>
<path d="M83.6376 51.7076L82.2486 50.9113L82.0993 51.7876L83.4883 52.5878L83.6376 51.7076Z" fill="white"/>
<path d="M86.2438 53.2089L84.4147 52.1534L84.2655 53.0336L86.0984 54.0891L86.2438 53.2089Z" fill="white"/>
<path d="M89.7143 40.5929L93.82 42.9515L93.9692 42.0751L89.8635 39.7128L89.7143 40.5929Z" fill="white"/>
<path d="M85.9676 38.4363L88.937 40.1433L89.0862 39.2632L86.1169 37.5562L85.9676 38.4363Z" fill="white"/>
<path d="M83.1864 36.8322L85.1915 37.9867L85.3407 37.1066L83.3356 35.952L83.1864 36.8322Z" fill="white"/>
<path d="M92.0906 44.1671L93.4796 44.9634L93.6288 44.0832L92.2398 43.2869L92.0906 44.1671Z" fill="white"/>
<path d="M89.4815 42.6619L91.3144 43.7173L91.4636 42.8372L89.6308 41.7855L89.4815 42.6619Z" fill="#B2EDD5"/>
<path d="M85.7535 40.5168L88.7037 42.2162L88.8529 41.336L85.9027 39.6366L85.7535 40.5168Z" fill="white"/>
<path d="M81.7515 57.2478L80.3625 56.4514L80.2132 57.3316L81.6022 58.1279L81.7515 57.2478Z" fill="white"/>
<path d="M84.3611 58.7528L82.5282 57.6974L82.379 58.5776L84.2119 59.6292L84.3611 58.7528Z" fill="white"/>
<path d="M88.0885 60.898L85.1383 59.1986L84.9891 60.0788L87.9393 61.7782L88.0885 60.898Z" fill="#B2EDD5"/>
<path d="M79.6394 53.9861L76.6854 52.2867L76.5362 53.1669L79.4902 54.8663L79.6394 53.9861Z" fill="white"/>
<path d="M84.4679 56.6076L80.4884 54.3176L80.3392 55.1978L84.3187 57.4878L84.4679 56.6076Z" fill="#B2EDD5"/>
<path d="M86.4882 57.7698L85.2446 57.0535L85.0953 57.9336L86.3389 58.65L86.4882 57.7698Z" fill="white"/>
<path d="M88.4285 58.8899L87.1849 58.1698L87.0356 59.05L88.2792 59.7663L88.4285 58.8899Z" fill="white"/>
<path d="M88.1646 47.5315L84.231 45.2682L84.0818 46.1484L88.0153 48.4117L88.1646 47.5315Z" fill="#B2EDD5"/>
<path d="M90.1848 48.6936L88.9412 47.9773L88.792 48.8575L90.0356 49.5738L90.1848 48.6936Z" fill="white"/>
<path d="M87.8928 45.169L86.5077 44.3689L86.3584 45.2491L87.7436 46.0492L87.8928 45.169Z" fill="white"/>
<path d="M82.9994 46.7771L81.6142 45.9807L81.465 46.8609L82.8502 47.6572L82.9994 46.7771Z" fill="white"/>
<path d="M81.0211 45.6415L77.696 43.7288L77.5467 44.6089L80.8719 46.5217L81.0211 45.6415Z" fill="white"/>
<path d="M77.1058 43.3898L75.1276 42.2505L74.9783 43.1307L76.9566 44.2699L77.1058 43.3898Z" fill="white"/>
<path d="M90.502 46.6703L88.6691 45.6149L88.5199 46.495L90.3527 47.5505L90.502 46.6703Z" fill="#B2EDD5"/>
<path d="M90.6742 44.6052L89.289 43.8051L89.1398 44.6852L90.525 45.4854L90.6742 44.6052Z" fill="white"/>
<path d="M93.2843 46.1065L91.4514 45.051L91.3022 45.9312L93.1351 46.9867L93.2843 46.1065Z" fill="white"/>
<path d="M85.012 47.9355L83.7646 47.2191L83.6153 48.0993L84.8627 48.8156L85.012 47.9355Z" fill="white"/>
<path d="M86.9517 49.0518L85.7042 48.3354L85.555 49.2156L86.8024 49.932L86.9517 49.0518Z" fill="white"/>
<path d="M77.3898 59.1529L73.1424 56.7067L72.9932 57.5869L77.2405 60.0331L77.3898 59.1529Z" fill="white"/>
<path d="M82.1456 61.8887L78.1662 59.5988L78.0169 60.4789L81.9964 62.7689L82.1456 61.8887Z" fill="#B2EDD5"/>
<path d="M84.1659 63.0546L82.9223 62.3383L82.7731 63.2184L84.0167 63.9348L84.1659 63.0546Z" fill="white"/>
<path d="M86.1096 64.171L84.8622 63.4547L84.713 64.3349L85.9566 65.0512L86.1096 64.171Z" fill="white"/>
<path d="M87.1698 64.7806L89.856 66.3276L89.7067 67.2078L87.0206 65.6608L87.1698 64.7806Z" fill="white"/>
<path d="M58.8237 26.4083C58.2266 26.0168 57.7299 25.4897 57.3737 24.8697C57.0175 24.2498 56.8119 23.5543 56.7734 22.8397V11.0428C56.7734 10.1138 57.4274 9.73043 58.2431 10.2023L116.773 44.1184V60L58.8237 26.4083Z" fill="#83D4B9"/>
<path d="M111.817 71.0869C102.964 65.3213 96.2729 51.3262 96.8026 39.837C97.3324 28.3478 104.909 23.713 113.734 29.4786C122.558 35.2441 129.277 49.2392 128.755 60.7284C128.232 72.2176 120.634 76.8524 111.817 71.0869Z" fill="#69BCA8"/>
<path d="M117.793 65.932C118.946 65.9403 120.081 65.6378 121.083 65.0551C123.871 63.4223 125.454 59.6719 125.454 54.7736C125.454 45.7542 120.094 35.2304 113.507 31.3089C110.509 29.5264 107.589 29.2982 105.268 30.66C102.48 32.2999 100.897 36.0432 100.897 40.9486C100.897 49.9609 106.251 60.4919 112.837 64.4062C114.328 65.3545 116.039 65.881 117.793 65.932ZM108.558 31.1449C110.075 31.1975 111.552 31.66 112.837 32.4853C119.062 36.1858 124.122 46.182 124.122 54.7736C124.122 59.1728 122.777 62.4954 120.421 63.8786C118.525 64.9909 116.072 64.7627 113.507 63.2369C107.282 59.5293 102.222 49.5331 102.222 40.9486C102.222 36.5423 103.574 33.2268 105.93 31.8436C106.729 31.3735 107.636 31.1322 108.558 31.1449Z" fill="#69BCA8"/>
<path d="M117.794 43.3871C119.237 43.3925 120.637 42.8889 121.76 41.9611L121.146 41.1626C119.118 42.7882 116.372 42.7169 113.423 40.9629C110.37 39.1448 107.498 35.7723 105.338 31.48L104.452 31.9435C106.697 36.414 109.708 39.9291 112.921 41.847C114.385 42.7887 116.065 43.3199 117.794 43.3871Z" fill="#69BCA8"/>
<path d="M121.007 64.2138L121.899 63.7432C119.655 59.2798 116.643 55.7648 113.423 53.8468C110.098 51.8647 106.962 51.8219 104.585 53.7184L105.205 54.517C107.234 52.8914 109.973 52.9627 112.921 54.7166C115.981 56.5704 118.853 59.9144 121.007 64.2138Z" fill="#69BCA8"/>
<path d="M114.462 64.72C114.937 64.7171 115.403 64.5868 115.814 64.3421C118.149 62.9874 119.599 57.9964 119.599 51.3869C119.599 42.2748 116.887 33.5192 113.423 31.4586C112.998 31.1727 112.503 31.0138 111.995 31C111.486 30.9861 110.984 31.1178 110.544 31.3802C108.202 32.7562 106.752 37.7187 106.752 44.3282C106.752 53.4475 109.464 62.2031 112.928 64.2922C113.395 64.568 113.923 64.7154 114.462 64.72ZM111.89 32.0147C112.255 32.0245 112.612 32.1354 112.921 32.3356C116.002 34.168 118.602 42.8951 118.602 51.3869C118.602 58.3814 116.95 62.4883 115.305 63.4579C115.016 63.629 114.686 63.7125 114.353 63.6986C114.02 63.6847 113.697 63.574 113.423 63.3795C110.342 61.5471 107.742 52.8271 107.742 44.3282C107.742 37.3337 109.401 33.2268 111.039 32.2643C111.296 32.1049 111.589 32.0187 111.89 32.0147Z" fill="#69BCA8"/>
<path d="M112.678 31.9007H113.674V63.8216H112.678V31.9007Z" fill="#69BCA8"/>
<path d="M101.806 40.5005L125.036 54.3301L124.535 55.2113L101.305 41.3817L101.806 40.5005Z" fill="#69BCA8"/>
<path d="M109.794 71.0869C100.941 65.3213 94.2499 51.3262 94.7797 39.837C95.3094 28.3478 102.886 23.713 111.711 29.4786C120.535 35.2441 127.254 49.2392 126.732 60.7284C126.209 72.2176 118.611 76.8524 109.794 71.0869Z" fill="#83D4B9"/>
<path d="M114.77 66.932C115.923 66.9403 117.058 66.6378 118.06 66.0551C120.849 64.4223 122.431 60.6719 122.431 55.7736C122.431 46.7542 117.071 36.2304 110.484 32.3089C107.486 30.5264 104.566 30.2982 102.245 31.66C99.4566 33.2999 97.8744 37.0432 97.8744 41.9486C97.8744 50.9609 103.228 61.4919 109.815 65.4062C111.305 66.3545 113.016 66.881 114.77 66.932ZM105.535 32.1449C107.052 32.1975 108.529 32.66 109.815 33.4853C116.039 37.1858 121.099 47.182 121.099 55.7736C121.099 60.1728 119.754 63.4954 117.398 64.8786C115.502 65.9909 113.049 65.7627 110.484 64.2369C104.259 60.5293 99.1987 50.5331 99.1987 41.9486C99.1987 37.5423 100.551 34.2268 102.907 32.8436C103.706 32.3735 104.613 32.1322 105.535 32.1449Z" fill="#83D4B9"/>
<path d="M114.771 44.387C116.214 44.3925 117.614 43.8888 118.737 42.9611L118.123 42.1625C116.095 43.7881 113.349 43.7168 110.4 41.9629C107.347 40.1447 104.475 36.7722 102.315 32.48L101.429 32.9434C103.674 37.4139 106.685 40.929 109.898 42.847C111.362 43.7887 113.043 44.3198 114.771 44.387Z" fill="#83D4B9"/>
<path d="M117.984 65.2138L118.876 64.7432C116.632 60.2798 113.62 56.7648 110.4 54.8468C107.075 52.8647 103.939 52.8219 101.562 54.7184L102.182 55.517C104.211 53.8914 106.95 53.9627 109.898 55.7166C112.958 57.5704 115.83 60.9144 117.984 65.2138Z" fill="#83D4B9"/>
<path d="M111.439 65.72C111.914 65.7171 112.38 65.5868 112.791 65.3421C115.126 63.9874 116.576 58.9964 116.576 52.3869C116.576 43.2748 113.864 34.5192 110.4 32.4586C109.975 32.1727 109.48 32.0138 108.972 32C108.463 31.9861 107.961 32.1178 107.521 32.3802C105.179 33.7562 103.73 38.7187 103.73 45.3282C103.73 54.4475 106.441 63.2031 109.905 65.2922C110.372 65.568 110.9 65.7154 111.439 65.72ZM108.867 33.0147C109.233 33.0245 109.589 33.1354 109.898 33.3356C112.979 35.168 115.579 43.8951 115.579 52.3869C115.579 59.3814 113.927 63.4883 112.282 64.4579C111.993 64.629 111.663 64.7125 111.33 64.6986C110.997 64.6847 110.674 64.574 110.4 64.3795C107.319 62.5471 104.719 53.8271 104.719 45.3282C104.719 38.3337 106.378 34.2268 108.016 33.2643C108.273 33.1049 108.566 33.0187 108.867 33.0147Z" fill="#83D4B9"/>
<path d="M109.655 32.9007H110.651V64.8216H109.655V32.9007Z" fill="#83D4B9"/>
<path d="M98.7835 41.5005L122.013 55.3301L121.512 56.2113L98.2821 42.3817L98.7835 41.5005Z" fill="#83D4B9"/>
<path d="M58.2995 12.7283C56.7103 11.8119 55.4138 12.5548 55.4138 14.3876V26.4329C55.4691 27.4299 55.7592 28.3999 56.2605 29.2646C56.7618 30.1293 57.4603 30.8645 58.2995 31.4107L114.989 64.0405V45.3235L86.6442 29.0259L58.2995 12.7283Z" fill="#B2EDD5"/>
<path d="M58.8852 29.8764C58.3189 29.5078 57.8477 29.0115 57.5098 28.4277C57.172 27.8439 56.9769 27.1891 56.9404 26.5162V15.4082C56.9404 14.5334 57.5608 14.1724 58.3345 14.6168L113.853 46.5523V61.5065L58.8852 29.8764Z" fill="#B2EDD5"/>
<path d="M79.1199 30.1119C79.0432 30.0702 78.9874 30.0702 78.9456 30.1119C78.9064 30.1504 78.8777 30.1982 78.862 30.2507L78.2974 32.5765L77.7328 29.6051C77.7141 29.5234 77.6861 29.4442 77.6491 29.369C77.6105 29.2892 77.5501 29.2219 77.4749 29.1746L76.5339 28.6331C76.4781 28.6331 76.4363 28.6331 76.4014 28.6331C76.3816 28.6559 76.3665 28.6823 76.3569 28.7109C76.3473 28.7395 76.3435 28.7697 76.3457 28.7997C76.3423 28.8321 76.3423 28.8646 76.3457 28.8969L77.5515 34.9994C77.5678 35.0839 77.596 35.1657 77.6352 35.2424C77.6668 35.3244 77.7259 35.3931 77.8025 35.4368L78.6738 35.9366C78.7481 35.9783 78.8039 35.9783 78.841 35.9366C78.877 35.8931 78.9053 35.8438 78.9247 35.7909L79.4614 33.6456L80.0051 36.4226C80.0266 36.5079 80.0546 36.5914 80.0887 36.6726C80.1207 36.7526 80.1799 36.819 80.256 36.86L81.1203 37.3599C81.197 37.4015 81.2528 37.4015 81.2946 37.3599C81.331 37.3151 81.3572 37.263 81.3713 37.2071L82.5841 32.4932C82.5875 32.4655 82.5875 32.4375 82.5841 32.4098C82.5873 32.3298 82.568 32.2505 82.5283 32.1807C82.5038 32.1161 82.46 32.0604 82.4029 32.0211L81.4619 31.4795C81.3852 31.4379 81.3225 31.431 81.2806 31.4795C81.2433 31.5195 81.2148 31.5668 81.197 31.6184L80.6394 33.9441L80.0748 30.9727C80.0584 30.8905 80.0302 30.811 79.9911 30.7367C79.9568 30.6542 79.8953 30.5857 79.8169 30.5423L79.1199 30.1119Z" fill="#69BCA8"/>
<path d="M72.526 26.3213C72.4493 26.2796 72.3935 26.2796 72.3517 26.3213C72.3126 26.3598 72.2838 26.4076 72.2681 26.4601L71.7035 28.7859L71.1389 25.8145C71.1203 25.7328 71.0922 25.6536 71.0552 25.5784C71.0187 25.4972 70.9578 25.4293 70.881 25.384L69.94 24.8425C69.9213 24.8273 69.8979 24.819 69.8738 24.819C69.8496 24.819 69.8262 24.8273 69.8076 24.8425C69.77 24.8895 69.7525 24.9494 69.7588 25.0091C69.7553 25.0414 69.7553 25.074 69.7588 25.1063L70.9646 31.2088C70.9841 31.2924 71.0122 31.3738 71.0483 31.4518C71.0799 31.5338 71.139 31.6025 71.2156 31.6462L72.0868 32.146C72.1658 32.1877 72.2216 32.1877 72.2541 32.146C72.2901 32.1025 72.3183 32.0532 72.3378 32.0003L72.8815 29.855L73.4182 32.632C73.4397 32.7173 73.4677 32.8008 73.5018 32.882C73.5338 32.962 73.593 33.0284 73.6691 33.0694L74.5404 33.5693C74.6171 33.6109 74.6728 33.6109 74.7077 33.5693C74.7462 33.5249 74.7747 33.4728 74.7913 33.4165L75.9972 28.7026C76.0006 28.6749 76.0006 28.6469 75.9972 28.6192C75.9994 28.5401 75.9826 28.4616 75.9484 28.3901C75.9216 28.3247 75.8754 28.269 75.816 28.2305L74.875 27.6889C74.7983 27.6473 74.7356 27.6404 74.7007 27.6889C74.6585 27.725 74.6292 27.7737 74.6171 27.8278L74.0525 30.1535L73.4879 27.1752C73.4702 27.0955 73.4421 27.0185 73.4042 26.9461C73.3698 26.8636 73.3084 26.7951 73.23 26.7517L72.526 26.3213Z" fill="#69BCA8"/>
<path d="M65.9814 22.5015C65.9047 22.4598 65.849 22.4598 65.8071 22.5015C65.768 22.54 65.7392 22.5878 65.7235 22.6404L65.1589 24.9661L64.6013 21.9947C64.5774 21.9147 64.5495 21.8359 64.5176 21.7587C64.4785 21.677 64.4153 21.6092 64.3364 21.5643L63.3954 21.0227C63.3778 21.0081 63.3556 21 63.3327 21C63.3097 21 63.2875 21.0081 63.2699 21.0227C63.2486 21.0445 63.2325 21.0708 63.2229 21.0997C63.2132 21.1285 63.2102 21.1592 63.2142 21.1894C63.2107 21.2217 63.2107 21.2543 63.2142 21.2866L64.434 27.4099C64.4509 27.4933 64.4766 27.5748 64.5107 27.6528C64.5472 27.734 64.6081 27.8019 64.6849 27.8472L65.5492 28.3471C65.6282 28.3888 65.684 28.3888 65.7165 28.3471C65.7525 28.3035 65.7807 28.2543 65.8002 28.2013L66.3439 26.0214L66.8806 28.7984C66.9021 28.8836 66.9301 28.9672 66.9642 29.0483C66.9981 29.1272 67.0568 29.193 67.1315 29.2357L68.0028 29.7356C68.0818 29.7773 68.1375 29.7773 68.1701 29.7356C68.2124 29.6968 68.2416 29.6458 68.2537 29.5898L69.4666 24.8758C69.4666 24.8758 69.4666 24.8203 69.4666 24.7925C69.4654 24.7107 69.4464 24.6302 69.4108 24.5565C69.3844 24.4927 69.3379 24.4391 69.2784 24.4037L68.3374 23.8622C68.2607 23.8206 68.2049 23.8136 68.1631 23.8622C68.1209 23.8983 68.0916 23.947 68.0795 24.0011L67.5149 26.3268L66.9503 23.3485C66.9326 23.2688 66.9045 23.1918 66.8666 23.1194C66.8322 23.0368 66.7708 22.9683 66.6924 22.925L65.9814 22.5015Z" fill="#69BCA8"/>
<path d="M106.961 71.5265C98.1084 65.7919 91.4169 51.8722 91.9467 40.4448C92.4764 29.0174 100.053 24.4076 108.878 30.1421C117.702 35.8766 124.421 49.7964 123.899 61.2238C123.376 72.6511 115.778 77.261 106.961 71.5265Z" fill="#B2EDD5"/>
<path d="M111.938 68.5065C113.09 68.5145 114.225 68.22 115.228 67.6526C118.016 66.0627 119.598 62.411 119.598 57.6415C119.598 48.8592 114.238 38.612 107.651 34.7936C104.654 33.058 101.733 32.8358 99.4119 34.1619C96.6238 35.7586 95.0415 39.4035 95.0415 44.1799C95.0415 52.9553 100.395 63.2094 106.982 67.0208C108.472 67.9441 110.183 68.4568 111.938 68.5065ZM102.702 34.634C104.219 34.6852 105.696 35.1355 106.982 35.9391C113.206 39.5423 118.267 49.2757 118.267 57.6415C118.267 61.925 116.921 65.1602 114.565 66.507C112.669 67.5901 110.216 67.3679 107.651 65.8822C101.426 62.2721 96.3659 52.5387 96.3659 44.1799C96.3659 39.8894 97.7181 36.6612 100.074 35.3143C100.873 34.8566 101.78 34.6216 102.702 34.634Z" fill="#69BCA8"/>
<path d="M111.938 46.5542C113.381 46.5595 114.781 46.0691 115.904 45.1657L115.29 44.3881C113.262 45.971 110.516 45.9016 107.567 44.1938C104.514 42.4234 101.642 39.1396 99.4816 34.9602L98.5964 35.4115C100.841 39.7644 103.852 43.1871 107.065 45.0546C108.529 45.9716 110.21 46.4887 111.938 46.5542Z" fill="#69BCA8"/>
<path d="M115.151 66.8333L116.043 66.3751C113.799 62.0291 110.787 58.6064 107.567 56.7389C104.242 54.8089 101.106 54.7672 98.7288 56.6139L99.3492 57.3915C101.378 55.8086 104.117 55.878 107.065 57.5859C110.125 59.3909 112.997 62.647 115.151 66.8333Z" fill="#69BCA8"/>
<path d="M108.606 67.3263C109.081 67.3235 109.547 67.1966 109.958 66.9583C112.293 65.6392 113.743 60.7795 113.743 54.3438C113.743 45.4712 111.031 36.9458 107.567 34.9394C107.142 34.661 106.647 34.5063 106.139 34.4928C105.63 34.4794 105.128 34.6076 104.688 34.8631C102.346 36.203 100.897 41.035 100.897 47.4707C100.897 56.3501 103.608 64.8756 107.072 66.9097C107.539 67.1783 108.067 67.3218 108.606 67.3263ZM106.034 35.4809C106.4 35.4905 106.756 35.5984 107.065 35.7934C110.146 37.5776 112.746 46.0752 112.746 54.3438C112.746 61.1544 111.094 65.1533 109.449 66.0974C109.16 66.264 108.83 66.3453 108.497 66.3317C108.164 66.3182 107.841 66.2105 107.567 66.0211C104.486 64.2368 101.886 55.7462 101.886 47.4707C101.886 40.6601 103.545 36.6612 105.183 35.7239C105.44 35.5687 105.733 35.4848 106.034 35.4809Z" fill="#69BCA8"/>
<path d="M106.822 35.3699H107.818V66.4515H106.822V35.3699Z" fill="#69BCA8"/>
<path d="M95.9506 43.7436L119.18 57.2096L118.679 58.0676L95.4492 44.6016L95.9506 43.7436Z" fill="#69BCA8"/>
<path d="M46.2619 38.9986C46.3472 38.8012 46.4906 38.6341 46.6731 38.5196L47.7047 37.9225C47.916 37.8357 48.1465 37.806 48.373 37.8365C48.5994 37.867 48.8137 37.9565 48.9943 38.0961L49.6425 37.7212C50.4302 37.2491 51.5175 38.2349 51.7336 38.4779L52.0124 38.3113C52.2263 38.2238 52.4587 38.1907 52.6887 38.2149C52.9187 38.2392 53.139 38.32 53.3298 38.4502V34.6873C53.3133 34.5274 53.3386 34.366 53.4034 34.2188C53.4681 34.0716 53.57 33.9436 53.6992 33.8473L54.7657 33.2988C54.9152 33.2327 55.0796 33.2069 55.2422 33.224C55.4049 33.241 55.5603 33.3004 55.6927 33.396C56.08 33.6466 56.4024 33.9847 56.6337 34.3828C56.8651 34.7809 56.9988 35.2278 57.0241 35.687V47.1352L57.1844 47.0589C57.9371 46.4331 58.9039 46.1221 59.8819 46.1911C60.5893 46.3564 61.2072 46.7832 61.6105 47.3852C62.0497 48.1558 61.3247 48.6348 60.3907 49.704C59.4567 50.7731 58.6551 52.0228 57.8117 52.8073C57.396 53.2282 56.9009 53.5632 56.3549 53.7931V55.2996L55.3303 55.8898L47.5235 51.3979V49.8984C47.5235 49.8984 46.5547 46.0522 46.248 44.4415C45.9413 42.8309 45.6625 40.2413 46.2619 38.9986Z" fill="#00DFBF"/>
<path opacity="0.8" d="M46.2619 38.9986C46.3472 38.8012 46.4906 38.6341 46.6731 38.5196L47.7048 37.9225C47.916 37.8357 48.1465 37.806 48.373 37.8365C48.5994 37.867 48.8137 37.9565 48.9943 38.0961L49.6425 37.7212C50.4302 37.2491 51.5175 38.2349 51.7336 38.4779L52.0124 38.3113C52.2263 38.2238 52.4587 38.1907 52.6887 38.2149C52.9187 38.2392 53.139 38.32 53.3298 38.4502V34.6873C53.3133 34.5274 53.3386 34.366 53.4034 34.2188C53.4681 34.0716 53.57 33.9436 53.6992 33.8473L54.7657 33.2988C54.9152 33.2327 55.0796 33.2069 55.2422 33.224C55.4049 33.241 55.5603 33.3004 55.6927 33.396C56.08 33.6466 56.4024 33.9847 56.6337 34.3828C56.8651 34.7809 56.9988 35.2278 57.0241 35.687V47.1352L57.1844 47.0589C57.9371 46.4331 58.9039 46.1221 59.8819 46.1911C60.5893 46.3564 61.2072 46.7832 61.6105 47.3852C62.0497 48.1558 61.3247 48.6348 60.3907 49.704C59.4567 50.7731 58.6551 52.0228 57.8117 52.8073C57.396 53.2282 56.9009 53.5632 56.3549 53.7931V55.2996L55.3303 55.8898L47.5235 51.3979V49.8984C47.5235 49.8984 46.5547 46.0522 46.248 44.4415C45.9413 42.8309 45.6625 40.2413 46.2619 38.9986Z" fill="#FAFAFA"/>
<path opacity="0.2" d="M53.3505 38.4779V39.7484C53.0417 39.4821 52.7052 39.2494 52.3468 39.0541L53.3505 38.4779ZM48.6386 37.9225C48.7632 37.9699 48.8824 38.0304 48.9941 38.103L48.6665 38.2974C48.447 38.4165 48.273 38.6044 48.1716 38.832C47.9942 38.6924 47.7969 38.5801 47.5861 38.4987L48.6386 37.9225ZM51.0712 37.9225C51.322 38.0808 51.5556 38.2646 51.7683 38.471L51.0712 38.8598H51.0294C50.9255 38.9133 50.8368 38.9921 50.7715 39.0889C50.5576 38.8757 50.3243 38.6828 50.0745 38.5126L51.0712 37.9225ZM57.0378 35.6384V47.1352C56.6773 47.3137 56.3343 47.5252 56.0132 47.767V36.2424L57.0378 35.6384ZM56.7939 53.4321C57.6373 52.6476 58.4598 51.3493 59.3798 50.3288C60.2999 49.3082 60.9551 48.8362 60.6694 48.1419L61.694 47.5518C61.9798 48.246 61.2827 48.739 60.4045 49.7387C59.5262 50.7384 58.6689 52.0575 57.8255 52.842C57.4083 53.2611 56.9136 53.5959 56.3687 53.8278V55.3343L55.344 55.9245V54.3902C55.8845 54.1663 56.3767 53.8411 56.7939 53.4321Z" fill="#00DFBF"/>
<path opacity="0.1" d="M53.3505 38.4779V39.7484C53.0417 39.4821 52.7052 39.2494 52.3468 39.0541L53.3505 38.4779ZM48.6386 37.9225C48.7632 37.9699 48.8824 38.0304 48.9941 38.103L48.6665 38.2974C48.447 38.4165 48.273 38.6044 48.1716 38.832C47.9942 38.6924 47.7969 38.5801 47.5861 38.4987L48.6386 37.9225ZM51.0712 37.9225C51.322 38.0808 51.5556 38.2646 51.7683 38.471L51.0712 38.8598H51.0294C50.9255 38.9133 50.8368 38.9921 50.7715 39.0889C50.5576 38.8757 50.3243 38.6828 50.0745 38.5126L51.0712 37.9225ZM57.0378 35.6384V47.1352C56.6773 47.3137 56.3343 47.5252 56.0132 47.767V36.2424L57.0378 35.6384ZM56.7939 53.4321C57.6373 52.6476 58.4598 51.3493 59.3798 50.3288C60.2999 49.3082 60.9551 48.8362 60.6694 48.1419L61.694 47.5518C61.9798 48.246 61.2827 48.739 60.4045 49.7387C59.5262 50.7384 58.6689 52.0575 57.8255 52.842C57.4083 53.2611 56.9136 53.5959 56.3687 53.8278V55.3343L55.344 55.9245V54.3902C55.8845 54.1663 56.3767 53.8411 56.7939 53.4321Z" fill="black"/>
<path d="M55.344 55.8898V54.3832C55.8843 54.1622 56.3766 53.8393 56.7938 53.4321C57.6373 52.6476 58.4528 51.3494 59.3798 50.3288C60.3069 49.3083 61.0388 48.7806 60.5996 48.01C60.1948 47.4095 59.5775 46.9831 58.871 46.8159C57.8248 46.7541 56.7969 47.1087 56.0132 47.8017V36.2424C55.9868 35.7834 55.8526 35.337 55.6214 34.9391C55.3901 34.5411 55.0683 34.2028 54.6818 33.9514C53.95 33.5279 53.3575 33.875 53.3575 34.7151V39.7484C53.3575 39.7484 51.5243 38.1308 50.7854 39.1236C50.7854 39.1236 48.9871 37.2422 48.1716 38.832C48.1716 38.832 46.8542 37.7698 46.2617 38.9986C45.6692 40.2274 45.948 42.8378 46.2617 44.4416C46.5754 46.0453 47.5373 49.8984 47.5373 49.8984V51.398L55.344 55.8898Z" fill="#69BCA8"/>
<g opacity="0.1">
<path d="M53.3575 41.9075C53.3575 41.9075 53.1904 39.6096 52.3407 39.0681C52.6927 39.2628 53.022 39.4956 53.3227 39.7623V39.7206C53.3275 39.7341 53.3275 39.7488 53.3227 39.7623L53.3575 41.9075Z" fill="black"/>
<path d="M50.7855 39.1236V41.2064C50.7855 41.2064 50.5487 39.0472 50.0891 38.5266C50.3432 38.6986 50.5768 38.8989 50.7855 39.1236Z" fill="black"/>
<path d="M48.1716 38.8528V40.9356C48.1716 40.9356 48.0467 38.8528 47.5886 38.4988C47.7997 38.5866 47.9963 38.7059 48.1716 38.8528Z" fill="black"/>
</g>
<path opacity="0.65" d="M55.203 56.1191V54.6126C55.7433 54.3916 56.2357 54.0686 56.6529 53.6615C57.4963 52.877 58.3118 51.5787 59.2388 50.5582C60.1659 49.5376 60.8978 49.01 60.4586 48.2394C60.0538 47.6389 59.4365 47.2125 58.73 47.0453C57.6838 46.9835 56.6559 47.3381 55.8722 48.0311V36.4718C55.8458 36.0128 55.7116 35.5663 55.4804 35.1684C55.2491 34.7705 54.9273 34.4322 54.5409 34.1808C53.809 33.7573 53.2165 34.1044 53.2165 34.9445V39.9778C53.2165 39.9778 51.3833 38.3602 50.6445 39.353C50.6445 39.353 48.8461 37.4715 48.0306 39.0614C48.0306 39.0614 46.7132 37.9992 46.1207 39.228C45.5282 40.4568 45.8071 43.0672 46.1207 44.6709C46.4344 46.2746 47.3963 50.1277 47.3963 50.1277V51.6273L55.203 56.1191Z" fill="#B2EDD5"/>
<defs>
<linearGradient id="paint0_linear_41_959" x1="116.583" y1="44.4947" x2="41.2059" y2="44.4947" gradientUnits="userSpaceOnUse">
<stop stop-color="#C0BFF6"/>
<stop offset="0.29" stop-color="#C5C4F7"/>
<stop offset="0.64" stop-color="#D3D2F9"/>
<stop offset="1" stop-color="#E9E9FD"/>
</linearGradient>
<linearGradient id="paint1_linear_41_959" x1="116.583" y1="63.7443" x2="103.642" y2="63.7443" gradientUnits="userSpaceOnUse">
<stop stop-color="#5761D7"/>
<stop offset="0.18" stop-color="#5C66D9"/>
<stop offset="0.39" stop-color="#6A73DF"/>
<stop offset="0.61" stop-color="#8289E8"/>
<stop offset="0.85" stop-color="#A3A7F5"/>
<stop offset="1" stop-color="#BCBEFF"/>
</linearGradient>
<linearGradient id="paint2_linear_41_959" x1="111.41" y1="58.3376" x2="4.89796" y2="58.3376" gradientUnits="userSpaceOnUse">
<stop stop-color="#C0BFF6"/>
<stop offset="0.29" stop-color="#C5C4F7"/>
<stop offset="0.64" stop-color="#D3D2F9"/>
<stop offset="1" stop-color="#E9E9FD"/>
</linearGradient>
<linearGradient id="paint3_linear_41_959" x1="118.42" y1="50.5532" x2="91.1563" y2="50.5532" gradientUnits="userSpaceOnUse">
<stop stop-color="#C0BFF6"/>
<stop offset="0.29" stop-color="#C5C4F7"/>
<stop offset="0.64" stop-color="#D3D2F9"/>
<stop offset="1" stop-color="#E9E9FD"/>
</linearGradient>
</defs>
</svg>
