<svg width="100" height="141" viewBox="0 0 100 141" fill="none" xmlns="http://www.w3.org/2000/svg">
<path d="M39.9806 137.106C39.3471 137.107 38.7243 136.943 38.1748 136.629L0.740075 115.108C0.627391 115.045 0.533649 114.953 0.468426 114.841C0.403203 114.73 0.368835 114.603 0.368835 114.475C0.368835 114.346 0.403203 114.219 0.468426 114.108C0.533649 113.997 0.627391 113.904 0.740075 113.841L39.9806 91.2953L40.0709 91.3493L79.2211 113.814C79.3315 113.879 79.423 113.972 79.4865 114.083C79.55 114.194 79.5834 114.32 79.5834 114.448C79.5834 114.575 79.55 114.701 79.4865 114.812C79.423 114.923 79.3315 115.016 79.2211 115.081L41.7684 136.647C41.2224 136.952 40.6064 137.11 39.9806 137.106ZM39.9806 91.7087L0.902599 114.156C0.844823 114.188 0.796759 114.235 0.763411 114.292C0.730063 114.348 0.712651 114.413 0.712987 114.479C0.713575 114.545 0.731376 114.609 0.76463 114.666C0.797885 114.723 0.845441 114.77 0.902599 114.803L38.3463 136.315C38.8383 136.595 39.3955 136.743 39.9626 136.743C40.5296 136.743 41.0868 136.595 41.5788 136.315L79.0406 114.803C79.0967 114.769 79.1429 114.722 79.1746 114.665C79.2063 114.608 79.2224 114.544 79.2211 114.479C79.2233 114.414 79.2077 114.349 79.1759 114.292C79.1441 114.235 79.0973 114.188 79.0406 114.156L39.9806 91.7087Z" fill="#B2EDD5"/>
<path opacity="0.7" d="M80.269 100.937C79.5755 100.956 78.8886 100.798 78.2735 100.479L62.301 91.2863C62.0489 91.182 61.831 91.0099 61.6715 90.7893C61.5121 90.5687 61.4174 90.3083 61.3981 90.0373C61.4356 89.6963 61.5619 89.3709 61.7646 89.0935C61.9674 88.8161 62.2394 88.5963 62.5539 88.4557L77.9034 79.6226C78.5905 79.247 79.356 79.0352 80.1394 79.004C80.9228 78.9728 81.7028 79.1231 82.4179 79.4429L98.4265 88.6355C98.6667 88.7499 98.872 88.9259 99.0212 89.1454C99.1703 89.3649 99.258 89.6201 99.2753 89.8845C99.237 90.2265 99.1093 90.5524 98.9049 90.8299C98.7005 91.1074 98.4266 91.3268 98.1105 91.466L82.761 100.299C81.9964 100.714 81.14 100.934 80.269 100.937ZM80.5308 79.371C79.6955 79.3626 78.8719 79.5667 78.1381 79.9641L62.7886 88.7972C62.5304 88.9072 62.305 89.0816 62.1342 89.3035C61.9633 89.5254 61.8529 89.7874 61.8135 90.0642C61.8354 90.2593 61.9088 90.4452 62.0261 90.603C62.1435 90.7607 62.3006 90.8849 62.4816 90.9628L78.4541 100.209C79.1201 100.505 79.846 100.643 80.5747 100.612C81.3033 100.581 82.0147 100.381 82.6527 100.03L98.0022 91.1875C98.2621 91.0787 98.4893 90.9049 98.6618 90.6829C98.8343 90.4608 98.9461 90.1982 98.9863 89.9205C98.9618 89.7262 98.8874 89.5415 98.7704 89.3842C98.6534 89.2268 98.4976 89.102 98.3182 89.0219L82.3367 79.7574C81.7811 79.4656 81.1586 79.3232 80.5308 79.344V79.371Z" fill="#B2EDD5"/>
<path d="M39.9811 119.119L0.000183105 96.1506L39.9811 73.1736L79.962 96.1506L39.9811 119.119Z" fill="#C9D7F6"/>
<path d="M39.9809 112.578L10.9162 95.8823L39.9809 79.1775L69.0456 95.8823L39.9809 112.578Z" fill="#4150B3"/>
<path d="M39.9809 80.3097L68.0615 96.4484L69.0456 95.8823L39.9809 79.1775L10.9162 95.8823L11.9004 96.4484L39.9809 80.3097Z" fill="white"/>
<path d="M79.9613 95.8822V108.903L39.9804 131.871V118.85L79.9613 95.8822Z" fill="#C9D7F6"/>
<path d="M0 95.8822V108.903L39.9809 131.871V118.85L0 95.8822Z" fill="#4150B3"/>
<g opacity="0.51">
<path d="M2.70917 101.732V105.83L37.2726 125.688V121.591L2.70917 101.732Z" fill="white"/>
</g>
<path d="M39.9809 118.104L0.650096 95.5048L0 95.8822L39.9809 118.85L79.9618 95.8822L79.3117 95.5048L39.9809 118.104Z" fill="white"/>
<path d="M74.0198 105.077V107.413L46.0295 123.489V121.162L74.0198 105.077Z" fill="#4150B3"/>
<path opacity="0.51" d="M0 96V109.021L39.9809 131.989V118.968L0 96Z" fill="#4150B3"/>
<path d="M28.3068 118.158L21.0745 113.998L21.0655 114.86L28.3068 119.021V118.158Z" fill="white"/>
<path d="M20.0273 113.414L18.0679 112.281V113.144L20.0273 114.267V113.414Z" fill="#FCB513"/>
<path d="M10.8353 108.13L6.82635 105.83V106.683L10.8353 108.993V108.13Z" fill="#FCB513"/>
<path d="M14.5008 110.233L11.5934 108.57V109.424L14.5008 111.095V110.233Z" fill="#FCB513"/>
<path d="M17.2186 111.796L15.2593 110.673V111.527L17.2186 112.659V111.796Z" fill="white"/>
<path d="M40.0175 84.9194L38.7534 84.1825L40.0175 83.4547L41.2906 84.1825L40.0175 84.9194Z" fill="white"/>
<path opacity="0.1" d="M42.5634 86.3752L41.2903 85.6473L42.5634 84.9194L43.8275 85.6473L42.5634 86.3752Z" fill="white"/>
<path opacity="0.4" d="M45.1004 87.8308L43.8273 87.1029L45.1004 86.3751L46.3644 87.1029L45.1004 87.8308Z" fill="white"/>
<path d="M47.6379 89.2956L46.3647 88.5587L47.6379 87.8309L48.911 88.5587L47.6379 89.2956Z" fill="white"/>
<path opacity="0.4" d="M50.1755 90.7513L48.9114 90.0234L50.1755 89.2955L51.4486 90.0234L50.1755 90.7513Z" fill="white"/>
<path d="M52.7115 92.2069L51.4474 91.4791L52.7115 90.7512L53.9846 91.4791L52.7115 92.2069Z" fill="white"/>
<path d="M55.2585 93.6716L53.9854 92.9438L55.2585 92.2069L56.5225 92.9438L55.2585 93.6716Z" fill="white"/>
<path d="M57.7954 95.1274L56.5223 94.3995L57.7954 93.6717L59.0595 94.3995L57.7954 95.1274Z" fill="white"/>
<path opacity="0.1" d="M60.3329 96.5831L59.0598 95.8552L60.3329 95.1274L61.606 95.8552L60.3329 96.5831Z" fill="white"/>
<path d="M37.4705 86.3841L36.1974 85.6473L37.4705 84.9194L38.7436 85.6473L37.4705 86.3841Z" fill="white"/>
<path d="M40.0082 87.8398L38.7441 87.112L40.0082 86.3841L41.2813 87.112L40.0082 87.8398Z" fill="white"/>
<path d="M42.5547 89.2956L41.2816 88.5677L42.5547 87.8398L43.8187 88.5677L42.5547 89.2956Z" fill="white"/>
<path d="M45.0912 90.7602L43.8181 90.0324L45.0912 89.2955L46.3552 90.0324L45.0912 90.7602Z" fill="white"/>
<path d="M47.6296 92.2159L46.3564 91.4881L47.6296 90.7602L48.9027 91.4881L47.6296 92.2159Z" fill="white"/>
<path d="M50.1662 93.6717L48.9022 92.9439L50.1662 92.216L51.4393 92.9439L50.1662 93.6717Z" fill="white"/>
<path d="M52.7027 95.1364L51.4387 94.3995L52.7027 93.6717L53.9758 94.3995L52.7027 95.1364Z" fill="white"/>
<path d="M55.2497 96.5921L53.9766 95.8642L55.2497 95.1364L56.5137 95.8642L55.2497 96.5921Z" fill="white"/>
<path d="M57.7862 98.0478L56.5131 97.32L57.7862 96.5921L59.0502 97.32L57.7862 98.0478Z" fill="white"/>
<path d="M34.9253 87.8488L33.6522 87.112L34.9253 86.3841L36.1893 87.112L34.9253 87.8488Z" fill="white"/>
<path d="M37.4613 89.3045L36.1882 88.5767L37.4613 87.8488L38.7344 88.5767L37.4613 89.3045Z" fill="white"/>
<path d="M39.9989 90.7602L38.7349 90.0324L39.9989 89.3045L41.272 90.0324L39.9989 90.7602Z" fill="white"/>
<path opacity="0.1" d="M42.5359 92.2249L41.2718 91.497L42.5359 90.7602L43.809 91.497L42.5359 92.2249Z" fill="white"/>
<path opacity="0.4" d="M45.0733 93.6807L43.8093 92.9528L45.0733 92.225L46.3464 92.9528L45.0733 93.6807Z" fill="white"/>
<path opacity="0.4" d="M47.6203 95.1364L46.3472 94.4085L47.6203 93.6807L48.8843 94.4085L47.6203 95.1364Z" fill="white"/>
<path d="M50.1568 96.6011L48.8837 95.8732L50.1568 95.1364L51.4208 95.8732L50.1568 96.6011Z" fill="white"/>
<path d="M52.6939 98.0568L51.4299 97.3289L52.6939 96.6011L53.9671 97.3289L52.6939 98.0568Z" fill="white"/>
<path d="M55.2314 99.5126L53.9673 98.7847L55.2314 98.0569L56.5045 98.7847L55.2314 99.5126Z" fill="white"/>
<path opacity="0.4" d="M32.3695 89.3135L31.1055 88.5767L32.3695 87.8488L33.6426 88.5767L32.3695 89.3135Z" fill="white"/>
<path opacity="0.4" d="M34.916 90.7693L33.6429 90.0415L34.916 89.3136L36.1801 90.0415L34.916 90.7693Z" fill="white"/>
<path opacity="0.1" d="M37.4525 92.2249L36.1794 91.4971L37.4525 90.7692L38.7166 91.4971L37.4525 92.2249Z" fill="white"/>
<path d="M39.9904 93.6897L38.7173 92.9528L39.9904 92.225L41.2635 92.9528L39.9904 93.6897Z" fill="white"/>
<path d="M42.5271 95.1454L41.263 94.4175L42.5271 93.6896L43.8002 94.4175L42.5271 95.1454Z" fill="white"/>
<path d="M45.0646 96.601L43.8005 95.8731L45.0646 95.1453L46.3377 95.8731L45.0646 96.601Z" fill="white"/>
<path opacity="0.4" d="M47.611 98.0658L46.3379 97.3379L47.611 96.6011L48.8751 97.3379L47.611 98.0658Z" fill="white"/>
<path d="M50.148 99.5215L48.8749 98.7937L50.148 98.0658L51.4121 98.7937L50.148 99.5215Z" fill="white"/>
<path d="M52.6849 100.977L51.4118 100.249L52.6849 99.5215L53.958 100.249L52.6849 100.977Z" fill="white"/>
<path d="M29.8236 90.7783L28.5505 90.0415L29.8236 89.3136L31.0967 90.0415L29.8236 90.7783Z" fill="white"/>
<path d="M32.3612 92.234L31.0972 91.5061L32.3612 90.7783L33.6344 91.5061L32.3612 92.234Z" fill="white"/>
<path d="M34.8977 93.6896L33.6336 92.9617L34.8977 92.2339L36.1708 92.9617L34.8977 93.6896Z" fill="white"/>
<path d="M37.4432 95.1543L36.1701 94.4265L37.4432 93.6896L38.7073 94.4265L37.4432 95.1543Z" fill="white"/>
<path d="M39.9816 96.6101L38.7085 95.8822L39.9816 95.1544L41.2457 95.8822L39.9816 96.6101Z" fill="white"/>
<path d="M42.5179 98.0658L41.2538 97.338L42.5179 96.6101L43.791 97.338L42.5179 98.0658Z" fill="white"/>
<path d="M45.0553 99.5305L43.7912 98.8026L45.0553 98.0658L46.3284 98.8026L45.0553 99.5305Z" fill="white"/>
<path d="M47.6022 100.986L46.3291 100.258L47.6022 99.5305L48.8663 100.258L47.6022 100.986Z" fill="white"/>
<path d="M50.1392 102.442L48.8661 101.714L50.1392 100.986L51.4033 101.714L50.1392 102.442Z" fill="white"/>
<path d="M27.2768 92.243L26.0037 91.5061L27.2768 90.7783L28.5409 91.5061L27.2768 92.243Z" fill="white"/>
<path d="M29.8143 93.6986L28.5412 92.9707L29.8143 92.2429L31.0784 92.9707L29.8143 93.6986Z" fill="white"/>
<path opacity="0.4" d="M32.3522 95.1544L31.0791 94.4265L32.3522 93.6987L33.6253 94.4265L32.3522 95.1544Z" fill="white"/>
<path d="M34.8885 96.6191L33.6244 95.8912L34.8885 95.1544L36.1616 95.8912L34.8885 96.6191Z" fill="white"/>
<path opacity="0.1" d="M37.4254 98.0748L36.1613 97.3469L37.4254 96.6191L38.6985 97.3469L37.4254 98.0748Z" fill="white"/>
<path d="M39.9723 99.5305L38.6992 98.8027L39.9723 98.0748L41.2364 98.8027L39.9723 99.5305Z" fill="white"/>
<path d="M42.5088 100.995L41.2357 100.267L42.5088 99.5305L43.7729 100.267L42.5088 100.995Z" fill="white"/>
<path d="M45.0457 102.451L43.7726 101.723L45.0457 100.995L46.3189 101.723L45.0457 102.451Z" fill="white"/>
<path d="M47.5834 103.907L46.3193 103.179L47.5834 102.451L48.8565 103.179L47.5834 103.907Z" fill="white"/>
<path d="M24.7221 93.7076L23.458 92.9707L24.7221 92.2429L25.9952 92.9707L24.7221 93.7076Z" fill="white"/>
<path d="M27.2676 95.1633L25.9945 94.4354L27.2676 93.7076L28.5317 94.4354L27.2676 95.1633Z" fill="white"/>
<path opacity="0.4" d="M29.805 96.6191L28.5319 95.8912L29.805 95.1633L31.0691 95.8912L29.805 96.6191Z" fill="white"/>
<path d="M32.3429 98.0838L31.0698 97.3469L32.3429 96.6191L33.616 97.3469L32.3429 98.0838Z" fill="white"/>
<path d="M34.8797 99.5395L33.6156 98.8116L34.8797 98.0837L36.1528 98.8116L34.8797 99.5395Z" fill="white"/>
<path opacity="0.1" d="M37.4166 100.995L36.1525 100.267L37.4166 99.5396L38.6897 100.267L37.4166 100.995Z" fill="white"/>
<path opacity="0.4" d="M39.9626 102.46L38.6895 101.732L39.9626 100.995L41.2266 101.732L39.9626 102.46Z" fill="white"/>
<path d="M42.5 103.916L41.2269 103.188L42.5 102.46L43.7641 103.188L42.5 103.916Z" fill="white"/>
<path opacity="0.1" d="M45.037 105.38L43.7639 104.644L45.037 103.916L46.3101 104.644L45.037 105.38Z" fill="white"/>
<path d="M22.1756 95.1723L20.9025 94.4444L22.1756 93.7076L23.4487 94.4444L22.1756 95.1723Z" fill="white"/>
<path opacity="0.4" d="M24.7133 96.628L23.4492 95.9001L24.7133 95.1722L25.9864 95.9001L24.7133 96.628Z" fill="white"/>
<path d="M27.2498 98.0838L25.9857 97.3559L27.2498 96.6281L28.5229 97.3559L27.2498 98.0838Z" fill="white"/>
<path d="M29.7962 99.5484L28.5231 98.8116L29.7962 98.0837L31.0603 98.8116L29.7962 99.5484Z" fill="white"/>
<path d="M32.3332 101.004L31.0601 100.276L32.3332 99.5485L33.5972 100.276L32.3332 101.004Z" fill="white"/>
<path d="M34.8711 102.46L33.598 101.732L34.8711 101.004L36.1442 101.732L34.8711 102.46Z" fill="white"/>
<path d="M37.4068 103.925L36.1428 103.197L37.4068 102.46L38.6799 103.197L37.4068 103.925Z" fill="white"/>
<path opacity="0.4" d="M39.9448 105.38L38.6807 104.652L39.9448 103.925L41.2179 104.652L39.9448 105.38Z" fill="white"/>
<path d="M42.4912 106.845L41.2181 106.108L42.4912 105.38L43.7553 106.108L42.4912 106.845Z" fill="white"/>
<path d="M19.6294 96.6369L18.3563 95.9001L19.6294 95.1722L20.8935 95.9001L19.6294 96.6369Z" fill="white"/>
<path opacity="0.1" d="M22.1668 98.0927L20.8937 97.3649L22.1668 96.637L23.4309 97.3649L22.1668 98.0927Z" fill="white"/>
<path d="M24.7033 99.5486L23.4302 98.8207L24.7033 98.0928L25.9764 98.8207L24.7033 99.5486Z" fill="white"/>
<path d="M27.241 101.013L25.9769 100.285L27.241 99.5485L28.5141 100.285L27.241 101.013Z" fill="white"/>
<path d="M29.7774 102.469L28.5134 101.741L29.7774 101.013L31.0505 101.741L29.7774 102.469Z" fill="white"/>
<path d="M32.3244 103.925L31.0513 103.197L32.3244 102.469L33.5885 103.197L32.3244 103.925Z" fill="white"/>
<path opacity="0.4" d="M34.8619 105.389L33.5887 104.661L34.8619 103.925L36.135 104.661L34.8619 105.389Z" fill="white"/>
<path d="M37.398 106.845L36.134 106.117L37.398 105.389L38.6712 106.117L37.398 106.845Z" fill="white"/>
<path d="M39.9355 108.301L38.6714 107.573L39.9355 106.845L41.2086 107.573L39.9355 108.301Z" fill="white"/>
<path d="M39.9809 96.8976L0 73.9296L39.9809 50.9526L79.9618 73.9296L39.9809 96.8976Z" fill="#B2EDD5"/>
<path d="M39.9809 90.6255L10.9162 73.9297L39.9809 57.2249L69.0456 73.9297L39.9809 90.6255Z" fill="#69BCA8"/>
<path d="M39.9809 58.3571L68.0615 74.4958L69.0456 73.9297L39.9809 57.2249L10.9162 73.9297L11.9004 74.4958L39.9809 58.3571Z" fill="white"/>
<path d="M79.4359 73.9916V87.0122L39.455 109.98V96.9597L79.4359 73.9916Z" fill="#B2EDD5"/>
<path d="M0 73.9296V86.9502L39.9809 109.918V96.8976L0 73.9296Z" fill="#83D4B9"/>
<g opacity="0.51">
<path d="M2.70917 79.7794V83.877L37.2726 103.736V99.6383L2.70917 79.7794Z" fill="white"/>
</g>
<path d="M39.9809 96.1518L0.650096 73.5522L0 73.9296L39.9809 96.8976L79.9618 73.9296L79.3117 73.5522L39.9809 96.1518Z" fill="white"/>
<path d="M74.0193 82.99V85.3173L46.0291 101.402V99.0748L74.0193 82.99Z" fill="#453C9E"/>
<path opacity="0.51" d="M2.50843e-05 73.9916V87.0122L39.9809 109.98V96.9597L2.50843e-05 73.9916Z" fill="#B2EDD5"/>
<path d="M28.3068 96.2056L21.0745 92.0452L21.0655 92.9078L28.3068 97.0683V96.2056Z" fill="#DE2328"/>
<path d="M20.0273 91.4521L18.0679 90.3289V91.1825L20.0273 92.3147V91.4521Z" fill="white"/>
<path d="M10.8353 86.1774L6.82635 83.868V84.7307L10.8353 87.0311V86.1774Z" fill="#FCB513"/>
<path d="M14.5008 88.2801L11.5934 86.6088V87.4714L14.5008 89.1428V88.2801Z" fill="white"/>
<path d="M17.2186 89.8436L15.2593 88.7204V89.5741L17.2186 90.7063V89.8436Z" fill="#FCB513"/>
<path d="M40.0175 62.9579L38.7534 62.23L40.0175 61.5021L41.2906 62.23L40.0175 62.9579Z" fill="white"/>
<path opacity="0.1" d="M42.5634 64.4225L41.2903 63.6857L42.5634 62.9578L43.8275 63.6857L42.5634 64.4225Z" fill="white"/>
<path opacity="0.4" d="M45.1004 65.8782L43.8273 65.1503L45.1004 64.4225L46.3644 65.1503L45.1004 65.8782Z" fill="white"/>
<path d="M47.6379 67.334L46.3647 66.6061L47.6379 65.8782L48.911 66.6061L47.6379 67.334Z" fill="white"/>
<path opacity="0.4" d="M50.1755 68.7987L48.9114 68.0708L50.1755 67.334L51.4486 68.0708L50.1755 68.7987Z" fill="white"/>
<path d="M52.7115 70.2544L51.4474 69.5265L52.7115 68.7986L53.9846 69.5265L52.7115 70.2544Z" fill="white"/>
<path d="M55.2585 71.7101L53.9854 70.9823L55.2585 70.2544L56.5225 70.9823L55.2585 71.7101Z" fill="white"/>
<path d="M57.7954 73.1748L56.5223 72.4469L57.7954 71.7101L59.0595 72.4469L57.7954 73.1748Z" fill="white"/>
<path opacity="0.1" d="M60.3329 74.6305L59.0598 73.9027L60.3329 73.1748L61.606 73.9027L60.3329 74.6305Z" fill="white"/>
<path d="M37.4705 64.4225L36.1974 63.6947L37.4705 62.9668L38.7436 63.6947L37.4705 64.4225Z" fill="white"/>
<path d="M40.0082 65.8872L38.7441 65.1503L40.0082 64.4225L41.2813 65.1503L40.0082 65.8872Z" fill="white"/>
<path d="M42.5547 67.3429L41.2816 66.6151L42.5547 65.8872L43.8187 66.6151L42.5547 67.3429Z" fill="white"/>
<path d="M45.0912 68.7986L43.8181 68.0708L45.0912 67.3429L46.3552 68.0708L45.0912 68.7986Z" fill="white"/>
<path d="M47.6296 70.2633L46.3564 69.5355L47.6296 68.7986L48.9027 69.5355L47.6296 70.2633Z" fill="white"/>
<path d="M50.1662 71.719L48.9022 70.9912L50.1662 70.2633L51.4393 70.9912L50.1662 71.719Z" fill="white"/>
<path d="M52.7027 73.1748L51.4387 72.447L52.7027 71.7191L53.9758 72.447L52.7027 73.1748Z" fill="white"/>
<path d="M55.2497 74.6395L53.9766 73.9117L55.2497 73.1748L56.5137 73.9117L55.2497 74.6395Z" fill="white"/>
<path d="M57.7862 76.0952L56.5131 75.3673L57.7862 74.6395L59.0502 75.3673L57.7862 76.0952Z" fill="white"/>
<path d="M34.9253 65.8872L33.6522 65.1594L34.9253 64.4315L36.1893 65.1594L34.9253 65.8872Z" fill="white"/>
<path d="M37.4613 67.3519L36.1882 66.6241L37.4613 65.8872L38.7344 66.6241L37.4613 67.3519Z" fill="white"/>
<path d="M39.9989 68.8076L38.7349 68.0797L39.9989 67.3519L41.272 68.0797L39.9989 68.8076Z" fill="white"/>
<path opacity="0.1" d="M42.5359 70.2633L41.2718 69.5354L42.5359 68.8076L43.809 69.5354L42.5359 70.2633Z" fill="white"/>
<path opacity="0.4" d="M45.0733 71.728L43.8093 71.0002L45.0733 70.2633L46.3464 71.0002L45.0733 71.728Z" fill="white"/>
<path opacity="0.4" d="M47.6203 73.1838L46.3472 72.4559L47.6203 71.7281L48.8843 72.4559L47.6203 73.1838Z" fill="white"/>
<path d="M50.1568 74.6485L48.8837 73.9116L50.1568 73.1838L51.4208 73.9116L50.1568 74.6485Z" fill="white"/>
<path d="M52.6939 76.1042L51.4299 75.3763L52.6939 74.6484L53.9671 75.3763L52.6939 76.1042Z" fill="white"/>
<path d="M55.2314 77.5598L53.9673 76.832L55.2314 76.1041L56.5045 76.832L55.2314 77.5598Z" fill="white"/>
<path opacity="0.4" d="M32.3695 67.3519L31.1055 66.624L32.3695 65.8962L33.6426 66.624L32.3695 67.3519Z" fill="white"/>
<path opacity="0.4" d="M34.916 68.8166L33.6429 68.0887L34.916 67.3519L36.1801 68.0887L34.916 68.8166Z" fill="white"/>
<path opacity="0.1" d="M37.4525 70.2723L36.1794 69.5444L37.4525 68.8166L38.7166 69.5444L37.4525 70.2723Z" fill="white"/>
<path d="M39.9904 71.7281L38.7173 71.0003L39.9904 70.2724L41.2635 71.0003L39.9904 71.7281Z" fill="white"/>
<path d="M42.5271 73.1928L41.263 72.4649L42.5271 71.7281L43.8002 72.4649L42.5271 73.1928Z" fill="white"/>
<path d="M45.0646 74.6485L43.8005 73.9206L45.0646 73.1927L46.3377 73.9206L45.0646 74.6485Z" fill="white"/>
<path opacity="0.4" d="M47.611 76.1042L46.3379 75.3763L47.611 74.6484L48.8751 75.3763L47.611 76.1042Z" fill="white"/>
<path d="M50.148 77.5688L48.8749 76.841L50.148 76.1041L51.4121 76.841L50.148 77.5688Z" fill="white"/>
<path d="M52.6849 79.0246L51.4118 78.2967L52.6849 77.5688L53.958 78.2967L52.6849 79.0246Z" fill="white"/>
<path d="M29.8236 68.8166L28.5505 68.0888L29.8236 67.3609L31.0967 68.0888L29.8236 68.8166Z" fill="white"/>
<path d="M32.3612 70.2813L31.0972 69.5534L32.3612 68.8166L33.6344 69.5534L32.3612 70.2813Z" fill="white"/>
<path d="M34.8977 71.7371L33.6336 71.0092L34.8977 70.2814L36.1708 71.0092L34.8977 71.7371Z" fill="white"/>
<path d="M37.4432 73.2018L36.1701 72.4649L37.4432 71.7371L38.7073 72.4649L37.4432 73.2018Z" fill="white"/>
<path d="M39.9816 74.6574L38.7085 73.9296L39.9816 73.2017L41.2457 73.9296L39.9816 74.6574Z" fill="white"/>
<path d="M42.5179 76.1132L41.2538 75.3853L42.5179 74.6575L43.791 75.3853L42.5179 76.1132Z" fill="white"/>
<path d="M45.0553 77.5689L43.7912 76.8411L45.0553 76.1132L46.3284 76.8411L45.0553 77.5689Z" fill="white"/>
<path d="M47.6022 79.0336L46.3291 78.3057L47.6022 77.5688L48.8663 78.3057L47.6022 79.0336Z" fill="white"/>
<path d="M50.1392 80.4893L48.8661 79.7615L50.1392 79.0336L51.4033 79.7615L50.1392 80.4893Z" fill="white"/>
<path d="M27.2768 70.2813L26.0037 69.5534L27.2768 68.8256L28.5409 69.5534L27.2768 70.2813Z" fill="white"/>
<path d="M29.8143 71.7461L28.5412 71.0182L29.8143 70.2814L31.0784 71.0182L29.8143 71.7461Z" fill="white"/>
<path opacity="0.4" d="M32.3522 73.2018L31.0791 72.4739L32.3522 71.746L33.6253 72.4739L32.3522 73.2018Z" fill="white"/>
<path d="M34.8885 74.6574L33.6244 73.9296L34.8885 73.2017L36.1616 73.9296L34.8885 74.6574Z" fill="white"/>
<path opacity="0.1" d="M37.4254 76.1222L36.1613 75.3943L37.4254 74.6575L38.6985 75.3943L37.4254 76.1222Z" fill="white"/>
<path d="M39.9723 77.5779L38.6992 76.85L39.9723 76.1221L41.2364 76.85L39.9723 77.5779Z" fill="white"/>
<path d="M42.5088 79.0426L41.2357 78.3057L42.5088 77.5779L43.7729 78.3057L42.5088 79.0426Z" fill="white"/>
<path d="M45.0457 80.4983L43.7726 79.7704L45.0457 79.0425L46.3189 79.7704L45.0457 80.4983Z" fill="white"/>
<path d="M47.5834 81.9541L46.3193 81.2263L47.5834 80.4984L48.8565 81.2263L47.5834 81.9541Z" fill="white"/>
<path d="M24.7221 71.7461L23.458 71.0182L24.7221 70.2903L25.9952 71.0182L24.7221 71.7461Z" fill="white"/>
<path d="M27.2676 73.2107L25.9945 72.4829L27.2676 71.746L28.5317 72.4829L27.2676 73.2107Z" fill="white"/>
<path opacity="0.4" d="M29.805 74.6665L28.5319 73.9386L29.805 73.2108L31.0691 73.9386L29.805 74.6665Z" fill="white"/>
<path d="M32.3429 76.1312L31.0698 75.3944L32.3429 74.6665L33.616 75.3944L32.3429 76.1312Z" fill="white"/>
<path d="M34.8797 77.5868L33.6156 76.859L34.8797 76.1311L36.1528 76.859L34.8797 77.5868Z" fill="white"/>
<path opacity="0.1" d="M37.4166 79.0425L36.1525 78.3147L37.4166 77.5868L38.6897 78.3147L37.4166 79.0425Z" fill="white"/>
<path opacity="0.4" d="M39.9626 80.4983L38.6895 79.7704L39.9626 79.0425L41.2266 79.7704L39.9626 80.4983Z" fill="white"/>
<path d="M42.5 81.9631L41.2269 81.2353L42.5 80.4984L43.7641 81.2353L42.5 81.9631Z" fill="white"/>
<path opacity="0.1" d="M45.037 83.4187L43.7639 82.6909L45.037 81.963L46.3101 82.6909L45.037 83.4187Z" fill="white"/>
<path d="M22.1756 73.2108L20.9025 72.4829L22.1756 71.7551L23.4487 72.4829L22.1756 73.2108Z" fill="white"/>
<path opacity="0.4" d="M24.7133 74.6755L23.4492 73.9476L24.7133 73.2108L25.9864 73.9476L24.7133 74.6755Z" fill="white"/>
<path d="M27.2498 76.1311L25.9857 75.4033L27.2498 74.6754L28.5229 75.4033L27.2498 76.1311Z" fill="white"/>
<path d="M29.7962 77.5958L28.5231 76.859L29.7962 76.1311L31.0603 76.859L29.7962 77.5958Z" fill="white"/>
<path d="M32.3332 79.0515L31.0601 78.3237L32.3332 77.5958L33.5972 78.3237L32.3332 79.0515Z" fill="white"/>
<path d="M34.8711 80.5074L33.598 79.7795L34.8711 79.0516L36.1442 79.7795L34.8711 80.5074Z" fill="white"/>
<path d="M37.4068 81.972L36.1428 81.2352L37.4068 80.5073L38.6799 81.2352L37.4068 81.972Z" fill="white"/>
<path opacity="0.4" d="M39.9448 83.4277L38.6807 82.6998L39.9448 81.972L41.2179 82.6998L39.9448 83.4277Z" fill="white"/>
<path d="M42.4912 84.8834L41.2181 84.1555L42.4912 83.4277L43.7553 84.1555L42.4912 84.8834Z" fill="white"/>
<path d="M19.6294 74.6754L18.3563 73.9476L19.6294 73.2197L20.8935 73.9476L19.6294 74.6754Z" fill="white"/>
<path opacity="0.1" d="M22.1668 76.1401L20.8937 75.4123L22.1668 74.6754L23.4309 75.4123L22.1668 76.1401Z" fill="white"/>
<path d="M24.7033 77.5959L23.4302 76.8681L24.7033 76.1402L25.9764 76.8681L24.7033 77.5959Z" fill="white"/>
<path d="M27.241 79.0515L25.9769 78.3237L27.241 77.5958L28.5141 78.3237L27.241 79.0515Z" fill="white"/>
<path d="M29.7774 80.5163L28.5134 79.7885L29.7774 79.0516L31.0505 79.7885L29.7774 80.5163Z" fill="white"/>
<path d="M32.3244 81.972L31.0513 81.2442L32.3244 80.5163L33.5885 81.2442L32.3244 81.972Z" fill="white"/>
<path opacity="0.4" d="M34.8619 83.4367L33.5887 82.6998L34.8619 81.972L36.135 82.6998L34.8619 83.4367Z" fill="white"/>
<path d="M37.398 84.8924L36.134 84.1646L37.398 83.4367L38.6712 84.1646L37.398 84.8924Z" fill="white"/>
<path d="M39.9355 86.3482L38.6714 85.6203L39.9355 84.8925L41.2086 85.6203L39.9355 86.3482Z" fill="white"/>
<path d="M39.9809 74.945L0 51.968L39.9809 29L79.9618 51.977L39.9809 74.945Z" fill="#D2D1F9"/>
<path d="M39.9809 68.6728L10.9162 51.968L39.9809 35.2722L69.0456 51.968L39.9809 68.6728Z" fill="#453C9E"/>
<path d="M39.9809 36.4044L68.0615 52.5341L69.0456 51.968L39.9809 35.2722L10.9162 51.968L11.9004 52.5341L39.9809 36.4044Z" fill="white"/>
<path d="M79.9613 51.9771V64.9887L39.9804 87.9657V74.9451L79.9613 51.9771Z" fill="#D2D1F9"/>
<path d="M0 51.968V64.9886L39.9809 87.9656V74.945L0 51.968Z" fill="#24126A"/>
<g opacity="0.51">
<path d="M2.70917 57.8179V61.9244L37.2726 81.7833V77.6768L2.70917 57.8179Z" fill="#453C9E"/>
</g>
<path d="M39.9809 74.1991L0.650096 51.5995L0 51.968L39.9809 74.945L79.9618 51.977L79.3117 51.5995L39.9809 74.1991Z" fill="white"/>
<path d="M74.0193 60.9031V63.2305L46.0291 79.3153V76.979L74.0193 60.9031Z" fill="#4150B3"/>
<path opacity="0.51" d="M0 51.968V64.9886L39.9809 87.9656V74.945L0 51.968Z" fill="#453C9E"/>
<path d="M28.3068 74.2531L21.0745 70.0927L21.0655 70.9553L28.3068 75.1068V74.2531Z" fill="#FCB513"/>
<path d="M20.0273 69.4996L18.0679 68.3763V69.23L20.0273 70.3622V69.4996Z" fill="#FCB513"/>
<path d="M10.8353 64.2248L6.82635 61.9154V62.7781L10.8353 65.0785V64.2248Z" fill="white"/>
<path d="M14.5008 66.3276L11.5934 64.6562V65.5188L14.5008 67.1812V66.3276Z" fill="#FCB513"/>
<path d="M17.2186 67.8911L15.2593 66.7589V67.6216L17.2186 68.7538V67.8911Z" fill="white"/>
<path d="M40.0175 41.0052L38.7534 40.2774L40.0175 39.5495L41.2906 40.2774L40.0175 41.0052Z" fill="#FCB513"/>
<path opacity="0.1" d="M42.5634 42.461L41.2903 41.7331L42.5634 41.0052L43.8275 41.7331L42.5634 42.461Z" fill="white"/>
<path opacity="0.4" d="M45.1004 43.9255L43.8273 43.1977L45.1004 42.4608L46.3644 43.1977L45.1004 43.9255Z" fill="white"/>
<path d="M47.6379 45.3814L46.3647 44.6535L47.6379 43.9257L48.911 44.6535L47.6379 45.3814Z" fill="#FCB513"/>
<path opacity="0.4" d="M50.1755 46.846L48.9114 46.1091L50.1755 45.3813L51.4486 46.1091L50.1755 46.846Z" fill="white"/>
<path d="M52.7115 48.3018L51.4474 47.5739L52.7115 46.8461L53.9846 47.5739L52.7115 48.3018Z" fill="white"/>
<path d="M55.2585 49.7575L53.9854 49.0297L55.2585 48.3018L56.5225 49.0297L55.2585 49.7575Z" fill="white"/>
<path d="M57.7954 51.2221L56.5223 50.4852L57.7954 49.7574L59.0595 50.4852L57.7954 51.2221Z" fill="white"/>
<path opacity="0.1" d="M60.3329 52.6779L59.0598 51.9501L60.3329 51.2222L61.606 51.9501L60.3329 52.6779Z" fill="white"/>
<path d="M37.4705 42.4698L36.1974 41.742L37.4705 41.0141L38.7436 41.742L37.4705 42.4698Z" fill="white"/>
<path d="M40.0082 43.9256L38.7441 43.1977L40.0082 42.4698L41.2813 43.1977L40.0082 43.9256Z" fill="white"/>
<path d="M42.5547 45.3904L41.2816 44.6625L42.5547 43.9257L43.8187 44.6625L42.5547 45.3904Z" fill="white"/>
<path d="M45.0912 46.8461L43.8181 46.1182L45.0912 45.3904L46.3552 46.1182L45.0912 46.8461Z" fill="white"/>
<path d="M47.6296 48.3108L46.3564 47.5739L47.6296 46.8461L48.9027 47.5739L47.6296 48.3108Z" fill="white"/>
<path d="M50.1662 49.7664L48.9022 49.0385L50.1662 48.3107L51.4393 49.0385L50.1662 49.7664Z" fill="#FCB513"/>
<path d="M52.7027 51.2221L51.4387 50.4943L52.7027 49.7664L53.9758 50.4943L52.7027 51.2221Z" fill="white"/>
<path d="M55.2497 52.6869L53.9766 51.9501L55.2497 51.2222L56.5137 51.9501L55.2497 52.6869Z" fill="#FCB513"/>
<path d="M57.7862 54.1426L56.5131 53.4147L57.7862 52.6869L59.0502 53.4147L57.7862 54.1426Z" fill="white"/>
<path d="M34.9253 43.9347L33.6522 43.2068L34.9253 42.4789L36.1893 43.2068L34.9253 43.9347Z" fill="white"/>
<path d="M37.4613 45.3993L36.1882 44.6625L37.4613 43.9346L38.7344 44.6625L37.4613 45.3993Z" fill="#FCB513"/>
<path d="M39.9989 46.8551L38.7349 46.1272L39.9989 45.3994L41.272 46.1272L39.9989 46.8551Z" fill="white"/>
<path opacity="0.1" d="M42.5359 48.3108L41.2718 47.5829L42.5359 46.855L43.809 47.5829L42.5359 48.3108Z" fill="white"/>
<path opacity="0.4" d="M45.0733 49.7754L43.8093 49.0385L45.0733 48.3107L46.3464 49.0385L45.0733 49.7754Z" fill="white"/>
<path opacity="0.4" d="M47.6203 51.2312L46.3472 50.5034L47.6203 49.7755L48.8843 50.5034L47.6203 51.2312Z" fill="white"/>
<path d="M50.1568 52.6869L48.8837 51.9591L50.1568 51.2312L51.4208 51.9591L50.1568 52.6869Z" fill="white"/>
<path d="M52.6939 54.1516L51.4299 53.4237L52.6939 52.6869L53.9671 53.4237L52.6939 54.1516Z" fill="white"/>
<path d="M55.2314 55.6073L53.9673 54.8795L55.2314 54.1516L56.5045 54.8795L55.2314 55.6073Z" fill="white"/>
<path opacity="0.4" d="M32.3695 45.3993L31.1055 44.6715L32.3695 43.9436L33.6426 44.6715L32.3695 45.3993Z" fill="white"/>
<path opacity="0.4" d="M34.916 46.8641L33.6429 46.1272L34.916 45.3994L36.1801 46.1272L34.916 46.8641Z" fill="white"/>
<path opacity="0.1" d="M37.4525 48.3197L36.1794 47.5918L37.4525 46.864L38.7166 47.5918L37.4525 48.3197Z" fill="white"/>
<path d="M39.9904 49.7755L38.7173 49.0476L39.9904 48.3198L41.2635 49.0476L39.9904 49.7755Z" fill="white"/>
<path d="M42.5271 51.2402L41.263 50.5034L42.5271 49.7755L43.8002 50.5034L42.5271 51.2402Z" fill="#FCB513"/>
<path d="M45.0646 52.6958L43.8005 51.968L45.0646 51.2401L46.3377 51.968L45.0646 52.6958Z" fill="white"/>
<path opacity="0.4" d="M47.611 54.1516L46.3379 53.4238L47.611 52.6959L48.8751 53.4238L47.611 54.1516Z" fill="white"/>
<path d="M50.148 55.6163L48.8749 54.8795L50.148 54.1516L51.4121 54.8795L50.148 55.6163Z" fill="white"/>
<path d="M52.6849 57.0721L51.4118 56.3442L52.6849 55.6163L53.958 56.3442L52.6849 57.0721Z" fill="white"/>
<path d="M29.8236 46.864L28.5505 46.1362L29.8236 45.4083L31.0967 46.1362L29.8236 46.864Z" fill="white"/>
<path d="M32.3612 48.3197L31.0972 47.5918L32.3612 46.864L33.6344 47.5918L32.3612 48.3197Z" fill="#FCB513"/>
<path d="M34.8977 49.7845L33.6336 49.0566L34.8977 48.3198L36.1708 49.0566L34.8977 49.7845Z" fill="white"/>
<path d="M37.4432 51.2402L36.1701 50.5123L37.4432 49.7845L38.7073 50.5123L37.4432 51.2402Z" fill="white"/>
<path d="M39.9816 52.7048L38.7085 51.968L39.9816 51.2401L41.2457 51.968L39.9816 52.7048Z" fill="white"/>
<path d="M42.5179 54.1606L41.2538 53.4328L42.5179 52.7049L43.791 53.4328L42.5179 54.1606Z" fill="white"/>
<path d="M45.0553 55.6163L43.7912 54.8884L45.0553 54.1606L46.3284 54.8884L45.0553 55.6163Z" fill="white"/>
<path d="M47.6022 57.081L46.3291 56.3442L47.6022 55.6163L48.8663 56.3442L47.6022 57.081Z" fill="white"/>
<path d="M50.1392 58.5367L48.8661 57.8089L50.1392 57.081L51.4033 57.8089L50.1392 58.5367Z" fill="#FCB513"/>
<path d="M27.2768 48.3288L26.0037 47.6009L27.2768 46.873L28.5409 47.6009L27.2768 48.3288Z" fill="#FCB513"/>
<path d="M29.8143 49.7934L28.5412 49.0566L29.8143 48.3287L31.0784 49.0566L29.8143 49.7934Z" fill="white"/>
<path opacity="0.4" d="M32.3522 51.2491L31.0791 50.5212L32.3522 49.7933L33.6253 50.5212L32.3522 51.2491Z" fill="white"/>
<path d="M34.8885 52.7048L33.6244 51.9769L34.8885 51.2491L36.1616 51.9769L34.8885 52.7048Z" fill="white"/>
<path opacity="0.1" d="M37.4254 54.1696L36.1613 53.4328L37.4254 52.7049L38.6985 53.4328L37.4254 54.1696Z" fill="white"/>
<path d="M39.9723 55.6253L38.6992 54.8975L39.9723 54.1696L41.2364 54.8975L39.9723 55.6253Z" fill="white"/>
<path d="M42.5088 57.081L41.2357 56.3532L42.5088 55.6253L43.7729 56.3532L42.5088 57.081Z" fill="white"/>
<path d="M45.0457 58.5457L43.7726 57.8089L45.0457 57.081L46.3189 57.8089L45.0457 58.5457Z" fill="#FCB513"/>
<path d="M47.5834 60.0014L46.3193 59.2735L47.5834 58.5457L48.8565 59.2735L47.5834 60.0014Z" fill="white"/>
<path d="M24.7221 49.7934L23.458 49.0655L24.7221 48.3376L25.9952 49.0655L24.7221 49.7934Z" fill="white"/>
<path d="M27.2676 51.258L25.9945 50.5212L27.2676 49.7933L28.5317 50.5212L27.2676 51.258Z" fill="white"/>
<path opacity="0.4" d="M29.805 52.7139L28.5319 51.986L29.805 51.2582L31.0691 51.986L29.805 52.7139Z" fill="white"/>
<path d="M32.3429 54.1696L31.0698 53.4417L32.3429 52.7139L33.616 53.4417L32.3429 54.1696Z" fill="white"/>
<path d="M34.8797 55.6343L33.6156 54.8975L34.8797 54.1696L36.1528 54.8975L34.8797 55.6343Z" fill="#FCB513"/>
<path opacity="0.1" d="M37.4166 57.09L36.1525 56.3621L37.4166 55.6343L38.6897 56.3621L37.4166 57.09Z" fill="white"/>
<path opacity="0.4" d="M39.9626 58.5457L38.6895 57.8178L39.9626 57.09L41.2266 57.8178L39.9626 58.5457Z" fill="white"/>
<path d="M42.5 60.0104L41.2269 59.2825L42.5 58.5457L43.7641 59.2825L42.5 60.0104Z" fill="white"/>
<path opacity="0.1" d="M45.037 61.4661L43.7639 60.7382L45.037 60.0104L46.3101 60.7382L45.037 61.4661Z" fill="white"/>
<path d="M22.1756 51.2581L20.9025 50.5303L22.1756 49.8024L23.4487 50.5303L22.1756 51.2581Z" fill="#FCB513"/>
<path opacity="0.4" d="M24.7133 52.7229L23.4492 51.986L24.7133 51.2582L25.9864 51.986L24.7133 52.7229Z" fill="white"/>
<path d="M27.2498 54.1786L25.9857 53.4507L27.2498 52.7228L28.5229 53.4507L27.2498 54.1786Z" fill="white"/>
<path d="M29.7962 55.6343L28.5231 54.9064L29.7962 54.1786L31.0603 54.9064L29.7962 55.6343Z" fill="white"/>
<path d="M32.3332 57.099L31.0601 56.3621L32.3332 55.6343L33.5972 56.3621L32.3332 57.099Z" fill="white"/>
<path d="M34.8711 58.5547L33.598 57.8269L34.8711 57.099L36.1442 57.8269L34.8711 58.5547Z" fill="#FCB513"/>
<path d="M37.4068 60.0105L36.1428 59.2826L37.4068 58.5547L38.6799 59.2826L37.4068 60.0105Z" fill="white"/>
<path opacity="0.4" d="M39.9448 61.4751L38.6807 60.7472L39.9448 60.0104L41.2179 60.7472L39.9448 61.4751Z" fill="white"/>
<path d="M42.4912 62.9309L41.2181 62.203L42.4912 61.4752L43.7553 62.203L42.4912 62.9309Z" fill="white"/>
<path d="M19.6294 52.7227L18.3563 51.9949L19.6294 51.267L20.8935 51.9949L19.6294 52.7227Z" fill="white"/>
<path opacity="0.1" d="M22.1668 54.1875L20.8937 53.4507L22.1668 52.7228L23.4309 53.4507L22.1668 54.1875Z" fill="white"/>
<path d="M24.7033 55.6433L23.4302 54.9154L24.7033 54.1876L25.9764 54.9154L24.7033 55.6433Z" fill="white"/>
<path d="M27.241 57.0989L25.9769 56.371L27.241 55.6432L28.5141 56.371L27.241 57.0989Z" fill="#FCB513"/>
<path d="M29.7774 58.5637L28.5134 57.8358L29.7774 57.099L31.0505 57.8358L29.7774 58.5637Z" fill="white"/>
<path d="M32.3244 60.0194L31.0513 59.2915L32.3244 58.5637L33.5885 59.2915L32.3244 60.0194Z" fill="white"/>
<path opacity="0.4" d="M34.8619 61.4751L33.5887 60.7473L34.8619 60.0194L36.135 60.7473L34.8619 61.4751Z" fill="white"/>
<path d="M37.398 62.9399L36.134 62.203L37.398 61.4752L38.6712 62.203L37.398 62.9399Z" fill="white"/>
<path d="M39.9355 64.3956L38.6714 63.6677L39.9355 62.9399L41.2086 63.6677L39.9355 64.3956Z" fill="#FCB513"/>
<path opacity="0.7" d="M12.2333 140.851C11.8815 140.863 11.5328 140.782 11.2221 140.618L3.46604 136.125C3.33662 136.061 3.22658 135.964 3.14723 135.844C3.06788 135.724 3.0221 135.585 3.01459 135.442C3.03167 135.26 3.09662 135.087 3.20286 134.938C3.3091 134.79 3.45284 134.672 3.61954 134.597L11.0686 130.329C11.4165 130.13 11.8077 130.018 12.2087 130.002C12.6096 129.986 13.0085 130.068 13.371 130.239L21.127 134.732C21.2564 134.795 21.3665 134.892 21.4458 135.012C21.5252 135.132 21.5709 135.271 21.5784 135.415C21.5614 135.596 21.4964 135.77 21.3902 135.918C21.2839 136.066 21.1402 136.184 20.9735 136.259L13.5245 140.537C13.1286 140.751 12.6838 140.859 12.2333 140.851ZM12.3597 130.392C11.9726 130.387 11.5905 130.479 11.2491 130.661L3.80012 134.938C3.52925 135.1 3.37575 135.298 3.37575 135.478C3.38484 135.558 3.4145 135.635 3.46191 135.701C3.50932 135.767 3.5729 135.82 3.64663 135.855L11.4026 140.303C11.7109 140.438 12.0462 140.501 12.3827 140.487C12.7192 140.473 13.0481 140.382 13.3439 140.222L20.82 135.936C21.0909 135.783 21.2444 135.585 21.2444 135.406C21.2361 135.325 21.2068 135.247 21.1593 135.181C21.1118 135.115 21.0477 135.062 20.9735 135.028L13.2175 130.535C12.9476 130.419 12.6531 130.369 12.3597 130.392Z" fill="#B2EDD5"/>
<path opacity="0.7" d="M90.0292 131.107C89.6738 131.115 89.3223 131.032 89.0089 130.864L81.2619 126.372C81.1289 126.309 81.0157 126.212 80.9345 126.09C80.8533 125.968 80.8073 125.826 80.8015 125.68C80.8212 125.498 80.8882 125.324 80.9958 125.176C81.1035 125.028 81.2481 124.91 81.4154 124.835L88.8645 120.558C89.2123 120.363 89.6015 120.253 90.0003 120.238C90.399 120.222 90.7957 120.301 91.1579 120.468L98.9139 124.961C99.0456 125.022 99.158 125.118 99.2391 125.239C99.3202 125.359 99.3669 125.499 99.3743 125.644C99.3564 125.826 99.2901 126 99.1822 126.149C99.0743 126.297 98.9287 126.414 98.7604 126.488L91.3113 130.775C90.9182 130.989 90.4777 131.104 90.0292 131.107ZM89.1895 130.559C89.4984 130.693 89.8341 130.754 90.1706 130.739C90.5072 130.723 90.8356 130.631 91.1308 130.469L98.5798 126.192C98.6912 126.145 98.7892 126.071 98.8648 125.977C98.9405 125.883 98.9914 125.771 99.0132 125.653C99.0035 125.572 98.9725 125.496 98.9233 125.431C98.8741 125.366 98.8085 125.315 98.7333 125.284L90.9773 120.791C90.6688 120.655 90.3329 120.593 89.996 120.609C89.6591 120.624 89.3305 120.717 89.036 120.881L81.587 125.158C81.3251 125.311 81.1626 125.509 81.1626 125.689C81.1726 125.77 81.2036 125.848 81.2526 125.914C81.3017 125.98 81.3671 126.032 81.4425 126.066L89.1895 130.559Z" fill="#B2EDD5"/>
<g clip-path="url(#clip0_41_1578)">
<path d="M37.3414 27.3333V38.091C37.3414 38.3351 37.2958 38.5763 37.2077 38.7974C37.1197 39.0185 36.9913 39.2142 36.8317 39.3707C36.6721 39.5271 36.4852 39.6404 36.2842 39.7026C36.0832 39.7648 35.873 39.7744 35.6685 39.7307L24.3163 37.3065C23.9893 37.2366 23.6936 37.0342 23.4807 36.7346C23.2678 36.4349 23.1511 36.057 23.1511 35.6667V27.3333C23.1511 26.8913 23.3006 26.4674 23.5668 26.1548C23.8329 25.8423 24.1938 25.6667 24.5702 25.6667H35.9224C36.2987 25.6667 36.6597 25.8423 36.9258 26.1548C37.1919 26.4674 37.3414 26.8913 37.3414 27.3333ZM36.8316 8.62957C36.6721 8.47309 36.4852 8.35971 36.2842 8.29746C36.0832 8.23522 35.873 8.22562 35.6685 8.26937L24.3163 10.6936C23.9893 10.7634 23.6936 10.9658 23.4807 11.2655C23.2678 11.5651 23.1511 11.9431 23.1511 12.3334V20.6667C23.1511 21.1087 23.3006 21.5326 23.5668 21.8452C23.8329 22.1578 24.1938 22.3334 24.5702 22.3334H35.9224C36.2987 22.3334 36.6597 22.1578 36.9258 21.8452C37.1919 21.5326 37.3414 21.1087 37.3414 20.6667V9.90907C37.3414 9.66496 37.2958 9.42383 37.2077 9.20273C37.1196 8.98164 36.9912 8.78597 36.8316 8.62957ZM56.698 4.38713C56.5385 4.23067 56.3516 4.11731 56.1506 4.05506C55.9496 3.99282 55.7394 3.98321 55.5349 4.02692L41.3446 7.05731C41.0177 7.12712 40.722 7.32949 40.509 7.62914C40.2961 7.92879 40.1795 8.30672 40.1795 8.69702V20.6667C40.1795 21.1087 40.329 21.5326 40.5951 21.8452C40.8612 22.1578 41.2221 22.3334 41.5985 22.3334H55.7888C56.1651 22.3334 56.5261 22.1578 56.7922 21.8452C57.0583 21.5326 57.2078 21.1087 57.2078 20.6667V5.66673C57.2078 5.42261 57.1621 5.18146 57.074 4.96035C56.986 4.73924 56.8576 4.54356 56.698 4.38713ZM55.7888 25.6667H41.5985C41.2221 25.6667 40.8612 25.8423 40.5951 26.1548C40.329 26.4674 40.1795 26.8913 40.1795 27.3333V39.303C40.1795 39.6933 40.2961 40.0712 40.509 40.3709C40.722 40.6706 41.0177 40.8729 41.3446 40.9427L55.5349 43.9731C55.7394 44.0168 55.9496 44.0072 56.1506 43.9449C56.3515 43.8827 56.5384 43.7693 56.698 43.6129C56.8576 43.4565 56.986 43.2608 57.0741 43.0397C57.1621 42.8186 57.2078 42.5774 57.2078 42.3333V27.3333C57.2078 26.8913 57.0583 26.4674 56.7922 26.1548C56.5261 25.8423 56.1651 25.6667 55.7888 25.6667Z" fill="#69BCA8"/>
<path d="M35.3415 27.3333V38.091C35.3415 38.3351 35.2959 38.5763 35.2078 38.7974C35.1197 39.0185 34.9913 39.2142 34.8318 39.3707C34.6722 39.5271 34.4853 39.6404 34.2843 39.7026C34.0833 39.7648 33.8731 39.7744 33.6686 39.7307L22.3164 37.3065C21.9894 37.2366 21.6937 37.0342 21.4807 36.7346C21.2678 36.4349 21.1512 36.057 21.1512 35.6667V27.3333C21.1512 26.8913 21.3007 26.4674 21.5668 26.1548C21.8329 25.8423 22.1939 25.6667 22.5702 25.6667H33.9224C34.2988 25.6667 34.6597 25.8423 34.9258 26.1548C35.192 26.4674 35.3415 26.8913 35.3415 27.3333ZM34.8317 8.62957C34.6721 8.47309 34.4852 8.35971 34.2843 8.29746C34.0833 8.23522 33.8731 8.22562 33.6686 8.26937L22.3164 10.6936C21.9894 10.7634 21.6937 10.9658 21.4807 11.2655C21.2678 11.5651 21.1512 11.9431 21.1512 12.3334V20.6667C21.1512 21.1087 21.3007 21.5326 21.5668 21.8452C21.8329 22.1578 22.1939 22.3334 22.5702 22.3334H33.9224C34.2988 22.3334 34.6597 22.1578 34.9258 21.8452C35.192 21.5326 35.3415 21.1087 35.3415 20.6667V9.90907C35.3415 9.66496 35.2958 9.42383 35.2077 9.20273C35.1196 8.98164 34.9913 8.78597 34.8317 8.62957ZM54.6981 4.38713C54.5385 4.23067 54.3516 4.11731 54.1506 4.05506C53.9497 3.99282 53.7395 3.98321 53.535 4.02692L39.3447 7.05731C39.0177 7.12712 38.722 7.32949 38.5091 7.62914C38.2962 7.92879 38.1795 8.30672 38.1795 8.69702V20.6667C38.1795 21.1087 38.329 21.5326 38.5951 21.8452C38.8613 22.1578 39.2222 22.3334 39.5985 22.3334H53.7888C54.1652 22.3334 54.5261 22.1578 54.7922 21.8452C55.0583 21.5326 55.2079 21.1087 55.2079 20.6667V5.66673C55.2079 5.42261 55.1622 5.18146 55.0741 4.96035C54.986 4.73924 54.8576 4.54356 54.6981 4.38713ZM53.7888 25.6667H39.5985C39.2222 25.6667 38.8613 25.8423 38.5951 26.1548C38.329 26.4674 38.1795 26.8913 38.1795 27.3333V39.303C38.1795 39.6933 38.2962 40.0712 38.5091 40.3709C38.722 40.6706 39.0177 40.8729 39.3447 40.9427L53.535 43.9731C53.7395 44.0168 53.9496 44.0072 54.1506 43.9449C54.3516 43.8827 54.5385 43.7693 54.6981 43.6129C54.8576 43.4565 54.986 43.2608 55.0741 43.0397C55.1622 42.8186 55.2079 42.5774 55.2079 42.3333V27.3333C55.2079 26.8913 55.0583 26.4674 54.7922 26.1548C54.5261 25.8423 54.1652 25.6667 53.7888 25.6667Z" fill="#83D4B9"/>
<path d="M34.1102 28.1251V38.2104C34.1103 38.4392 34.069 38.6653 33.9893 38.8726C33.9097 39.08 33.7936 39.2634 33.6492 39.4101C33.5049 39.5567 33.3359 39.663 33.1541 39.7213C32.9723 39.7796 32.7822 39.7886 32.5972 39.7476L22.3302 37.4749C22.0345 37.4094 21.767 37.2197 21.5744 36.9387C21.3819 36.6578 21.2764 36.3035 21.2764 35.9376V28.1251C21.2764 27.7107 21.4116 27.3132 21.6523 27.0202C21.8929 26.7272 22.2194 26.5626 22.5598 26.5626H32.8268C33.1672 26.5626 33.4936 26.7272 33.7343 27.0202C33.975 27.3132 34.1102 27.7107 34.1102 28.1251ZM33.6492 10.5902C33.5049 10.4435 33.3359 10.3372 33.1541 10.2789C32.9723 10.2205 32.7822 10.2115 32.5973 10.2525L22.3302 12.5252C22.0345 12.5907 21.767 12.7804 21.5744 13.0614C21.3819 13.3423 21.2764 13.6966 21.2764 14.0626V21.8751C21.2764 22.2895 21.4116 22.6869 21.6523 22.9799C21.8929 23.2729 22.2194 23.4376 22.5598 23.4376H32.8268C33.1672 23.4376 33.4936 23.2729 33.7343 22.9799C33.975 22.6869 34.1102 22.2895 34.1102 21.8751V11.7898C34.1102 11.5609 34.0689 11.3349 33.9893 11.1276C33.9096 10.9203 33.7935 10.7369 33.6492 10.5902ZM51.6166 6.61294C51.4723 6.46626 51.3032 6.35998 51.1215 6.30162C50.9397 6.24327 50.7496 6.23426 50.5646 6.27524L37.7308 9.11624C37.4351 9.18168 37.1676 9.37141 36.9751 9.65233C36.7825 9.93325 36.677 10.2876 36.677 10.6535V21.8751C36.677 22.2895 36.8122 22.6869 37.0529 22.9799C37.2936 23.2729 37.62 23.4376 37.9604 23.4376H50.7942C51.1346 23.4376 51.461 23.2729 51.7017 22.9799C51.9424 22.6869 52.0776 22.2895 52.0776 21.8751V7.81256C52.0776 7.5837 52.0363 7.35763 51.9567 7.15033C51.877 6.94304 51.7609 6.75958 51.6166 6.61294ZM50.7942 26.5626H37.9604C37.62 26.5626 37.2936 26.7272 37.0529 27.0202C36.8122 27.3132 36.677 27.7107 36.677 28.1251V39.3467C36.677 39.7126 36.7825 40.0669 36.9751 40.3478C37.1676 40.6287 37.4351 40.8184 37.7308 40.8839L50.5646 43.7249C50.7496 43.7658 50.9397 43.7568 51.1214 43.6984C51.3032 43.6401 51.4722 43.5338 51.6166 43.3872C51.7609 43.2405 51.877 43.0571 51.9567 42.8498C52.0363 42.6425 52.0776 42.4164 52.0776 42.1876V28.1251C52.0776 27.7107 51.9424 27.3132 51.7017 27.0202C51.461 26.7272 51.1346 26.5626 50.7942 26.5626Z" fill="#B2EDD5"/>
</g>
<defs>
<clipPath id="clip0_41_1578">
<rect width="41.0683" height="50" fill="white" transform="translate(16.1428)"/>
</clipPath>
</defs>
</svg>
