<svg width="100" height="134" viewBox="0 0 100 134" fill="none" xmlns="http://www.w3.org/2000/svg">
<path d="M39.9804 130.106C39.3469 130.107 38.7241 129.943 38.1746 129.629L0.739861 108.108C0.627177 108.045 0.533436 107.953 0.468212 107.841C0.402989 107.73 0.368622 107.603 0.368622 107.475C0.368622 107.346 0.402989 107.219 0.468212 107.108C0.533436 106.997 0.627177 106.904 0.739861 106.841L39.9804 84.2953L40.0707 84.3493L79.2209 106.814C79.3313 106.879 79.4228 106.972 79.4863 107.083C79.5498 107.194 79.5832 107.32 79.5832 107.448C79.5832 107.575 79.5498 107.701 79.4863 107.812C79.4228 107.923 79.3313 108.016 79.2209 108.081L41.7682 129.647C41.2222 129.952 40.6061 130.11 39.9804 130.106ZM39.9804 84.7087L0.902385 107.156C0.844609 107.188 0.796545 107.235 0.763197 107.292C0.729849 107.348 0.712437 107.413 0.712774 107.479C0.713361 107.545 0.731162 107.609 0.764417 107.666C0.797671 107.723 0.845228 107.77 0.902385 107.803L38.3461 129.315C38.8381 129.595 39.3953 129.743 39.9623 129.743C40.5294 129.743 41.0866 129.595 41.5785 129.315L79.0403 107.803C79.0964 107.769 79.1427 107.722 79.1744 107.665C79.2061 107.608 79.2222 107.544 79.2209 107.479C79.2231 107.414 79.2075 107.349 79.1757 107.292C79.1439 107.235 79.0971 107.188 79.0403 107.156L39.9804 84.7087Z" fill="#B2EDD5"/>
<path opacity="0.7" d="M80.2688 93.9372C79.5753 93.9561 78.8884 93.7983 78.2734 93.4789L62.3009 84.2863C62.0488 84.182 61.8308 84.0099 61.6713 83.7893C61.5119 83.5687 61.4172 83.3083 61.3979 83.0373C61.4354 82.6963 61.5617 82.3709 61.7645 82.0935C61.9672 81.8161 62.2392 81.5963 62.5537 81.4557L77.9032 72.6226C78.5904 72.247 79.3558 72.0352 80.1392 72.004C80.9226 71.9728 81.7026 72.1231 82.4177 72.4429L98.4263 81.6355C98.6666 81.7499 98.8718 81.9259 99.021 82.1454C99.1701 82.3649 99.2579 82.6201 99.2751 82.8845C99.2368 83.2265 99.1091 83.5524 98.9047 83.8299C98.7004 84.1074 98.4265 84.3268 98.1103 84.466L82.7608 93.2992C81.9963 93.7145 81.1398 93.9337 80.2688 93.9372ZM80.5306 72.371C79.6953 72.3626 78.8717 72.5667 78.1379 72.9641L62.7884 81.7972C62.5302 81.9072 62.3048 82.0816 62.134 82.3035C61.9632 82.5254 61.8527 82.7874 61.8133 83.0642C61.8353 83.2593 61.9086 83.4452 62.0259 83.603C62.1433 83.7607 62.3004 83.8849 62.4814 83.9628L78.4539 93.2093C79.1199 93.5053 79.8458 93.6432 80.5745 93.612C81.3032 93.5808 82.0146 93.3814 82.6525 93.0296L98.002 84.1875C98.2619 84.0787 98.4892 83.9049 98.6616 83.6829C98.8341 83.4608 98.9459 83.1982 98.9861 82.9205C98.9616 82.7262 98.8872 82.5415 98.7702 82.3842C98.6532 82.2268 98.4975 82.102 98.318 82.0219L82.3365 72.7574C81.7809 72.4656 81.1585 72.3232 80.5306 72.344V72.371Z" fill="#B2EDD5"/>
<path d="M39.9811 112.119L0.000213623 89.1506L39.9811 66.1736L79.9621 89.1506L39.9811 112.119Z" fill="#C9D7F6"/>
<path d="M39.9807 105.578L10.916 88.8823L39.9807 72.1775L69.0454 88.8823L39.9807 105.578Z" fill="#4150B3"/>
<path d="M39.9807 73.3097L68.0612 89.4484L69.0454 88.8823L39.9807 72.1775L10.916 88.8823L11.9002 89.4484L39.9807 73.3097Z" fill="white"/>
<path d="M79.9614 88.8822V101.903L39.9804 124.871V111.85L79.9614 88.8822Z" fill="#C9D7F6"/>
<path d="M0 88.8822V101.903L39.9809 124.871V111.85L0 88.8822Z" fill="#4150B3"/>
<g opacity="0.51">
<path d="M2.70871 94.732V98.8296L37.2722 118.688V114.591L2.70871 94.732Z" fill="white"/>
</g>
<path d="M39.9809 111.104L0.650096 88.5048L0 88.8822L39.9809 111.85L79.9618 88.8822L79.3117 88.5048L39.9809 111.104Z" fill="white"/>
<path d="M74.0203 98.0768V100.413L46.0301 116.489V114.162L74.0203 98.0768Z" fill="#4150B3"/>
<path opacity="0.51" d="M0.322021 89V102.021L40.3029 124.989V111.968L0.322021 89Z" fill="#4150B3"/>
<path d="M28.3069 111.158L21.0746 106.998L21.0655 107.86L28.3069 112.021V111.158Z" fill="white"/>
<path d="M20.0268 106.414L18.0675 105.281V106.144L20.0268 107.267V106.414Z" fill="#FCB513"/>
<path d="M10.8348 101.13L6.8259 98.8295V99.6832L10.8348 101.993V101.13Z" fill="#FCB513"/>
<path d="M14.5005 103.233L11.5932 101.57V102.424L14.5005 104.095V103.233Z" fill="#FCB513"/>
<path d="M17.2186 104.796L15.2593 103.673V104.527L17.2186 105.659V104.796Z" fill="white"/>
<path d="M40.0168 77.9194L38.7527 77.1825L40.0168 76.4547L41.2899 77.1825L40.0168 77.9194Z" fill="white"/>
<path opacity="0.1" d="M42.5635 79.3752L41.2904 78.6473L42.5635 77.9194L43.8276 78.6473L42.5635 79.3752Z" fill="white"/>
<path opacity="0.4" d="M45.1002 80.8308L43.8271 80.1029L45.1002 79.3751L46.3643 80.1029L45.1002 80.8308Z" fill="white"/>
<path d="M47.6379 82.2956L46.3648 81.5587L47.6379 80.8309L48.911 81.5587L47.6379 82.2956Z" fill="white"/>
<path opacity="0.4" d="M50.1753 83.7513L48.9113 83.0234L50.1753 82.2955L51.4484 83.0234L50.1753 83.7513Z" fill="white"/>
<path d="M52.7118 85.2069L51.4477 84.4791L52.7118 83.7512L53.9849 84.4791L52.7118 85.2069Z" fill="white"/>
<path d="M55.258 86.6716L53.9849 85.9438L55.258 85.2069L56.5221 85.9438L55.258 86.6716Z" fill="white"/>
<path d="M57.7954 88.1274L56.5223 87.3995L57.7954 86.6717L59.0595 87.3995L57.7954 88.1274Z" fill="white"/>
<path opacity="0.1" d="M60.3324 89.5831L59.0593 88.8552L60.3324 88.1274L61.6055 88.8552L60.3324 89.5831Z" fill="white"/>
<path d="M37.4703 79.3841L36.1972 78.6473L37.4703 77.9194L38.7434 78.6473L37.4703 79.3841Z" fill="white"/>
<path d="M40.0078 80.8398L38.7437 80.112L40.0078 79.3841L41.2809 80.112L40.0078 80.8398Z" fill="white"/>
<path d="M42.554 82.2956L41.2809 81.5677L42.554 80.8398L43.8181 81.5677L42.554 82.2956Z" fill="white"/>
<path d="M45.0914 83.7602L43.8183 83.0324L45.0914 82.2955L46.3555 83.0324L45.0914 83.7602Z" fill="white"/>
<path d="M47.6289 85.2159L46.3558 84.4881L47.6289 83.7602L48.902 84.4881L47.6289 85.2159Z" fill="white"/>
<path d="M50.1661 86.6717L48.902 85.9439L50.1661 85.216L51.4392 85.9439L50.1661 86.6717Z" fill="white"/>
<path d="M52.7023 88.1364L51.4382 87.3995L52.7023 86.6717L53.9754 87.3995L52.7023 88.1364Z" fill="white"/>
<path d="M55.2492 89.5921L53.9761 88.8642L55.2492 88.1364L56.5133 88.8642L55.2492 89.5921Z" fill="white"/>
<path d="M57.7864 91.0478L56.5133 90.32L57.7864 89.5921L59.0505 90.32L57.7864 91.0478Z" fill="white"/>
<path d="M34.9251 80.8488L33.652 80.112L34.9251 79.3841L36.1892 80.112L34.9251 80.8488Z" fill="white"/>
<path d="M37.4615 82.3045L36.1884 81.5767L37.4615 80.8488L38.7346 81.5767L37.4615 82.3045Z" fill="white"/>
<path d="M39.9987 83.7602L38.7346 83.0324L39.9987 82.3045L41.2718 83.0324L39.9987 83.7602Z" fill="white"/>
<path opacity="0.1" d="M42.5359 85.2249L41.2719 84.497L42.5359 83.7602L43.809 84.497L42.5359 85.2249Z" fill="white"/>
<path opacity="0.4" d="M45.0734 86.6807L43.8093 85.9528L45.0734 85.225L46.3465 85.9528L45.0734 86.6807Z" fill="white"/>
<path opacity="0.4" d="M47.6198 88.1364L46.3467 87.4085L47.6198 86.6807L48.8839 87.4085L47.6198 88.1364Z" fill="white"/>
<path d="M50.157 89.6011L48.8839 88.8732L50.157 88.1364L51.4211 88.8732L50.157 89.6011Z" fill="white"/>
<path d="M52.6937 91.0568L51.4297 90.3289L52.6937 89.6011L53.9668 90.3289L52.6937 91.0568Z" fill="white"/>
<path d="M55.2312 92.5126L53.9671 91.7847L55.2312 91.0569L56.5043 91.7847L55.2312 92.5126Z" fill="white"/>
<path opacity="0.4" d="M32.3693 82.3135L31.1053 81.5767L32.3693 80.8488L33.6424 81.5767L32.3693 82.3135Z" fill="white"/>
<path opacity="0.4" d="M34.916 83.7693L33.6429 83.0415L34.916 82.3136L36.1801 83.0415L34.916 83.7693Z" fill="white"/>
<path opacity="0.1" d="M37.4523 85.2249L36.1792 84.4971L37.4523 83.7692L38.7164 84.4971L37.4523 85.2249Z" fill="white"/>
<path d="M39.99 86.6897L38.7169 85.9528L39.99 85.225L41.2631 85.9528L39.99 86.6897Z" fill="white"/>
<path d="M42.5274 88.1454L41.2633 87.4175L42.5274 86.6896L43.8005 87.4175L42.5274 88.1454Z" fill="white"/>
<path d="M45.0643 89.601L43.8003 88.8731L45.0643 88.1453L46.3374 88.8731L45.0643 89.601Z" fill="white"/>
<path opacity="0.4" d="M47.6108 91.0658L46.3377 90.3379L47.6108 89.6011L48.8749 90.3379L47.6108 91.0658Z" fill="white"/>
<path d="M50.148 92.5215L48.8749 91.7937L50.148 91.0658L51.4121 91.7937L50.148 92.5215Z" fill="white"/>
<path d="M52.6845 93.9773L51.4114 93.2494L52.6845 92.5215L53.9576 93.2494L52.6845 93.9773Z" fill="white"/>
<path d="M29.8231 83.7783L28.55 83.0415L29.8231 82.3136L31.0962 83.0415L29.8231 83.7783Z" fill="white"/>
<path d="M32.3605 85.234L31.0965 84.5061L32.3605 83.7783L33.6336 84.5061L32.3605 85.234Z" fill="white"/>
<path d="M34.898 86.6896L33.6339 85.9617L34.898 85.2339L36.1711 85.9617L34.898 86.6896Z" fill="white"/>
<path d="M37.4432 88.1543L36.1701 87.4265L37.4432 86.6896L38.7073 87.4265L37.4432 88.1543Z" fill="white"/>
<path d="M39.9809 89.6101L38.7078 88.8822L39.9809 88.1544L41.245 88.8822L39.9809 89.6101Z" fill="white"/>
<path d="M42.5181 91.0658L41.254 90.338L42.5181 89.6101L43.7912 90.338L42.5181 91.0658Z" fill="white"/>
<path d="M45.0551 92.5305L43.791 91.8026L45.0551 91.0658L46.3282 91.8026L45.0551 92.5305Z" fill="white"/>
<path d="M47.6015 93.9862L46.3284 93.2583L47.6015 92.5305L48.8656 93.2583L47.6015 93.9862Z" fill="white"/>
<path d="M50.1392 95.4419L48.8661 94.7141L50.1392 93.9862L51.4033 94.7141L50.1392 95.4419Z" fill="white"/>
<path d="M27.2766 85.243L26.0035 84.5061L27.2766 83.7783L28.5407 84.5061L27.2766 85.243Z" fill="white"/>
<path d="M29.8141 86.6986L28.541 85.9707L29.8141 85.2429L31.0782 85.9707L29.8141 86.6986Z" fill="white"/>
<path opacity="0.4" d="M32.3515 88.1544L31.0784 87.4265L32.3515 86.6987L33.6246 87.4265L32.3515 88.1544Z" fill="white"/>
<path d="M34.8887 89.6191L33.6246 88.8912L34.8887 88.1544L36.1618 88.8912L34.8887 89.6191Z" fill="white"/>
<path opacity="0.1" d="M37.4254 91.0748L36.1613 90.3469L37.4254 89.6191L38.6985 90.3469L37.4254 91.0748Z" fill="white"/>
<path d="M39.9717 92.5305L38.6985 91.8027L39.9717 91.0748L41.2357 91.8027L39.9717 92.5305Z" fill="white"/>
<path d="M42.5091 93.9952L41.236 93.2673L42.5091 92.5305L43.7732 93.2673L42.5091 93.9952Z" fill="white"/>
<path d="M45.0461 95.451L43.7729 94.7231L45.0461 93.9952L46.3192 94.7231L45.0461 95.451Z" fill="white"/>
<path d="M47.5832 96.9066L46.3192 96.1788L47.5832 95.4509L48.8563 96.1788L47.5832 96.9066Z" fill="white"/>
<path d="M24.7214 86.7076L23.4573 85.9707L24.7214 85.2429L25.9945 85.9707L24.7214 86.7076Z" fill="white"/>
<path d="M27.2681 88.1633L25.995 87.4354L27.2681 86.7076L28.5322 87.4354L27.2681 88.1633Z" fill="white"/>
<path opacity="0.4" d="M29.8051 89.6191L28.532 88.8912L29.8051 88.1633L31.0691 88.8912L29.8051 89.6191Z" fill="white"/>
<path d="M32.3423 91.0838L31.0692 90.3469L32.3423 89.6191L33.6154 90.3469L32.3423 91.0838Z" fill="white"/>
<path d="M34.8797 92.5395L33.6156 91.8116L34.8797 91.0837L36.1528 91.8116L34.8797 92.5395Z" fill="white"/>
<path opacity="0.1" d="M37.4164 93.9953L36.1523 93.2674L37.4164 92.5396L38.6895 93.2674L37.4164 93.9953Z" fill="white"/>
<path opacity="0.4" d="M39.9626 95.4599L38.6895 94.7321L39.9626 93.9952L41.2267 94.7321L39.9626 95.4599Z" fill="white"/>
<path d="M42.4996 96.9156L41.2265 96.1878L42.4996 95.4599L43.7637 96.1878L42.4996 96.9156Z" fill="white"/>
<path opacity="0.1" d="M45.0375 98.3804L43.7644 97.6435L45.0375 96.9156L46.3106 97.6435L45.0375 98.3804Z" fill="white"/>
<path d="M22.1757 88.1723L20.9026 87.4444L22.1757 86.7076L23.4488 87.4444L22.1757 88.1723Z" fill="white"/>
<path opacity="0.4" d="M24.7126 89.628L23.4485 88.9001L24.7126 88.1722L25.9857 88.9001L24.7126 89.628Z" fill="white"/>
<path d="M27.2498 91.0838L25.9857 90.3559L27.2498 89.6281L28.5229 90.3559L27.2498 91.0838Z" fill="white"/>
<path d="M29.796 92.5484L28.5229 91.8116L29.796 91.0837L31.0601 91.8116L29.796 92.5484Z" fill="white"/>
<path d="M32.3332 94.0042L31.0601 93.2763L32.3332 92.5485L33.5973 93.2763L32.3332 94.0042Z" fill="white"/>
<path d="M34.8707 95.4599L33.5976 94.7321L34.8707 94.0042L36.1438 94.7321L34.8707 95.4599Z" fill="white"/>
<path d="M37.4071 96.9246L36.1431 96.1967L37.4071 95.4599L38.6802 96.1967L37.4071 96.9246Z" fill="white"/>
<path opacity="0.4" d="M39.9448 98.3803L38.6807 97.6525L39.9448 96.9246L41.2179 97.6525L39.9448 98.3803Z" fill="white"/>
<path d="M42.4911 99.8451L41.218 99.1082L42.4911 98.3804L43.7551 99.1082L42.4911 99.8451Z" fill="white"/>
<path d="M19.6294 89.6369L18.3563 88.9001L19.6294 88.1722L20.8935 88.9001L19.6294 89.6369Z" fill="white"/>
<path opacity="0.1" d="M22.1664 91.0927L20.8933 90.3649L22.1664 89.637L23.4305 90.3649L22.1664 91.0927Z" fill="white"/>
<path d="M24.7033 92.5486L23.4302 91.8207L24.7033 91.0928L25.9764 91.8207L24.7033 92.5486Z" fill="white"/>
<path d="M27.2408 94.0132L25.9767 93.2853L27.2408 92.5485L28.5139 93.2853L27.2408 94.0132Z" fill="white"/>
<path d="M29.7777 95.4688L28.5137 94.741L29.7777 94.0131L31.0509 94.741L29.7777 95.4688Z" fill="white"/>
<path d="M32.3247 96.9246L31.0516 96.1967L32.3247 95.4689L33.5888 96.1967L32.3247 96.9246Z" fill="white"/>
<path opacity="0.4" d="M34.8616 98.3893L33.5885 97.6615L34.8616 96.9246L36.1347 97.6615L34.8616 98.3893Z" fill="white"/>
<path d="M37.3984 99.8451L36.1343 99.1173L37.3984 98.3894L38.6715 99.1173L37.3984 99.8451Z" fill="white"/>
<path d="M39.9353 101.301L38.6712 100.573L39.9353 99.845L41.2084 100.573L39.9353 101.301Z" fill="white"/>
<path d="M39.9809 89.8976L0 66.9296L39.9809 43.9526L79.9618 66.9296L39.9809 89.8976Z" fill="#B2EDD5"/>
<path d="M39.9807 83.6255L10.916 66.9297L39.9807 50.2249L69.0454 66.9297L39.9807 83.6255Z" fill="#83D4B9"/>
<path d="M39.9807 51.3571L68.0612 67.4958L69.0454 66.9297L39.9807 50.2249L10.916 66.9297L11.9002 67.4958L39.9807 51.3571Z" fill="white"/>
<path d="M79.4354 66.9916V80.0122L39.4545 102.98V89.9597L79.4354 66.9916Z" fill="#B2EDD5"/>
<path d="M0 66.9296V79.9502L39.9809 102.918V89.8976L0 66.9296Z" fill="#83D4B9"/>
<g opacity="0.51">
<path d="M2.70871 72.7794V76.877L37.2722 96.7359V92.6383L2.70871 72.7794Z" fill="white"/>
</g>
<path d="M39.9809 89.1518L0.650096 66.5522L0 66.9296L39.9809 89.8976L79.9618 66.9296L79.3117 66.5522L39.9809 89.1518Z" fill="white"/>
<path d="M74.0201 75.99V78.3173L46.0298 94.4021V92.0748L74.0201 75.99Z" fill="#453C9E"/>
<path opacity="0.51" d="M2.50843e-05 66.9916V80.0122L39.9809 102.98V89.9597L2.50843e-05 66.9916Z" fill="#83D4B9"/>
<path d="M28.3069 89.2056L21.0746 85.0452L21.0655 85.9078L28.3069 90.0683V89.2056Z" fill="#DE2328"/>
<path d="M20.0268 84.4521L18.0675 83.3289V84.1825L20.0268 85.3147V84.4521Z" fill="white"/>
<path d="M10.8348 79.1774L6.8259 76.868V77.7307L10.8348 80.0311V79.1774Z" fill="#FCB513"/>
<path d="M14.5005 81.2801L11.5932 79.6088V80.4714L14.5005 82.1428V81.2801Z" fill="white"/>
<path d="M17.2186 82.8436L15.2593 81.7204V82.5741L17.2186 83.7063V82.8436Z" fill="#FCB513"/>
<path d="M40.0168 55.9579L38.7527 55.23L40.0168 54.5021L41.2899 55.23L40.0168 55.9579Z" fill="white"/>
<path opacity="0.1" d="M42.5635 57.4225L41.2904 56.6857L42.5635 55.9578L43.8276 56.6857L42.5635 57.4225Z" fill="white"/>
<path opacity="0.4" d="M45.1002 58.8782L43.8271 58.1503L45.1002 57.4225L46.3643 58.1503L45.1002 58.8782Z" fill="white"/>
<path d="M47.6379 60.334L46.3648 59.6061L47.6379 58.8782L48.911 59.6061L47.6379 60.334Z" fill="white"/>
<path opacity="0.4" d="M50.1753 61.7987L48.9113 61.0708L50.1753 60.334L51.4484 61.0708L50.1753 61.7987Z" fill="white"/>
<path d="M52.7118 63.2544L51.4477 62.5265L52.7118 61.7986L53.9849 62.5265L52.7118 63.2544Z" fill="white"/>
<path d="M55.258 64.7101L53.9849 63.9823L55.258 63.2544L56.5221 63.9823L55.258 64.7101Z" fill="white"/>
<path d="M57.7954 66.1748L56.5223 65.4469L57.7954 64.7101L59.0595 65.4469L57.7954 66.1748Z" fill="white"/>
<path opacity="0.1" d="M60.3324 67.6305L59.0593 66.9027L60.3324 66.1748L61.6055 66.9027L60.3324 67.6305Z" fill="white"/>
<path d="M37.4703 57.4225L36.1972 56.6947L37.4703 55.9668L38.7434 56.6947L37.4703 57.4225Z" fill="white"/>
<path d="M40.0078 58.8872L38.7437 58.1503L40.0078 57.4225L41.2809 58.1503L40.0078 58.8872Z" fill="white"/>
<path d="M42.554 60.3429L41.2809 59.6151L42.554 58.8872L43.8181 59.6151L42.554 60.3429Z" fill="white"/>
<path d="M45.0914 61.7986L43.8183 61.0708L45.0914 60.3429L46.3555 61.0708L45.0914 61.7986Z" fill="white"/>
<path d="M47.6289 63.2633L46.3558 62.5355L47.6289 61.7986L48.902 62.5355L47.6289 63.2633Z" fill="white"/>
<path d="M50.1661 64.719L48.902 63.9912L50.1661 63.2633L51.4392 63.9912L50.1661 64.719Z" fill="white"/>
<path d="M52.7023 66.1748L51.4382 65.447L52.7023 64.7191L53.9754 65.447L52.7023 66.1748Z" fill="white"/>
<path d="M55.2492 67.6395L53.9761 66.9117L55.2492 66.1748L56.5133 66.9117L55.2492 67.6395Z" fill="white"/>
<path d="M57.7864 69.0952L56.5133 68.3673L57.7864 67.6395L59.0505 68.3673L57.7864 69.0952Z" fill="white"/>
<path d="M34.9251 58.8872L33.652 58.1594L34.9251 57.4315L36.1892 58.1594L34.9251 58.8872Z" fill="white"/>
<path d="M37.4615 60.3519L36.1884 59.6241L37.4615 58.8872L38.7346 59.6241L37.4615 60.3519Z" fill="white"/>
<path d="M39.9987 61.8076L38.7346 61.0797L39.9987 60.3519L41.2718 61.0797L39.9987 61.8076Z" fill="white"/>
<path opacity="0.1" d="M42.5359 63.2633L41.2719 62.5354L42.5359 61.8076L43.809 62.5354L42.5359 63.2633Z" fill="white"/>
<path opacity="0.4" d="M45.0734 64.728L43.8093 64.0002L45.0734 63.2633L46.3465 64.0002L45.0734 64.728Z" fill="white"/>
<path opacity="0.4" d="M47.6198 66.1838L46.3467 65.4559L47.6198 64.7281L48.8839 65.4559L47.6198 66.1838Z" fill="white"/>
<path d="M50.157 67.6485L48.8839 66.9116L50.157 66.1838L51.4211 66.9116L50.157 67.6485Z" fill="white"/>
<path d="M52.6937 69.1042L51.4297 68.3763L52.6937 67.6484L53.9668 68.3763L52.6937 69.1042Z" fill="white"/>
<path d="M55.2312 70.5598L53.9671 69.832L55.2312 69.1041L56.5043 69.832L55.2312 70.5598Z" fill="white"/>
<path opacity="0.4" d="M32.3693 60.3519L31.1053 59.624L32.3693 58.8962L33.6424 59.624L32.3693 60.3519Z" fill="white"/>
<path opacity="0.4" d="M34.916 61.8166L33.6429 61.0887L34.916 60.3519L36.1801 61.0887L34.916 61.8166Z" fill="white"/>
<path opacity="0.1" d="M37.4523 63.2723L36.1792 62.5444L37.4523 61.8166L38.7164 62.5444L37.4523 63.2723Z" fill="white"/>
<path d="M39.99 64.7281L38.7169 64.0003L39.99 63.2724L41.2631 64.0003L39.99 64.7281Z" fill="white"/>
<path d="M42.5274 66.1928L41.2633 65.4649L42.5274 64.7281L43.8005 65.4649L42.5274 66.1928Z" fill="white"/>
<path d="M45.0643 67.6485L43.8003 66.9206L45.0643 66.1927L46.3374 66.9206L45.0643 67.6485Z" fill="white"/>
<path opacity="0.4" d="M47.6108 69.1042L46.3377 68.3763L47.6108 67.6484L48.8749 68.3763L47.6108 69.1042Z" fill="white"/>
<path d="M50.148 70.5688L48.8749 69.841L50.148 69.1041L51.4121 69.841L50.148 70.5688Z" fill="white"/>
<path d="M52.6845 72.0246L51.4114 71.2967L52.6845 70.5688L53.9576 71.2967L52.6845 72.0246Z" fill="white"/>
<path d="M29.8231 61.8166L28.55 61.0888L29.8231 60.3609L31.0962 61.0888L29.8231 61.8166Z" fill="white"/>
<path d="M32.3605 63.2813L31.0965 62.5534L32.3605 61.8166L33.6336 62.5534L32.3605 63.2813Z" fill="white"/>
<path d="M34.898 64.7371L33.6339 64.0092L34.898 63.2814L36.1711 64.0092L34.898 64.7371Z" fill="white"/>
<path d="M37.4432 66.2018L36.1701 65.4649L37.4432 64.7371L38.7073 65.4649L37.4432 66.2018Z" fill="white"/>
<path d="M39.9809 67.6574L38.7078 66.9296L39.9809 66.2017L41.245 66.9296L39.9809 67.6574Z" fill="white"/>
<path d="M42.5181 69.1132L41.254 68.3853L42.5181 67.6575L43.7912 68.3853L42.5181 69.1132Z" fill="white"/>
<path d="M45.0551 70.5689L43.791 69.8411L45.0551 69.1132L46.3282 69.8411L45.0551 70.5689Z" fill="white"/>
<path d="M47.6015 72.0336L46.3284 71.3057L47.6015 70.5688L48.8656 71.3057L47.6015 72.0336Z" fill="white"/>
<path d="M50.1392 73.4893L48.8661 72.7615L50.1392 72.0336L51.4033 72.7615L50.1392 73.4893Z" fill="white"/>
<path d="M27.2766 63.2813L26.0035 62.5534L27.2766 61.8256L28.5407 62.5534L27.2766 63.2813Z" fill="white"/>
<path d="M29.8141 64.7461L28.541 64.0182L29.8141 63.2814L31.0782 64.0182L29.8141 64.7461Z" fill="white"/>
<path opacity="0.4" d="M32.3515 66.2018L31.0784 65.4739L32.3515 64.746L33.6246 65.4739L32.3515 66.2018Z" fill="white"/>
<path d="M34.8887 67.6574L33.6246 66.9296L34.8887 66.2017L36.1618 66.9296L34.8887 67.6574Z" fill="white"/>
<path opacity="0.1" d="M37.4254 69.1222L36.1613 68.3943L37.4254 67.6575L38.6985 68.3943L37.4254 69.1222Z" fill="white"/>
<path d="M39.9717 70.5779L38.6985 69.85L39.9717 69.1221L41.2357 69.85L39.9717 70.5779Z" fill="white"/>
<path d="M42.5091 72.0426L41.236 71.3057L42.5091 70.5779L43.7732 71.3057L42.5091 72.0426Z" fill="white"/>
<path d="M45.0461 73.4983L43.7729 72.7704L45.0461 72.0425L46.3192 72.7704L45.0461 73.4983Z" fill="white"/>
<path d="M47.5832 74.9541L46.3192 74.2263L47.5832 73.4984L48.8563 74.2263L47.5832 74.9541Z" fill="white"/>
<path d="M24.7214 64.7461L23.4573 64.0182L24.7214 63.2903L25.9945 64.0182L24.7214 64.7461Z" fill="white"/>
<path d="M27.2681 66.2107L25.995 65.4829L27.2681 64.746L28.5322 65.4829L27.2681 66.2107Z" fill="white"/>
<path opacity="0.4" d="M29.8051 67.6665L28.532 66.9386L29.8051 66.2108L31.0691 66.9386L29.8051 67.6665Z" fill="white"/>
<path d="M32.3423 69.1312L31.0692 68.3944L32.3423 67.6665L33.6154 68.3944L32.3423 69.1312Z" fill="white"/>
<path d="M34.8797 70.5868L33.6156 69.859L34.8797 69.1311L36.1528 69.859L34.8797 70.5868Z" fill="white"/>
<path opacity="0.1" d="M37.4164 72.0425L36.1523 71.3147L37.4164 70.5868L38.6895 71.3147L37.4164 72.0425Z" fill="white"/>
<path opacity="0.4" d="M39.9626 73.4983L38.6895 72.7704L39.9626 72.0425L41.2267 72.7704L39.9626 73.4983Z" fill="white"/>
<path d="M42.4996 74.9631L41.2265 74.2353L42.4996 73.4984L43.7637 74.2353L42.4996 74.9631Z" fill="white"/>
<path opacity="0.1" d="M45.0375 76.4187L43.7644 75.6909L45.0375 74.963L46.3106 75.6909L45.0375 76.4187Z" fill="white"/>
<path d="M22.1757 66.2108L20.9026 65.4829L22.1757 64.7551L23.4488 65.4829L22.1757 66.2108Z" fill="white"/>
<path opacity="0.4" d="M24.7126 67.6755L23.4485 66.9476L24.7126 66.2108L25.9857 66.9476L24.7126 67.6755Z" fill="white"/>
<path d="M27.2498 69.1311L25.9857 68.4033L27.2498 67.6754L28.5229 68.4033L27.2498 69.1311Z" fill="white"/>
<path d="M29.796 70.5958L28.5229 69.859L29.796 69.1311L31.0601 69.859L29.796 70.5958Z" fill="white"/>
<path d="M32.3332 72.0515L31.0601 71.3237L32.3332 70.5958L33.5973 71.3237L32.3332 72.0515Z" fill="white"/>
<path d="M34.8707 73.5074L33.5976 72.7795L34.8707 72.0516L36.1438 72.7795L34.8707 73.5074Z" fill="white"/>
<path d="M37.4071 74.972L36.1431 74.2352L37.4071 73.5073L38.6802 74.2352L37.4071 74.972Z" fill="white"/>
<path opacity="0.4" d="M39.9448 76.4277L38.6807 75.6998L39.9448 74.972L41.2179 75.6998L39.9448 76.4277Z" fill="white"/>
<path d="M42.4911 77.8834L41.218 77.1555L42.4911 76.4277L43.7551 77.1555L42.4911 77.8834Z" fill="white"/>
<path d="M19.6294 67.6754L18.3563 66.9476L19.6294 66.2197L20.8935 66.9476L19.6294 67.6754Z" fill="white"/>
<path opacity="0.1" d="M22.1664 69.1401L20.8933 68.4123L22.1664 67.6754L23.4305 68.4123L22.1664 69.1401Z" fill="white"/>
<path d="M24.7033 70.5959L23.4302 69.8681L24.7033 69.1402L25.9764 69.8681L24.7033 70.5959Z" fill="white"/>
<path d="M27.2408 72.0515L25.9767 71.3237L27.2408 70.5958L28.5139 71.3237L27.2408 72.0515Z" fill="white"/>
<path d="M29.7777 73.5163L28.5137 72.7885L29.7777 72.0516L31.0509 72.7885L29.7777 73.5163Z" fill="white"/>
<path d="M32.3247 74.972L31.0516 74.2442L32.3247 73.5163L33.5888 74.2442L32.3247 74.972Z" fill="white"/>
<path opacity="0.4" d="M34.8616 76.4367L33.5885 75.6998L34.8616 74.972L36.1347 75.6998L34.8616 76.4367Z" fill="white"/>
<path d="M37.3984 77.8924L36.1343 77.1646L37.3984 76.4367L38.6715 77.1646L37.3984 77.8924Z" fill="white"/>
<path d="M39.9353 79.3482L38.6712 78.6203L39.9353 77.8925L41.2084 78.6203L39.9353 79.3482Z" fill="white"/>
<path d="M39.9809 67.945L0 44.968L39.9809 22L79.9618 44.977L39.9809 67.945Z" fill="#D2D1F9"/>
<path d="M39.9807 61.6728L10.916 44.968L39.9807 28.2722L69.0454 44.968L39.9807 61.6728Z" fill="#453C9E"/>
<path d="M39.9807 29.4044L68.0612 45.5341L69.0454 44.968L39.9807 28.2722L10.916 44.968L11.9002 45.5341L39.9807 29.4044Z" fill="white"/>
<path d="M79.9614 44.9771V57.9887L39.9804 80.9657V67.9451L79.9614 44.9771Z" fill="#D2D1F9"/>
<path d="M0 44.968V57.9886L39.9809 80.9656V67.945L0 44.968Z" fill="#24126A"/>
<g opacity="0.51">
<path d="M2.70871 50.8179V54.9244L37.2722 74.7833V70.6768L2.70871 50.8179Z" fill="#453C9E"/>
</g>
<path d="M39.9809 67.1991L0.650096 44.5995L0 44.968L39.9809 67.945L79.9618 44.977L79.3117 44.5995L39.9809 67.1991Z" fill="white"/>
<path d="M74.0201 53.9031V56.2305L46.0298 72.3153V69.979L74.0201 53.9031Z" fill="#4150B3"/>
<path opacity="0.51" d="M0 44.968V57.9886L39.9809 80.9656V67.945L0 44.968Z" fill="#453C9E"/>
<path d="M28.3069 67.2531L21.0746 63.0927L21.0655 63.9553L28.3069 68.1068V67.2531Z" fill="#FCB513"/>
<path d="M20.0268 62.4996L18.0675 61.3763V62.23L20.0268 63.3622V62.4996Z" fill="#FCB513"/>
<path d="M10.8348 57.2248L6.8259 54.9154V55.7781L10.8348 58.0785V57.2248Z" fill="white"/>
<path d="M14.5005 59.3276L11.5932 57.6562V58.5188L14.5005 60.1812V59.3276Z" fill="#FCB513"/>
<path d="M17.2186 60.8911L15.2593 59.7589V60.6216L17.2186 61.7538V60.8911Z" fill="white"/>
<path d="M40.0168 34.0052L38.7527 33.2774L40.0168 32.5495L41.2899 33.2774L40.0168 34.0052Z" fill="#FCB513"/>
<path opacity="0.1" d="M42.5635 35.461L41.2904 34.7331L42.5635 34.0052L43.8276 34.7331L42.5635 35.461Z" fill="white"/>
<path opacity="0.4" d="M45.1002 36.9255L43.8271 36.1977L45.1002 35.4608L46.3643 36.1977L45.1002 36.9255Z" fill="white"/>
<path d="M47.6379 38.3814L46.3648 37.6535L47.6379 36.9257L48.911 37.6535L47.6379 38.3814Z" fill="#FCB513"/>
<path opacity="0.4" d="M50.1753 39.846L48.9113 39.1091L50.1753 38.3813L51.4484 39.1091L50.1753 39.846Z" fill="white"/>
<path d="M52.7118 41.3018L51.4477 40.5739L52.7118 39.8461L53.9849 40.5739L52.7118 41.3018Z" fill="white"/>
<path d="M55.258 42.7575L53.9849 42.0297L55.258 41.3018L56.5221 42.0297L55.258 42.7575Z" fill="white"/>
<path d="M57.7954 44.2221L56.5223 43.4852L57.7954 42.7574L59.0595 43.4852L57.7954 44.2221Z" fill="white"/>
<path opacity="0.1" d="M60.3324 45.6779L59.0593 44.9501L60.3324 44.2222L61.6055 44.9501L60.3324 45.6779Z" fill="white"/>
<path d="M37.4703 35.4698L36.1972 34.742L37.4703 34.0141L38.7434 34.742L37.4703 35.4698Z" fill="white"/>
<path d="M40.0078 36.9256L38.7437 36.1977L40.0078 35.4698L41.2809 36.1977L40.0078 36.9256Z" fill="white"/>
<path d="M42.554 38.3904L41.2809 37.6625L42.554 36.9257L43.8181 37.6625L42.554 38.3904Z" fill="white"/>
<path d="M45.0914 39.8461L43.8183 39.1182L45.0914 38.3904L46.3555 39.1182L45.0914 39.8461Z" fill="white"/>
<path d="M47.6289 41.3108L46.3558 40.5739L47.6289 39.8461L48.902 40.5739L47.6289 41.3108Z" fill="white"/>
<path d="M50.1661 42.7664L48.902 42.0385L50.1661 41.3107L51.4392 42.0385L50.1661 42.7664Z" fill="#FCB513"/>
<path d="M52.7023 44.2221L51.4382 43.4943L52.7023 42.7664L53.9754 43.4943L52.7023 44.2221Z" fill="white"/>
<path d="M55.2492 45.6869L53.9761 44.9501L55.2492 44.2222L56.5133 44.9501L55.2492 45.6869Z" fill="#FCB513"/>
<path d="M57.7864 47.1426L56.5133 46.4147L57.7864 45.6869L59.0505 46.4147L57.7864 47.1426Z" fill="white"/>
<path d="M34.9251 36.9347L33.652 36.2068L34.9251 35.4789L36.1892 36.2068L34.9251 36.9347Z" fill="white"/>
<path d="M37.4615 38.3993L36.1884 37.6625L37.4615 36.9346L38.7346 37.6625L37.4615 38.3993Z" fill="#FCB513"/>
<path d="M39.9987 39.8551L38.7346 39.1272L39.9987 38.3994L41.2718 39.1272L39.9987 39.8551Z" fill="white"/>
<path opacity="0.1" d="M42.5359 41.3108L41.2719 40.5829L42.5359 39.855L43.809 40.5829L42.5359 41.3108Z" fill="white"/>
<path opacity="0.4" d="M45.0734 42.7754L43.8093 42.0385L45.0734 41.3107L46.3465 42.0385L45.0734 42.7754Z" fill="white"/>
<path opacity="0.4" d="M47.6198 44.2312L46.3467 43.5034L47.6198 42.7755L48.8839 43.5034L47.6198 44.2312Z" fill="white"/>
<path d="M50.157 45.6869L48.8839 44.9591L50.157 44.2312L51.4211 44.9591L50.157 45.6869Z" fill="white"/>
<path d="M52.6937 47.1516L51.4297 46.4237L52.6937 45.6869L53.9668 46.4237L52.6937 47.1516Z" fill="white"/>
<path d="M55.2312 48.6073L53.9671 47.8795L55.2312 47.1516L56.5043 47.8795L55.2312 48.6073Z" fill="white"/>
<path opacity="0.4" d="M32.3693 38.3993L31.1053 37.6715L32.3693 36.9436L33.6424 37.6715L32.3693 38.3993Z" fill="white"/>
<path opacity="0.4" d="M34.916 39.8641L33.6429 39.1272L34.916 38.3994L36.1801 39.1272L34.916 39.8641Z" fill="white"/>
<path opacity="0.1" d="M37.4523 41.3197L36.1792 40.5918L37.4523 39.864L38.7164 40.5918L37.4523 41.3197Z" fill="white"/>
<path d="M39.99 42.7755L38.7169 42.0476L39.99 41.3198L41.2631 42.0476L39.99 42.7755Z" fill="white"/>
<path d="M42.5274 44.2402L41.2633 43.5034L42.5274 42.7755L43.8005 43.5034L42.5274 44.2402Z" fill="#FCB513"/>
<path d="M45.0643 45.6958L43.8003 44.968L45.0643 44.2401L46.3374 44.968L45.0643 45.6958Z" fill="white"/>
<path opacity="0.4" d="M47.6108 47.1516L46.3377 46.4238L47.6108 45.6959L48.8749 46.4238L47.6108 47.1516Z" fill="white"/>
<path d="M50.148 48.6163L48.8749 47.8795L50.148 47.1516L51.4121 47.8795L50.148 48.6163Z" fill="white"/>
<path d="M52.6845 50.0721L51.4114 49.3442L52.6845 48.6163L53.9576 49.3442L52.6845 50.0721Z" fill="white"/>
<path d="M29.8231 39.864L28.55 39.1362L29.8231 38.4083L31.0962 39.1362L29.8231 39.864Z" fill="white"/>
<path d="M32.3605 41.3197L31.0965 40.5918L32.3605 39.864L33.6336 40.5918L32.3605 41.3197Z" fill="#FCB513"/>
<path d="M34.898 42.7845L33.6339 42.0566L34.898 41.3198L36.1711 42.0566L34.898 42.7845Z" fill="white"/>
<path d="M37.4432 44.2402L36.1701 43.5123L37.4432 42.7845L38.7073 43.5123L37.4432 44.2402Z" fill="white"/>
<path d="M39.9809 45.7048L38.7078 44.968L39.9809 44.2401L41.245 44.968L39.9809 45.7048Z" fill="white"/>
<path d="M42.5181 47.1606L41.254 46.4328L42.5181 45.7049L43.7912 46.4328L42.5181 47.1606Z" fill="white"/>
<path d="M45.0551 48.6163L43.791 47.8884L45.0551 47.1606L46.3282 47.8884L45.0551 48.6163Z" fill="white"/>
<path d="M47.6015 50.081L46.3284 49.3442L47.6015 48.6163L48.8656 49.3442L47.6015 50.081Z" fill="white"/>
<path d="M50.1392 51.5367L48.8661 50.8089L50.1392 50.081L51.4033 50.8089L50.1392 51.5367Z" fill="#FCB513"/>
<path d="M27.2766 41.3288L26.0035 40.6009L27.2766 39.873L28.5407 40.6009L27.2766 41.3288Z" fill="#FCB513"/>
<path d="M29.8141 42.7934L28.541 42.0566L29.8141 41.3287L31.0782 42.0566L29.8141 42.7934Z" fill="white"/>
<path opacity="0.4" d="M32.3515 44.2491L31.0784 43.5212L32.3515 42.7933L33.6246 43.5212L32.3515 44.2491Z" fill="white"/>
<path d="M34.8887 45.7048L33.6246 44.9769L34.8887 44.2491L36.1618 44.9769L34.8887 45.7048Z" fill="white"/>
<path opacity="0.1" d="M37.4254 47.1696L36.1613 46.4328L37.4254 45.7049L38.6985 46.4328L37.4254 47.1696Z" fill="white"/>
<path d="M39.9717 48.6253L38.6985 47.8975L39.9717 47.1696L41.2357 47.8975L39.9717 48.6253Z" fill="white"/>
<path d="M42.5091 50.081L41.236 49.3532L42.5091 48.6253L43.7732 49.3532L42.5091 50.081Z" fill="white"/>
<path d="M45.0461 51.5457L43.7729 50.8089L45.0461 50.081L46.3192 50.8089L45.0461 51.5457Z" fill="#FCB513"/>
<path d="M47.5832 53.0014L46.3192 52.2735L47.5832 51.5457L48.8563 52.2735L47.5832 53.0014Z" fill="white"/>
<path d="M24.7214 42.7934L23.4573 42.0655L24.7214 41.3376L25.9945 42.0655L24.7214 42.7934Z" fill="white"/>
<path d="M27.2681 44.258L25.995 43.5212L27.2681 42.7933L28.5322 43.5212L27.2681 44.258Z" fill="white"/>
<path opacity="0.4" d="M29.8051 45.7139L28.532 44.986L29.8051 44.2582L31.0691 44.986L29.8051 45.7139Z" fill="white"/>
<path d="M32.3423 47.1696L31.0692 46.4417L32.3423 45.7139L33.6154 46.4417L32.3423 47.1696Z" fill="white"/>
<path d="M34.8797 48.6343L33.6156 47.8975L34.8797 47.1696L36.1528 47.8975L34.8797 48.6343Z" fill="#FCB513"/>
<path opacity="0.1" d="M37.4164 50.09L36.1523 49.3621L37.4164 48.6343L38.6895 49.3621L37.4164 50.09Z" fill="white"/>
<path opacity="0.4" d="M39.9626 51.5457L38.6895 50.8178L39.9626 50.09L41.2267 50.8178L39.9626 51.5457Z" fill="white"/>
<path d="M42.4996 53.0104L41.2265 52.2825L42.4996 51.5457L43.7637 52.2825L42.4996 53.0104Z" fill="white"/>
<path opacity="0.1" d="M45.0375 54.4661L43.7644 53.7382L45.0375 53.0104L46.3106 53.7382L45.0375 54.4661Z" fill="white"/>
<path d="M22.1757 44.2581L20.9026 43.5303L22.1757 42.8024L23.4488 43.5303L22.1757 44.2581Z" fill="#FCB513"/>
<path opacity="0.4" d="M24.7126 45.7229L23.4485 44.986L24.7126 44.2582L25.9857 44.986L24.7126 45.7229Z" fill="white"/>
<path d="M27.2498 47.1786L25.9857 46.4507L27.2498 45.7228L28.5229 46.4507L27.2498 47.1786Z" fill="white"/>
<path d="M29.796 48.6343L28.5229 47.9064L29.796 47.1786L31.0601 47.9064L29.796 48.6343Z" fill="white"/>
<path d="M32.3332 50.099L31.0601 49.3621L32.3332 48.6343L33.5973 49.3621L32.3332 50.099Z" fill="white"/>
<path d="M34.8707 51.5547L33.5976 50.8269L34.8707 50.099L36.1438 50.8269L34.8707 51.5547Z" fill="#FCB513"/>
<path d="M37.4071 53.0105L36.1431 52.2826L37.4071 51.5547L38.6802 52.2826L37.4071 53.0105Z" fill="white"/>
<path opacity="0.4" d="M39.9448 54.4751L38.6807 53.7472L39.9448 53.0104L41.2179 53.7472L39.9448 54.4751Z" fill="white"/>
<path d="M42.4911 55.9309L41.218 55.203L42.4911 54.4752L43.7551 55.203L42.4911 55.9309Z" fill="white"/>
<path d="M19.6294 45.7227L18.3563 44.9949L19.6294 44.267L20.8935 44.9949L19.6294 45.7227Z" fill="white"/>
<path opacity="0.1" d="M22.1664 47.1875L20.8933 46.4507L22.1664 45.7228L23.4305 46.4507L22.1664 47.1875Z" fill="white"/>
<path d="M24.7033 48.6433L23.4302 47.9154L24.7033 47.1876L25.9764 47.9154L24.7033 48.6433Z" fill="white"/>
<path d="M27.2408 50.0989L25.9767 49.371L27.2408 48.6432L28.5139 49.371L27.2408 50.0989Z" fill="#FCB513"/>
<path d="M29.7777 51.5637L28.5137 50.8358L29.7777 50.099L31.0509 50.8358L29.7777 51.5637Z" fill="white"/>
<path d="M32.3247 53.0194L31.0516 52.2915L32.3247 51.5637L33.5888 52.2915L32.3247 53.0194Z" fill="white"/>
<path opacity="0.4" d="M34.8616 54.4751L33.5885 53.7473L34.8616 53.0194L36.1347 53.7473L34.8616 54.4751Z" fill="white"/>
<path d="M37.3984 55.9399L36.1343 55.203L37.3984 54.4752L38.6715 55.203L37.3984 55.9399Z" fill="white"/>
<path d="M39.9353 57.3956L38.6712 56.6677L39.9353 55.9399L41.2084 56.6677L39.9353 57.3956Z" fill="#FCB513"/>
<path opacity="0.7" d="M12.2331 133.851C11.8813 133.863 11.5326 133.782 11.2218 133.618L3.46583 129.125C3.33641 129.061 3.22636 128.964 3.14702 128.844C3.06767 128.724 3.02189 128.585 3.01437 128.442C3.03146 128.26 3.09641 128.087 3.20264 127.938C3.30888 127.79 3.45263 127.672 3.61932 127.597L11.0683 123.329C11.4163 123.13 11.8075 123.018 12.2084 123.002C12.6094 122.986 13.0083 123.068 13.3708 123.239L21.1268 127.732C21.2562 127.795 21.3662 127.892 21.4456 128.012C21.5249 128.132 21.5707 128.271 21.5782 128.415C21.5612 128.596 21.4962 128.77 21.39 128.918C21.2837 129.066 21.14 129.184 20.9733 129.259L13.5243 133.537C13.1284 133.751 12.6836 133.859 12.2331 133.851ZM12.3595 123.392C11.9724 123.387 11.5903 123.479 11.2489 123.661L3.79991 127.938C3.52903 128.1 3.37554 128.298 3.37554 128.478C3.38463 128.558 3.41429 128.635 3.46169 128.701C3.5091 128.767 3.57269 128.82 3.64641 128.855L11.4024 133.303C11.7107 133.438 12.046 133.501 12.3825 133.487C12.719 133.473 13.0478 133.382 13.3437 133.222L20.8198 128.936C21.0907 128.783 21.2442 128.585 21.2442 128.406C21.2359 128.325 21.2066 128.247 21.1591 128.181C21.1116 128.115 21.0475 128.062 20.9733 128.028L13.2173 123.535C12.9474 123.419 12.6529 123.369 12.3595 123.392Z" fill="#B2EDD5"/>
<path opacity="0.7" d="M90.0292 124.107C89.6738 124.115 89.3223 124.032 89.0089 123.864L81.2619 119.372C81.1289 119.309 81.0157 119.212 80.9345 119.09C80.8533 118.968 80.8073 118.826 80.8015 118.68C80.8212 118.498 80.8882 118.324 80.9958 118.176C81.1035 118.028 81.2481 117.91 81.4154 117.835L88.8645 113.558C89.2123 113.363 89.6015 113.253 90.0003 113.238C90.399 113.222 90.7957 113.301 91.1579 113.468L98.9139 117.961C99.0456 118.022 99.158 118.118 99.2391 118.239C99.3202 118.359 99.3669 118.499 99.3743 118.644C99.3564 118.826 99.2901 119 99.1822 119.149C99.0743 119.297 98.9287 119.414 98.7604 119.488L91.3113 123.775C90.9182 123.989 90.4777 124.104 90.0292 124.107ZM89.1895 123.559C89.4984 123.693 89.8341 123.754 90.1706 123.739C90.5072 123.723 90.8356 123.631 91.1308 123.469L98.5798 119.192C98.6912 119.145 98.7892 119.071 98.8648 118.977C98.9405 118.883 98.9914 118.771 99.0132 118.653C99.0035 118.572 98.9725 118.496 98.9233 118.431C98.8741 118.366 98.8085 118.315 98.7333 118.284L90.9773 113.791C90.6688 113.655 90.3329 113.593 89.996 113.609C89.6591 113.624 89.3305 113.717 89.036 113.881L81.587 118.158C81.3251 118.311 81.1626 118.509 81.1626 118.689C81.1726 118.77 81.2036 118.848 81.2526 118.914C81.3017 118.98 81.3671 119.032 81.4425 119.066L89.1895 123.559Z" fill="#B2EDD5"/>
<g clip-path="url(#clip0_41_1271)">
<path d="M55.4162 8.63028C54.3194 5.80485 53.0492 4.80225 48.1046 4.80225C45.0786 4.80225 42.7974 7.06449 42.7974 10.0654C42.7974 11.6716 43.6395 13.1496 44.5293 14.7154C44.8735 15.3207 45.229 15.9452 45.5377 16.5838L45.8774 17.2732C46.6576 18.8425 47.2201 19.9767 47.2201 22.346C47.2201 23.2504 47.0388 24.3267 46.6328 25.8214C46.623 25.8434 46.6142 25.8661 46.6054 25.8898L43.6598 34.5724L36.0236 13.2321C36.2448 13.2005 36.465 13.1742 36.6853 13.1383C38.113 13.0961 39.2593 11.9322 39.2593 10.5076C39.2593 9.05588 38.0696 7.87597 36.6057 7.87597C36.5579 7.87597 36.5083 7.88038 36.4606 7.88739C33.0349 8.45316 29.5622 8.45316 26.1364 7.88739C26.0895 7.88038 26.0399 7.87597 25.9914 7.87597C24.5284 7.87597 23.3377 9.05578 23.3377 10.5076C23.3377 11.9322 24.4849 13.0962 25.9126 13.1383C26.2178 13.1874 26.5239 13.2278 26.8307 13.2689L30.3592 22.3654L25.9675 35.2663L17.9996 13.1593C18.042 13.1514 18.0836 13.1461 18.126 13.1383C19.5448 13.0883 20.6841 11.9277 20.6841 10.5085C20.6841 9.05674 19.4944 7.87684 18.0304 7.87684C17.973 7.87684 17.9145 7.88211 17.8571 7.89353C15.0381 8.4523 12.1784 8.4523 9.35938 7.89353C9.30191 7.88211 9.24348 7.87684 9.18514 7.87684C7.72205 7.87674 6.53149 9.05665 6.53149 10.5084C6.53149 11.9136 7.64959 13.061 9.04892 13.132L19.873 42.589C20.4736 44.2583 21.8684 45.5057 23.6048 45.9276C24.0179 46.0267 24.4328 46.075 24.8432 46.075C27.0731 46.075 29.1544 44.6592 29.8841 42.4873L34.8659 27.668L40.212 42.5408C40.7056 43.7259 41.5317 44.582 42.5365 44.9531C43.4228 45.2794 44.3842 45.2084 45.2431 44.7768C46.3886 44.3224 47.2696 43.3978 47.6605 42.2382L54.2335 22.7935C55.7479 19.0356 56.0654 15.7198 56.0654 13.6005V12.1601C56.0654 10.9303 55.847 9.74254 55.4162 8.63028Z" fill="#69BCA8"/>
</g>
<g clip-path="url(#clip1_41_1271)">
<path d="M57.4162 8.63028C56.3194 5.80485 55.0492 4.80225 50.1046 4.80225C47.0786 4.80225 44.7974 7.06449 44.7974 10.0654C44.7974 11.6716 45.6395 13.1496 46.5293 14.7154C46.8735 15.3207 47.229 15.9452 47.5377 16.5838L47.8774 17.2732C48.6576 18.8425 49.2201 19.9767 49.2201 22.346C49.2201 23.2504 49.0388 24.3267 48.6328 25.8214C48.623 25.8434 48.6142 25.8661 48.6054 25.8898L45.6598 34.5724L38.0236 13.2321C38.2448 13.2005 38.465 13.1742 38.6853 13.1383C40.113 13.0961 41.2593 11.9322 41.2593 10.5076C41.2593 9.05588 40.0696 7.87597 38.6057 7.87597C38.5579 7.87597 38.5083 7.88038 38.4606 7.88739C35.0349 8.45316 31.5622 8.45316 28.1364 7.88739C28.0895 7.88038 28.0399 7.87597 27.9914 7.87597C26.5284 7.87597 25.3377 9.05578 25.3377 10.5076C25.3377 11.9322 26.4849 13.0962 27.9126 13.1383C28.2178 13.1874 28.5239 13.2278 28.8307 13.2689L32.3592 22.3654L27.9675 35.2663L19.9996 13.1593C20.042 13.1514 20.0836 13.1461 20.126 13.1383C21.5448 13.0883 22.6841 11.9277 22.6841 10.5085C22.6841 9.05674 21.4944 7.87684 20.0304 7.87684C19.973 7.87684 19.9145 7.88211 19.8571 7.89353C17.0381 8.4523 14.1784 8.4523 11.3594 7.89353C11.3019 7.88211 11.2435 7.87684 11.1851 7.87684C9.72205 7.87674 8.53149 9.05665 8.53149 10.5084C8.53149 11.9136 9.64959 13.061 11.0489 13.132L21.873 42.589C22.4736 44.2583 23.8684 45.5057 25.6048 45.9276C26.0179 46.0267 26.4328 46.075 26.8432 46.075C29.0731 46.075 31.1544 44.6592 31.8841 42.4873L36.8659 27.668L42.212 42.5408C42.7056 43.7259 43.5317 44.582 44.5365 44.9531C45.4228 45.2794 46.3842 45.2084 47.2431 44.7768C48.3886 44.3224 49.2696 43.3978 49.6605 42.2382L56.2335 22.7935C57.7479 19.0356 58.0654 15.7198 58.0654 13.6005V12.1601C58.0654 10.9303 57.847 9.74254 57.4162 8.63028Z" fill="#83D4B9"/>
</g>
<g clip-path="url(#clip2_41_1271)">
<path d="M60.4212 7.75308C59.3244 4.92765 58.0542 3.92505 53.1097 3.92505C50.0836 3.92505 47.8025 6.18729 47.8025 9.18819C47.8025 10.7944 48.6445 12.2724 49.5344 13.8382C49.8785 14.4435 50.2341 15.068 50.5428 15.7066L50.8825 16.396C51.6626 17.9653 52.2252 19.0995 52.2252 21.4688C52.2252 22.3732 52.0439 23.4495 51.6379 24.9442C51.6281 24.9662 51.6193 24.9889 51.6105 25.0126L48.6649 33.6952L41.0287 12.3549C41.2499 12.3233 41.4701 12.297 41.6903 12.2611C43.118 12.2189 44.2644 11.055 44.2644 9.63039C44.2644 8.17868 43.0747 6.99877 41.6107 6.99877C41.5629 6.99877 41.5134 7.00319 41.4657 7.01019C38.0399 7.57597 34.5672 7.57597 31.1415 7.01019C31.0945 7.00319 31.045 6.99877 30.9964 6.99877C29.5334 6.99877 28.3428 8.17859 28.3428 9.63039C28.3428 11.055 29.49 12.219 30.9177 12.2611C31.2228 12.3102 31.5289 12.3506 31.8358 12.3917L35.3642 21.4882L30.9725 34.3891L23.0046 12.2821C23.0471 12.2742 23.0887 12.2689 23.1311 12.2611C24.5499 12.2111 25.6891 11.0505 25.6891 9.63126C25.6891 8.17954 24.4995 6.99964 23.0355 6.99964C22.978 6.99964 22.9196 7.00491 22.8621 7.01633C20.0431 7.5751 17.1834 7.5751 14.3644 7.01633C14.307 7.00491 14.2485 6.99964 14.1902 6.99964C12.7271 6.99954 11.5366 8.17945 11.5366 9.63116C11.5366 11.0364 12.6547 12.1838 14.054 12.2548L24.878 41.7118C25.4786 43.3811 26.8735 44.6285 28.6099 45.0504C29.023 45.1495 29.4379 45.1978 29.8482 45.1978C32.0781 45.1978 34.1594 43.782 34.8892 41.6101L39.8709 26.7909L45.217 41.6636C45.7106 42.8487 46.5367 43.7048 47.5415 44.0759C48.4278 44.4022 49.3893 44.3312 50.2482 43.8996C51.3937 43.4452 52.2746 42.5206 52.6656 41.361L59.2386 21.9163C60.753 18.1584 61.0705 14.8426 61.0705 12.7233V11.2829C61.0705 10.0531 60.852 8.86534 60.4212 7.75308Z" fill="#B2EDD5"/>
</g>
<defs>
<clipPath id="clip0_41_1271">
<rect width="49.5339" height="49.1228" fill="white" transform="translate(6.53149 0.877197)"/>
</clipPath>
<clipPath id="clip1_41_1271">
<rect width="49.5339" height="49.1228" fill="white" transform="translate(8.53149 0.877197)"/>
</clipPath>
<clipPath id="clip2_41_1271">
<rect width="49.5339" height="49.1228" fill="white" transform="translate(11.5366)"/>
</clipPath>
</defs>
</svg>
